<svg width="60" height="112" viewBox="0 0 60 112" fill="none" xmlns="http://www.w3.org/2000/svg">
<path d="M51.809 4.0394C51.8784 3.97408 53.3112 4.23361 53.4389 4.59213C53.5653 4.95256 53.0047 5.29906 53.2123 5.806C53.2635 5.92667 54.4198 6.85412 54.4779 6.95346C54.932 7.72977 52.8208 7.24419 52.6928 7.2435C52.3938 7.24902 52.2221 7.30636 52.1371 7.39487C52.3911 7.42066 52.7253 7.42787 52.8754 7.57944C53.0946 7.8022 52.5698 7.94518 52.8139 8.29916C53.0609 8.65425 53.7553 8.60822 53.7455 9.25327C53.7325 9.9557 53.6124 10.7438 53.4369 11.5277C53.7444 11.6922 54.0032 11.8401 53.9535 11.9857C53.8125 12.4049 53.4049 12.6761 53.0648 12.9339C52.9476 13.3154 52.8221 13.681 52.6957 14.0189C52.7885 14.1527 52.9295 14.3014 53.1293 14.4701C53.3199 14.6287 53.9119 14.6848 54.143 14.8255C54.0662 14.9049 53.9451 15.0006 53.767 15.1156C53.6874 15.1651 52.5425 15.7667 53.2357 16.1683C53.3238 16.2184 53.7752 16.2343 53.8109 16.2972C54.0418 16.7184 53.6725 16.9813 53.8324 17.4359C53.9925 17.8905 54.2381 18.4331 54.0765 18.9417C53.9795 19.2476 53.1313 19.635 52.9232 19.7826C52.3239 20.1991 53.2974 20.6535 52.5765 20.9124C51.8523 21.1771 50.7514 20.6555 50.2846 21.3578C51.4615 21.3803 52.6702 21.4353 53.8539 21.471C53.8186 22.9648 53.4711 24.4472 53.5863 25.9476C53.6019 26.1331 54.2255 25.917 54.2592 26.1136C54.3966 26.9438 53.986 27.6998 54.2221 28.557C54.4074 29.2195 55.1304 29.9018 55.3578 30.5804C54.0514 31.1199 54.6025 32.1235 54.5609 32.8861C54.5468 33.1546 54.1871 33.1756 54.0912 33.3773C53.7395 34.1365 54.8846 33.6697 55.0931 33.8412C55.9842 34.5732 53.318 34.9691 53.515 35.9583C53.5295 36.0148 55.0323 36.4535 55.1351 36.5267C55.7909 36.9979 54.6533 36.6889 54.598 37.0521C54.4986 37.7141 54.2276 38.2142 54.7631 38.8919C54.9212 39.09 55.8901 39.4605 55.2806 39.9955C55.2009 40.0659 54.7302 40.1162 54.7084 40.1654C54.3941 41.0546 55.8677 40.8166 56.4476 41.1761C57.0272 41.5351 56.1552 42.4334 55.893 42.6361C55.2152 43.1626 55.5133 42.4111 55.4359 42.4056C54.5094 42.3363 54.7614 42.8258 54.768 43.2386C53.346 43.5852 53.5479 44.1331 54.7806 43.6664C54.9151 43.6147 54.7185 43.3318 54.768 43.2386C56.2451 43.3064 56.546 43.8581 55.3822 44.8148C54.8377 45.2639 54.0542 45.1239 54.5316 46.0277C54.7491 46.4382 55.6924 46.0452 56.0482 46.3656C56.8574 47.087 56.2216 48.4342 56.598 49.2953C56.7339 49.6049 57.186 49.1517 57.2972 49.3578C57.5943 49.9032 57.3337 50.5276 57.6996 51.057C57.7363 51.1025 58.2538 50.8224 58.3109 51.0013C58.7563 52.3544 58.7537 53.6545 59.1889 55.0843C59.2408 55.2545 59.3221 55.4521 59.4183 55.6644C59.9516 57.7378 59.1017 60.0871 57.1058 60.8617C56.2508 61.3442 55.3073 61.8498 54.6762 62.0062C53.205 62.3755 51.3998 62.0066 50.3969 62.5238C49.7473 62.8562 50.0639 63.364 49.8949 63.8275C49.5692 64.7238 48.2122 63.7388 48.0101 63.5872C48.0032 63.5814 48.5186 63.2628 48.1254 63.0833C47.7511 62.5586 48.0147 63.5829 48.0101 63.5872C47.8785 63.484 46.7345 63.7597 46.5687 63.9486C46.4768 64.0508 46.74 64.5328 46.6889 64.5755C45.4699 65.5835 44.314 66.3007 43.0433 66.808C43.0146 66.806 42.7191 66.2772 42.6605 66.2923C41.8257 66.5092 41.8445 67.434 41.6664 68.1566C41.4863 68.8848 41.0906 69.0639 40.0775 68.5999C39.8443 69.0251 39.0558 69.2331 38.5834 69.39C38.1075 69.5499 39.0411 70.299 39.0414 70.3372C39.0688 71.6136 38.2111 71.7357 37.6244 72.7376C37.5593 72.8504 37.4944 72.9997 37.433 73.1712C37.1859 73.8389 36.9551 74.7262 36.8363 75.2845C36.7144 75.8659 36.3253 76.0887 36.2943 76.6517C36.2899 76.7275 36.8069 76.8537 36.8207 76.8822C37.1914 77.671 36.0903 76.9303 35.8295 76.9613C34.8817 77.0744 34.3606 77.1774 34.4545 78.0374C34.4771 78.2388 36.0315 79.388 36.0219 79.7259C36.0041 80.1659 35.4334 79.7841 35.432 80.2503C35.4339 80.2911 35.8197 80.425 35.7084 80.6732C35.1945 81.8293 34.5053 83.0356 34.1107 84.2884C34.0553 84.4594 34.7487 84.4586 34.6791 84.7083C34.3555 85.8701 33.9066 87.117 33.2426 88.1507C33.0782 88.4015 32.7002 88.0859 32.5512 88.1029C31.65 88.2088 32.6102 89.1132 32.6058 89.2064C32.4847 91.4437 30.9577 92.7063 30.8109 94.9867C30.8053 95.1179 31.7707 96.3563 30.598 96.4525C30.5194 96.4603 29.3258 96.5331 29.9623 97.097C30.0022 97.1323 30.6306 97.0446 30.4467 97.4652C30.2635 97.8835 30.4371 98.6764 29.6556 99.096C29.4112 99.2179 28.2018 99.3756 28.9056 100.172C28.9642 100.216 30.6499 101.658 29.2279 101.572C28.9934 101.557 27.5824 101.12 28.1224 101.998C28.2285 102.164 28.609 102.025 28.7142 102.411C28.8665 103.042 28.2953 103.618 28.7348 104.472C28.8136 104.622 29.6284 105.411 28.7709 105.62C28.6357 105.654 28.2075 105.373 28.0814 105.597C27.8802 105.957 27.7695 106.26 27.5326 106.882C27.4566 107.07 27.4364 107.145 27.2357 107.573C27.1357 107.774 27.046 107.968 26.7924 108.359C26.5321 108.716 26.2567 109.229 25.1762 110.013C24.6158 110.389 23.8282 110.848 22.5306 111.023C20.8377 111.302 18.7545 110.467 17.8353 109.551C16.851 108.641 16.5371 107.908 16.3129 107.41C16.2634 107.294 16.2023 107.129 16.1898 107.093C16.174 107.049 16.1596 107.006 16.1459 106.964C16.1184 106.881 16.0946 106.804 16.0736 106.732C15.9905 106.442 15.9467 106.224 15.9144 106.039C15.8529 105.682 15.835 105.398 15.8285 105.311C15.8112 105.053 15.8083 104.852 15.8099 104.659C15.8183 104.291 15.8541 103.923 15.976 103.561C16.096 103.202 16.8932 103.385 17.1068 103.011C17.3204 102.636 17.5258 101.881 17.1615 101.49C16.7968 101.099 15.5272 101.527 15.4252 100.94C14.9831 98.3909 15.7248 95.8744 15.8129 93.349C15.8257 92.976 15.3744 93.2882 15.3607 92.7396C15.3112 90.7043 14.8219 87.2362 15.7279 85.472C16.4558 84.0582 17.1021 85.7887 17.3812 84.7122C17.5134 84.1839 16.017 83.6866 15.9642 83.5667C15.4432 82.3773 16.0559 81.509 15.7933 80.4496C15.7381 80.2284 15.1541 80.4829 15.1137 80.2953C14.9713 79.6554 15.1929 78.9723 15.098 78.3646C15.0541 78.0949 14.6019 78.1801 14.6176 77.931C14.6481 77.3205 14.7949 76.796 15.1644 76.1693C15.1981 76.1121 15.7997 76.4157 15.7777 75.971C15.7406 75.261 16.0616 74.329 15.5219 73.5785C15.3593 73.3568 14.326 73.4925 14.9691 72.8939C15.105 72.7687 16.3626 72.7118 15.2025 72.2904C15.0094 72.2134 13.413 71.5078 14.2523 70.8988C14.4735 70.7325 15.4187 70.2178 15.2045 69.9867C15.1719 69.9573 14.652 70.2126 14.5531 70.0121C14.2086 69.2827 14.0776 68.5298 13.6957 67.9105C13.5952 67.7553 13.1237 68.18 12.9935 67.9544C12.6337 67.3176 12.4681 66.6043 12.4603 66.264C12.4606 66.1369 12.9019 65.9351 12.9428 65.9017C13.2867 65.5776 13.1374 65.5965 12.9389 65.7093C12.7435 65.7613 12.5097 65.8716 12.4594 65.8587C11.801 65.6693 11.8922 64.9654 11.349 64.6165C11.2008 64.5213 10.899 64.9944 10.8402 65.0052C10.2577 65.0998 11.1352 64.583 11.0473 64.3451C10.7959 63.6714 10.1726 63.1756 9.55018 62.7406C9.32038 62.5813 9.14941 63.2673 8.94862 63.1195C7.75308 62.251 6.41872 61.1461 5.20741 59.597C4.97876 59.3007 5.47874 59.0933 5.49745 58.9593C5.64867 58.0458 4.33392 58.2512 4.11463 58.1693C3.1417 57.8302 3.19148 57.2437 2.54725 56.5511C1.76532 55.6872 0.892571 54.4736 0.319711 52.7425C0.0995858 52.0184 -0.159212 50.9103 0.125375 49.39C0.388219 47.8633 1.4046 46.3856 2.21131 45.6956C3.86513 44.311 4.62165 44.285 5.17811 44.0716C6.23721 43.7837 6.63613 43.7686 7.03358 43.7083C7.76383 43.6203 8.11483 43.5824 8.266 43.5755C9.56022 43.2625 10.7145 43.1167 11.7211 43.0169C15.87 42.657 18.5697 43.1318 21.6674 42.6966C21.8602 42.6696 21.6018 42.0419 21.766 42.0111C23.8714 41.6444 25.823 41.574 27.3451 40.8695C27.4671 40.8135 27.0928 40.2887 27.2738 40.181C27.6417 39.9563 28.1013 39.8048 28.5248 39.8177C28.7335 39.8216 28.738 40.409 28.9506 40.3988C29.4501 40.3724 29.8962 40.1593 30.1937 39.8255C30.3154 39.6843 29.7314 39.3273 29.9066 39.1908C30.4706 38.7346 30.9109 38.2327 31.3959 37.6703C31.7644 37.2845 32.5572 36.1911 33.4545 35.2259C33.5744 35.0981 34.816 35.4686 34.7416 35.0257C34.4269 34.857 34.0424 34.6911 33.6986 34.5277C34.9859 31.0409 36.6444 27.4063 37.7914 23.5824C37.8385 23.4215 37.1067 23.5175 37.1957 23.2054C37.7096 21.3928 37.9763 19.5806 39.0697 17.847C39.1776 17.6742 40.3212 18.0369 40.2709 17.4417C40.2611 17.338 40.2919 16.458 40.0834 16.1898C40.0496 16.1527 39.4741 16.1859 39.515 15.9154C39.7678 14.3346 40.2123 12.7207 40.8226 11.2074C40.9222 10.9626 41.4602 11.3354 41.5365 11.1615C42.072 9.92343 41.846 8.44676 42.5521 7.28647C43.0266 6.50536 44.0018 6.9516 45.0639 6.6351C45.214 6.59001 45.304 6.06719 45.891 6.11264C47.368 6.22489 48.9428 6.68884 50.5209 6.77866C50.8607 6.79776 50.5894 6.01384 51.35 6.55209C51.3699 6.56697 51.4132 6.66191 51.473 6.78256C51.6665 6.30377 51.8921 5.87913 51.1293 5.37045C54.226 5.68284 50.9571 4.8733 51.809 4.0394ZM23.2045 103.367C23.038 103.37 22.6836 103.33 22.6615 103.416C22.4781 104.171 22.679 104.427 23.0853 104.659C23.2469 104.743 23.4459 104.81 23.6605 104.782C23.7131 104.769 23.767 104.738 23.808 104.653C23.828 104.609 23.8452 104.551 23.849 104.464C23.8435 104.404 23.8738 104.427 23.808 104.23C23.7489 104.068 23.6582 103.828 23.3598 103.512C23.3165 103.464 23.2637 103.416 23.2045 103.367ZM21.0599 102.937C20.8763 102.991 20.7231 103.059 20.5971 103.126C20.1019 103.406 19.959 103.606 19.8363 103.716C19.7296 103.804 19.667 103.832 19.6146 103.845C19.929 103.787 20.7736 103.633 20.8461 103.632C21.2559 103.539 22.0221 104.008 22.1117 103.961C22.5293 103.706 21.7403 103.343 21.0609 102.936L21.0599 102.937ZM24.057 96.5091C24.0561 96.7254 24.0542 96.9415 24.0512 97.1576C24.2096 97.1543 24.3912 97.1442 24.6078 97.1068C25.2876 96.9854 24.6871 96.7424 24.057 96.5091ZM24.0531 94.3939C24.0544 94.6463 24.0536 94.8986 24.0551 95.1507C24.2546 95.1604 24.4521 95.343 24.5765 95.2474C25.2059 94.7529 24.6338 94.5705 24.0531 94.3939ZM25.9056 92.5013C25.8734 92.5004 25.7676 92.7537 25.9379 92.7992C26.4868 92.9462 26.4438 92.535 25.9056 92.5013ZM49.1088 22.0208C47.5325 26.6645 45.9802 31.2281 43.9691 35.8558C43.1741 37.6671 41.7751 39.6252 40.9281 41.6517C40.8313 41.8841 41.3521 42.004 41.3676 42.0667C41.5265 43.1048 40.772 42.326 40.3715 42.7201C40.0913 42.9868 39.7938 43.2903 39.4965 43.5833C38.1832 44.8716 36.8304 46.1822 35.5482 47.2904C34.8806 47.8576 36.1848 48.213 35.1127 48.2318C35.0404 48.2314 34.93 47.6513 34.6986 47.7298C34.1808 47.9116 33.3505 48.4798 32.9633 48.6156C32.2219 48.8774 32.1085 48.9311 31.433 49.1986C30.5034 49.5549 29.3288 49.6386 28.3793 50.0023C28.1747 50.082 28.5912 50.5573 28.2728 50.7337C27.9517 50.9131 27.0325 51.0594 26.7074 50.9828C26.3807 50.9091 26.4301 50.4503 26.3588 50.3607C25.7841 49.6016 24.9745 50.9211 24.8402 50.9671C22.5185 51.7919 20.4691 51.2415 18.3861 51.39C16.7993 51.5021 15.1725 51.8435 13.7933 51.9945C12.8138 52.0999 11.9418 52.1356 11.1224 52.264C11.1721 52.3326 11.2216 52.4027 11.2728 52.472C11.4001 52.6496 10.8048 52.8908 10.9135 53.097C11.5883 54.3548 12.7009 56.696 14.9974 55.3343C15.7267 56.0671 16.648 57.0059 16.9926 58.0492C17.2104 58.7196 16.338 58.7444 17.0619 59.0882C17.2248 59.1682 17.4626 58.6203 17.6801 58.7747C18.3854 59.2792 18.9534 60.0295 19.5765 60.7113C19.788 60.9476 19.9983 61.1835 20.2191 61.4115C20.4042 61.5976 20.7915 61.2845 20.9076 61.3031C21.8919 61.5265 21.265 63.0006 21.2533 63.2044C21.2761 64.8973 21.8003 65.8054 22.1234 67.1175C22.1947 67.4179 22.7522 66.9039 22.8431 67.1878C23.3083 68.694 23.5273 70.2737 23.4437 71.7728C23.4223 72.1002 22.8192 71.8877 22.7797 72.0472C22.6108 72.744 23.6945 72.7779 23.5424 73.4447C23.5115 73.5861 23.0223 73.5671 22.9711 73.598C22.1857 74.0791 23.3995 74.2852 23.4379 74.3861C23.9279 75.6082 22.7663 76.5363 23.0336 77.722C23.0668 77.8647 23.655 77.4917 23.7103 77.8978C24.0818 80.6183 24.032 83.4815 23.6146 86.1683C23.5503 86.5818 23.0809 86.301 23.0248 86.3285C22.149 86.7724 23.3426 87.0161 23.393 87.1507C23.7415 88.2124 22.7613 89.2243 24.1908 89.9203C24.1008 90.8832 24.0664 91.8441 24.0551 92.8031C24.4161 92.635 24.7781 92.4689 24.9223 92.224C25.0265 92.0462 24.5825 92.0822 24.5971 91.8997C24.6649 91.1689 25.3312 90.9333 25.0765 90.0013C25.036 89.8458 24.1874 88.8936 25.0814 88.7308C25.21 88.7083 25.5907 89.008 25.7797 88.7484C26.0648 88.3533 26.4049 87.6188 26.4135 87.1039C26.4193 86.7239 25.5795 86.8885 25.9428 86.5238C26.1047 86.3633 26.4035 86.8545 26.6713 86.5453C26.9359 86.2442 27.2225 85.3196 27.3256 84.9671C27.4262 84.6196 26.8268 84.626 26.7992 84.5863C26.6484 84.3499 26.616 83.598 26.6371 83.5345C27.5927 80.5253 29.4745 78.1496 30.2875 75.1917C30.3514 74.9604 29.7417 74.8916 29.7416 74.8539C29.8098 73.9937 31.0528 75.1766 31.7562 74.8421C30.5985 74.4728 30.9239 74.2418 31.015 73.6566C31.0581 73.3747 30.5692 73.3395 30.5316 73.2982C30.0244 72.6469 30.9884 72.7215 31.1908 72.724C31.9347 72.7328 31.2891 72.1499 31.7885 72.1537C32.2841 72.1577 32.753 72.8097 32.9545 72.2982C32.6125 71.989 31.4066 71.9359 31.3978 71.4759C31.3931 71.2246 31.4302 70.9585 31.5004 70.6839C31.9391 68.9122 33.8543 67.0741 34.64 66.2494C35.5521 65.2481 35.8119 64.8892 36.473 64.4456C37.6877 63.6861 36.7448 63.4215 37.1918 62.5355C37.6732 61.6559 38.5955 63.5736 38.9681 63.8451C39.3309 64.1268 39.1529 63.6873 39.4144 63.7972C39.6729 63.9104 39.6107 64.3326 39.9281 64.2132C40.2345 64.0954 40.5408 62.941 40.4076 62.4798C40.1076 61.5067 39.175 60.856 40.2055 60.6624C40.264 60.6532 40.3861 61.2131 40.5951 61.1546C42.2355 60.6831 43.7849 60.0175 45.4125 59.8001C45.6367 59.7712 45.6661 60.4065 45.7972 60.3978C47.1541 60.3157 46.3706 59.5162 46.7045 58.2025C47.0304 59.6874 47.6995 60.43 48.639 60.1449C49.2021 59.976 48.9184 59.3748 49.1537 58.8177C49.2234 58.6502 49.7617 58.9612 49.7474 58.6429C49.7039 57.5985 48.9946 56.6232 50.1176 56.764C50.1666 56.7736 50.1857 57.3448 50.3441 57.3333C51.3724 57.259 51.1927 56.2115 52.1537 55.7767C52.4632 55.6356 52.9057 55.5807 53.3724 55.5423C53.3805 55.5356 53.3885 55.5286 53.3969 55.5218C53.398 55.528 53.3996 55.5342 53.4008 55.5404C53.4507 55.5363 53.5009 55.5324 53.5512 55.5287C53.5009 55.5249 53.4493 55.521 53.3969 55.5199C53.2579 54.8944 53.0002 54.2521 52.9857 53.6136C52.9805 53.3947 53.4918 53.3932 53.5355 53.3529C54.2252 52.7346 53.0554 52.7787 52.975 52.6566C52.1572 51.3347 52.6859 49.9395 51.5297 48.7621C51.4869 48.7209 50.3224 48.9162 51.0697 48.3421C51.1249 48.3069 51.752 48.6355 51.6371 47.9759C51.5218 47.3145 51.859 45.9498 51.1332 45.1556C50.9575 44.9656 49.9037 44.5971 50.5463 43.9984C50.6339 43.9187 50.9786 43.9172 51.1459 43.7943C51.6785 43.4 50.4793 43.4803 51.4096 42.9583C52.3399 42.4361 52.9585 41.638 52.1107 40.8509C52.0857 40.8259 51.1161 40.7727 51.0814 40.4818C51.0262 40.0144 51.1137 39.332 51.0326 38.8509C50.9934 38.6208 50.4376 38.8578 50.4203 38.8197C49.8555 37.3105 50.2196 36.1188 50.2494 34.4242C50.2558 34.1163 49.3621 33.3141 49.933 32.6556C50.5594 31.936 53.4854 32.3222 52.6713 30.9232C52.348 30.3667 48.6408 29.871 50.4584 28.6517C49.8552 26.5706 50.7505 24.5915 50.0541 22.4955C50.0292 22.4198 49.3617 22.2155 49.1088 22.0208ZM36.4672 70.2865C35.7583 70.3728 37.563 71.4345 37.3353 70.8236C37.3159 70.7893 36.502 70.2822 36.4672 70.2865ZM34.1576 69.2572C34.1252 69.2569 33.9204 69.5744 33.9408 69.596C34.4298 70.0862 34.8341 69.461 34.1576 69.2572ZM54.1088 56.6126C54.676 56.3442 54.7235 56.041 54.4613 55.8206L54.1088 56.6126ZM7.89295 53.5423C7.89224 53.5368 7.89526 53.5387 7.91639 53.5365C7.90628 53.5391 7.89793 53.5405 7.89295 53.5423ZM8.82459 52.6888C8.72839 52.7057 8.75736 52.8641 8.78456 53.0257C8.90065 52.9224 9.03133 52.7906 9.15858 52.6302C9.0452 52.6495 8.93387 52.6692 8.82459 52.6888ZM9.70643 49.8285C9.71213 49.8746 9.72718 49.9305 9.7494 49.9955C9.73361 49.9322 9.72092 49.8758 9.70643 49.8285ZM53.0678 25.0472C53.7652 24.5973 52.1763 24.2917 51.9017 24.4857C50.9977 25.1308 52.3705 25.5025 53.0678 25.0472ZM49.308 21.432C49.4203 21.3277 49.5264 21.2325 49.5404 21.1253C49.5626 20.9699 49.5699 20.8164 49.5697 20.6644C49.4825 20.9206 49.3948 21.1763 49.308 21.432ZM51.2103 18.0941C50.4673 18.8048 53.4323 18.9667 52.849 18.1927C52.8161 18.1478 51.2561 18.0531 51.2103 18.0941ZM54.1508 14.8304C54.1482 14.8288 54.1456 14.8272 54.143 14.8255C54.146 14.8223 54.1498 14.8199 54.1527 14.8167L54.1508 14.8304ZM45.142 8.37534C44.5134 8.0795 44.3498 8.82204 45.057 8.76401C45.0858 8.75822 45.1667 8.392 45.142 8.37534ZM52.2553 0.00619631C52.4323 -0.096068 53.665 1.09994 53.6361 1.20053C53.6353 1.19944 53.634 1.19869 53.6332 1.1976C53.1682 2.7794 50.553 3.12631 51.2201 1.50815C51.3399 1.21436 51.8283 2.34652 52.1342 2.00717C52.6942 1.37402 51.2953 0.567726 52.2553 0.00619631Z" fill="#F6C445"/>
</svg>
