<svg width="54" height="110" viewBox="0 0 54 110" fill="none" xmlns="http://www.w3.org/2000/svg">
<path d="M23.4241 2.26905C25.3957 -0.869703 29.2327 -0.777665 30.5023 2.7046C30.7739 2.6491 31.1142 2.44518 31.2562 2.52491C32.3837 3.19563 29.8896 4.21552 30.2952 5.22217C30.3146 5.2675 31.897 5.51865 32.012 5.59717C32.7526 6.04606 31.5648 5.84269 31.5706 6.24366C31.5773 6.97486 31.3682 7.52146 31.97 8.20557C32.1483 8.4076 33.1493 8.74592 32.5755 9.34913C32.5003 9.42772 32.0305 9.50025 32.014 9.55323C31.7477 10.4861 33.2067 10.1924 33.804 10.5767C34.3987 10.9539 33.539 11.9077 33.2757 12.1079C32.5988 12.6434 32.8958 11.8765 32.8167 11.8667C31.8886 11.7937 32.147 12.2971 32.1507 12.7144C30.727 13.0516 30.9211 13.5967 32.1605 13.148C32.2948 13.0972 32.101 12.8081 32.1507 12.7144C33.628 12.7968 33.9288 13.3949 32.7376 14.3237C32.1791 14.7588 31.4037 14.5911 31.8441 15.5073C32.0431 15.9235 33.0027 15.5754 33.3431 15.9116C34.1195 16.6812 33.4019 17.9886 33.7142 18.8569C33.8276 19.1714 34.3102 18.7548 34.4066 18.9653C34.6632 19.5241 34.3551 20.1179 34.6771 20.6597C34.707 20.7086 35.2486 20.4688 35.2913 20.648C35.6267 21.9976 35.5113 23.2472 35.8323 24.6226C35.9858 25.2872 36.5991 26.3665 36.7318 27.0317C36.9536 28.1843 36.6365 29.8152 37.2054 30.6265C37.5722 31.1507 38.0461 30.7849 38.5062 30.8482C39.3887 30.9552 38.5484 32.2725 38.4339 32.4907C38.4188 32.4892 38.0668 32.1332 37.9388 32.5054C37.4813 32.9416 38.4126 32.4973 38.4339 32.4907C38.3444 32.6257 38.7472 33.5218 38.9486 33.5981C39.0557 33.6452 39.469 33.283 39.515 33.311C40.2816 33.7805 40.8694 34.1409 41.3284 34.5171C41.587 34.7242 41.8703 34.9708 42.1693 35.2534C42.1801 35.2809 41.819 35.7672 41.8587 35.8149C42.4273 36.5056 43.3325 36.1702 44.2366 36.1909C45.1467 36.2136 45.6699 36.6988 45.5628 37.8657C46.1945 38.0958 46.7876 39.0328 47.1077 39.6089C47.4243 40.1803 48.2071 39.2876 48.2689 39.3032C50.1395 39.8302 50.6939 41.1178 51.9183 43.2593C52.5511 44.2487 53.5282 46.788 53.5833 48.2153C53.5948 48.3218 53.6017 48.4252 53.6038 48.5249C53.5873 50.0643 53.0344 50.8915 52.7503 51.8745C52.7055 52.0207 53.2457 52.1185 53.2454 52.1694C53.2127 53.5815 52.37 52.3894 52.0589 52.4761C50.9559 52.6661 50.3919 52.6726 50.2054 53.5757C50.1616 53.7831 51.334 55.3169 51.2835 55.5718C51.2114 55.9048 50.733 55.4252 50.6986 55.7583C50.6975 55.7849 51.0349 56.0178 50.9378 56.1323C50.6888 56.4323 50.5011 56.6055 50.3802 56.7476C50.214 57.0653 50.0294 57.5616 49.9359 57.9849C49.904 58.1252 50.5817 58.1143 50.5452 58.3189C50.3617 59.3289 50.1017 60.4605 49.6029 61.4712C49.4772 61.725 49.057 61.4745 48.9124 61.5083C48.0339 61.7361 49.1258 62.4366 49.1341 62.5239C49.3589 64.6354 48.0698 66.0314 48.3021 68.2398C48.3177 68.3589 49.4758 69.4055 48.3363 69.6763C48.26 69.6966 47.095 69.9541 47.8167 70.3941C47.8619 70.4214 48.4664 70.2454 48.3568 70.6665C48.2473 71.0865 48.5491 71.8354 47.8499 72.354C47.6295 72.5179 46.4642 72.8372 47.2904 73.5015C47.3481 73.5454 49.2628 74.6401 47.8431 74.7974C47.6094 74.8231 46.1465 74.6111 46.8265 75.3667C46.9587 75.5113 47.3114 75.3126 47.4798 75.6743C47.7394 76.2288 47.2738 76.8795 47.8616 77.5884C47.9659 77.7124 48.9135 78.2914 48.1175 78.5962C47.9923 78.6435 47.5143 78.4799 47.4388 78.6763C47.0769 79.6132 47.3029 80.6525 46.8646 81.6011C46.7102 81.9378 45.9359 81.6803 45.6868 82.022C45.4378 82.3643 45.16 83.0697 45.4837 83.4858C45.8075 83.9055 47.1129 83.6156 47.1566 84.1987C47.3452 86.7169 46.3513 89.1171 45.9544 91.6226C45.896 91.9889 46.3816 91.7372 46.3275 92.2778C46.129 94.3171 46.0798 97.9514 44.7532 99.7251C43.6912 101.142 43.4936 99.0859 42.9554 100.186C42.7094 100.654 43.9811 101.695 43.9896 101.848C44.0023 102.042 43.9987 102.225 43.9808 102.397C43.9554 102.597 43.9125 102.797 43.8607 102.983C43.7472 103.38 43.6385 103.622 43.4066 104.114C43.2996 104.332 43.1831 104.552 43.053 104.78C42.9879 104.894 42.9191 105.01 42.846 105.13C42.7581 105.279 42.6454 105.464 42.5257 105.644C42.2805 106.01 41.9919 106.413 41.5296 106.886C40.8875 107.531 39.7951 108.413 38.0491 108.695C36.5491 108.857 36.5061 108.858 36.5325 109.053C36.571 109.193 36.6087 109.462 35.305 109.138C34.7675 108.983 34.2907 108.772 33.8831 108.542C33.7847 108.487 33.6709 108.418 33.5999 108.374C33.5357 108.334 33.4731 108.293 33.4124 108.252C33.291 108.171 33.1766 108.088 33.0687 108.005C32.637 107.674 32.3082 107.343 32.0394 107.031C31.4557 106.333 31.3218 106.032 31.1195 105.661C30.9364 105.305 30.7874 104.956 30.6605 104.647C30.5677 104.41 30.4766 104.183 30.3743 103.967C30.1925 103.58 29.7962 103.818 29.6868 103.424C29.6696 103.362 29.6526 103.3 29.637 103.238C29.4286 102.385 29.4358 101.681 29.6527 100.92C29.6746 100.848 30.334 101.135 30.22 100.601C30.0392 99.7462 30.2485 98.6867 29.6488 97.9028C29.4699 97.6747 28.44 97.8557 29.0433 97.1753C29.1706 97.0343 30.4276 96.9356 29.2445 96.5181C29.0462 96.4411 27.4142 95.6888 28.2435 95.023C28.462 94.8457 29.4027 94.3163 29.1868 94.064C29.1535 94.0312 28.6355 94.2947 28.5345 94.0728C28.1883 93.292 28.0655 92.449 27.7025 91.7153C27.6046 91.5214 27.1169 91.9653 26.9896 91.6763C26.6394 90.8827 26.5002 89.889 26.4232 89.1441C26.3961 88.8695 26.9106 88.8769 26.9534 88.8413C27.6387 88.2394 26.4979 88.474 26.3988 88.4136C25.8284 88.023 26.0763 87.4633 25.7952 87.1069C25.7754 87.0796 25.7538 87.053 25.7308 87.0269C25.6069 86.8849 25.1947 87.2689 25.1341 87.2612C24.5354 87.1755 25.5263 86.9273 25.5013 86.6655C25.4301 85.931 24.9835 85.3015 24.5394 84.77C24.376 84.5766 24.0086 85.1659 23.8695 84.9917C23.0346 83.9628 22.2355 82.8378 21.6175 81.5855C21.5016 81.3488 21.9758 81.1493 22.0257 81.0357C22.3701 80.2392 21.2032 80.5328 21.0443 80.5122C20.3182 80.4046 20.482 79.9472 20.0706 79.6323C18.0716 78.1089 15.8721 75.7233 14.0267 73.8189C11.6316 71.3363 9.8523 69.1124 7.32551 66.5132C7.16514 66.3457 6.83738 66.9546 6.69172 66.814C5.51743 65.6513 4.50301 64.3042 3.52277 62.898C2.73142 61.7592 2.13774 60.6736 1.56477 59.4839C1.43994 59.2157 1.03084 59.8504 0.808908 59.4126C0.350696 58.5146 -0.0121951 57.1973 0.000313925 55.9653C0.00912081 55.3705 0.643001 56.0676 0.647775 55.4829C0.685122 54.1321 0.673002 52.486 1.25813 50.5034C1.53809 49.6505 0.435174 50.721 0.895822 49.5747C1.08809 49.1326 1.31965 48.6896 1.59211 48.2593C4.01752 44.5731 6.33259 42.9713 8.42902 41.9048C8.58335 41.8329 9.5927 42.6364 9.66047 42.2163C9.42304 41.95 9.12154 41.6595 8.85578 41.3872C10.565 39.3532 11.3936 38.3259 11.7591 36.3726C11.8584 35.646 11.9478 34.9236 12.0218 34.1987C12.0379 34.031 11.3363 34.2638 11.3655 33.939C11.5324 32.0672 11.4782 30.2406 12.2708 28.3638C12.3492 28.1772 13.536 28.3481 13.389 27.7749C13.3624 27.6687 13.2507 26.8172 13.0032 26.5815C12.9638 26.5506 12.4004 26.6723 12.3988 26.4009C12.3989 24.815 12.5984 23.1644 12.9896 21.5972C13.0543 21.3454 13.639 21.634 13.6898 21.4546C14.0457 20.1694 13.624 18.7634 14.1761 17.5376C14.547 16.718 15.5715 17.0278 16.5853 16.5952C16.7285 16.5258 16.7529 16.0214 17.3411 15.9868C18.8207 15.9173 20.4408 16.1788 22.0179 16.0776C22.0639 16.0727 22.0956 16.0543 22.1204 16.0298C21.1737 15.8457 20.216 15.6443 19.2728 15.4546C19.569 13.9068 20.2297 12.451 20.5345 10.8735C20.5707 10.6785 19.9087 10.7353 19.9329 10.521C20.0427 9.6042 20.6758 8.93676 20.7679 7.95752C20.8376 7.19842 20.4493 6.19107 20.5765 5.33252C22.0149 5.29847 22.021 4.00351 22.5697 3.16358C22.7596 2.87212 23.0715 3.05548 23.2845 2.89795C23.6598 2.61224 23.6015 2.42919 23.4241 2.26905ZM38.6116 101.162C38.6394 101.204 38.6608 101.233 38.6712 101.241C38.6859 101.259 38.69 101.243 38.6116 101.162ZM37.6107 100.657C37.6388 100.746 37.6752 100.829 37.723 100.904C37.7549 100.951 37.8981 100.855 38.0472 100.786C37.9233 100.732 37.7735 100.686 37.6107 100.657ZM37.2454 97.3208C37.1623 97.3358 37.0947 97.3486 37.0784 97.3599C36.719 97.6134 36.8187 97.7536 37.0228 97.8413C37.0735 97.7053 37.1226 97.5695 37.1741 97.436C37.1933 97.3849 37.2176 97.3474 37.2454 97.3208ZM37.3812 93.9771C37.4416 94.5415 37.4682 95.1021 37.4544 95.6499C37.4443 95.9539 36.8375 95.7941 36.804 95.9448C36.6676 96.6172 37.7433 96.5412 37.6361 97.1646C37.628 97.2136 37.5535 97.2485 37.4613 97.2749C37.6051 97.3047 37.7488 97.4088 37.7825 97.4009C38.7259 97.1478 37.5952 96.6677 37.5677 96.5532C37.4072 95.5936 38.4112 94.7929 37.3812 93.9771ZM26.9105 5.22999C26.8439 5.46902 26.7068 5.68053 26.4075 5.77979C25.5293 6.0926 23.1019 4.35618 23.1683 6.12452C23.1958 6.86328 26.4447 8.65897 24.3431 9.13819C24.2379 11.2519 22.8987 12.9269 23.1947 15.0972C23.2077 15.1943 24.163 15.6557 24.1136 15.8667C24.0427 16.1605 23.601 16.2625 23.4896 16.4585C23.7301 16.4981 24.2342 16.3895 24.4544 16.5552C24.6995 16.7448 24.1966 16.9467 24.4837 17.2476C24.774 17.5637 25.4572 17.4254 25.5306 18.0396C25.6963 19.4648 25.4538 21.3203 25.1361 22.7056C25.0372 23.1471 24.6754 22.9079 24.5902 23.2056C24.4236 23.7971 24.5827 24.3515 24.3851 24.9253C24.3336 25.0719 23.9856 24.9504 23.7982 24.9741C23.8339 25.1404 23.7319 25.3067 23.5863 25.4526C23.3924 26.4058 23.4456 27.3352 23.2786 28.3101C22.7599 31.3311 22.3106 34.3176 21.8577 37.312C21.4644 40.4425 20.0441 43.6332 18.097 45.9683C16.6744 47.7406 14.4972 49.0275 13.305 50.4458C13.1667 50.6125 13.6117 50.9035 13.6107 50.9624C13.5888 51.8709 13.0362 50.9631 12.6448 51.1401C11.3236 51.7312 10.2814 52.6696 9.84504 53.5659C9.86935 53.5603 9.89274 53.5621 9.91535 53.5796C9.98414 53.6589 10.9877 53.8575 10.4222 53.7564C10.3801 53.7597 9.84912 53.6297 9.78352 53.6655C9.62844 53.7483 9.73073 54.1569 9.72199 54.3569C9.69527 54.7447 9.71973 54.825 9.82942 55.228C9.97851 55.779 10.045 56.6111 10.5003 57.1353C10.5966 57.2419 10.9864 56.8015 11.1771 56.9312C11.2675 56.9917 11.372 57.1302 11.4554 57.27C11.5909 57.4864 11.7056 57.7212 11.7259 57.8647C11.7648 58.139 11.3502 58.321 11.2952 58.4165C10.8335 59.2271 12.303 59.1805 12.3939 59.2388C14.0348 60.4592 14.745 62.1687 16.1624 63.5464C17.2353 64.5844 18.5811 65.5154 19.6448 66.521C20.9114 67.7216 21.8258 68.9501 23.1341 70.1001C23.2721 70.2224 23.5655 69.5924 23.7357 69.7417C25.538 71.3248 27.2372 73.1166 28.5228 75.272C28.6506 75.4881 28.0059 75.6286 28.1058 75.8657C28.7523 77.3201 29.2064 79.8042 31.7825 79.1099C32.3002 80.0195 32.9022 81.1566 32.9271 82.2114C32.9416 82.8899 32.1079 82.7045 32.6986 83.1997C32.7137 83.2127 32.7324 83.2184 32.7532 83.2183C32.9176 83.2224 33.226 82.874 33.3782 83.062C34.1066 83.9706 34.4123 85.1534 35.0384 86.0581C35.1675 86.2432 35.6159 86.0235 35.721 86.0532C36.5837 86.3247 35.7063 87.5233 35.6693 87.7144C35.4406 89.2325 35.9097 90.1132 36.1644 91.3394C36.222 91.6231 36.8004 91.1471 36.8792 91.4165C37.0657 92.0706 37.2084 92.7372 37.307 93.4019C38.2188 89.335 37.9275 85.0998 39.5677 81.0757C39.5879 81.0224 40.161 81.179 40.1995 81.0728C40.66 79.7882 39.7272 79.9539 38.7064 78.9702C38.4509 78.7226 39.8571 78.1909 39.9613 78.1421C40.3449 77.9643 41.1905 78.2762 41.2679 78.2114C41.8785 77.6734 38.9993 77.4757 39.0804 76.6714C39.0878 76.6468 39.6047 76.8065 39.6644 76.7446C39.851 76.5522 39.6624 76.3222 39.8655 76.1362C40.3353 75.7117 41.7475 75.6892 41.012 74.8872C40.9141 74.7856 39.2742 74.7499 39.428 74.0405C39.4901 73.7603 39.6019 72.4817 39.7474 72.1392C39.8925 71.7965 40.3886 72.0983 40.4144 72.0757C41.215 71.2002 41.4614 71.6004 42.5423 71.2368C43.6193 70.8752 41.1665 70.7256 40.9173 70.4976C40.6694 70.2686 41.3229 69.6366 41.5423 69.4907C41.7614 69.3444 42.0687 69.5965 42.1995 69.4595C43.0565 68.5419 41.045 68.8671 40.6995 68.4839C39.884 67.5674 41.7655 67.2032 42.0394 66.4966C42.1133 66.3061 41.6812 66.4115 41.6663 66.231C41.6143 65.5119 42.23 65.2034 41.8304 64.3325C41.7645 64.1906 40.7785 63.3859 41.6341 63.1021C41.7574 63.0626 42.1803 63.2935 42.3255 63.021C42.5413 62.6227 42.7736 61.818 42.7034 61.3374C42.6521 60.9775 41.8481 61.2399 42.1517 60.8511C42.2876 60.6783 42.6547 61.1106 42.8753 60.7739C43.0971 60.4227 43.2525 59.4979 43.307 59.1606C43.3641 58.8022 42.7706 58.8808 42.7386 58.8452C42.5608 58.6198 42.4424 57.8746 42.4564 57.814C42.6883 56.6512 43.1206 55.4704 43.638 54.4194C44.5626 52.4393 46.1605 51.202 46.9154 49.7485C47.0052 49.5681 46.433 49.3555 46.4388 49.3237C46.532 48.6859 47.6484 49.9367 48.3704 49.7095C47.2461 49.2396 47.5946 49.0758 47.5433 48.7036C47.5092 48.5351 47.0277 48.5515 46.9837 48.5269C46.7665 48.4487 46.7047 48.4339 46.7327 48.4146C46.7949 48.2786 47.2568 48.1602 47.3831 48.1128C48.0618 47.8433 47.2158 47.7135 47.6429 47.4985C48.0563 47.2418 48.8184 47.5018 48.68 46.9653C48.2269 46.9556 47.2145 47.5464 46.9573 47.313C46.4787 46.9129 46.1934 46.2959 45.6927 45.5542C45.2102 44.8243 44.5863 44.0527 44.138 43.6821C43.2308 42.9439 42.8432 42.817 42.3265 42.3159C41.3733 41.4135 41.3453 42.3802 40.4564 42.3003C39.5582 42.2134 40.959 40.639 41.0882 40.1968C41.2193 39.7567 40.8786 40.0853 40.8841 39.8032C40.8909 39.5214 41.3052 39.4189 41.0726 39.1704C40.8423 38.9269 39.671 39.1211 39.3128 39.439C38.5558 40.1182 38.3425 41.2305 37.7611 40.3892C37.7317 40.3393 38.1841 39.9952 38.0491 39.8325C37.9208 39.6809 37.7871 39.5289 37.6566 39.3804C36.6307 38.2373 35.7018 37.0567 35.2025 35.7144C35.1276 35.5068 35.7383 35.3333 35.7034 35.2114C35.3635 33.9371 34.7455 34.8689 33.3821 34.7564C34.7892 34.1769 35.4053 33.4123 35.0189 32.5728C34.7912 32.0655 34.2318 32.4232 33.6536 32.2583C33.4777 32.2053 33.7384 31.6509 33.4241 31.6987C32.3918 31.8412 31.4776 32.6409 31.5218 31.48C31.5289 31.43 32.0961 31.3721 32.0736 31.2144C31.9389 30.1924 30.8956 30.4185 30.4388 29.3843C30.0826 28.5791 30.3052 26.9191 30.1868 25.9644C31.8398 25.581 31.2572 24.8102 30.0355 24.7056C29.9443 24.0831 29.7403 23.4426 29.7777 22.8198C29.7904 22.6069 30.2992 22.6411 30.346 22.605C31.0827 22.0513 29.9141 22.0136 29.8441 21.8901C29.137 20.5515 29.7734 19.2361 28.6976 18.0376C28.6518 17.9966 27.4872 18.1266 28.2659 17.6128C28.3201 17.5789 28.9294 17.9295 28.8548 17.2866C28.7808 16.6459 29.186 15.3367 28.4837 14.5581C28.3148 14.3709 27.273 14.0146 27.9241 13.4458C28.0134 13.3699 28.3562 13.3674 28.5247 13.2495C29.061 12.8673 27.8638 12.9544 28.7933 12.4399C29.723 11.9283 30.331 11.1016 29.4515 10.3618C29.4239 10.3386 28.4566 10.3337 28.4075 10.0542C28.3312 9.60881 28.371 8.93553 28.2464 8.47901C28.1862 8.26275 27.6552 8.54919 27.6351 8.51416C27.0603 7.39736 27.0923 6.41962 26.9105 5.22999ZM39.8861 83.0308C40.9222 83.5888 41.2121 81.86 40.0374 82.1274C39.9766 82.1439 39.8358 82.9912 39.8861 83.0308ZM43.055 66.6118C43.0231 66.6149 42.9595 66.8822 43.1351 66.8999C43.7002 66.9553 43.5912 66.5593 43.055 66.6118ZM47.1126 44.6196C47.7578 44.3398 47.251 43.7081 46.8675 44.314C46.858 44.3412 47.0845 44.6252 47.1126 44.6196ZM49.1849 41.6294C49.1381 41.6286 48.4406 42.2861 48.4407 42.3286C48.4336 43.1325 50.0357 41.7809 49.1849 41.6294ZM30.0345 24.7075C30.0815 25.1193 30.1687 25.5231 30.2269 25.939C29.4789 25.6893 29.2882 25.2141 30.0345 24.7075ZM16.8851 18.27C16.2233 18.0612 16.1582 18.8088 16.8519 18.6597C16.8797 18.6537 16.9121 18.278 16.8851 18.27ZM21.7952 12.77C22.8233 12.3465 21.5888 11.6406 20.7972 11.9302C20.005 12.2331 21.4832 12.9027 21.7952 12.77Z" fill="#F6C445"/>
</svg>
