<svg width="610" height="83" viewBox="0 0 610 83" fill="none" xmlns="http://www.w3.org/2000/svg">
<path d="M54.6725 73.0867C54.5592 73.7288 54.2948 74.182 53.8794 74.4464C53.5017 74.7486 53.1428 75.164 52.8029 75.6928H52.5763C52.1986 75.6928 51.8209 75.7306 51.4432 75.8061C51.1032 75.8817 50.7444 75.9761 50.3667 76.0894C50.1778 76.0139 49.9512 75.9572 49.6868 75.9195C49.4224 75.8817 49.2525 75.7495 49.1769 75.5229C48.8748 75.674 48.4593 75.7495 47.9305 75.7495C47.0618 75.7495 46.2308 75.504 45.4376 75.013C44.6822 74.5219 43.889 74.1442 43.0581 73.8798C42.8314 73.4266 42.5482 73.0111 42.2082 72.6334C41.9061 72.2935 41.585 71.9535 41.2451 71.6136C40.9429 71.2737 40.6407 70.9148 40.3386 70.5371C40.0364 70.1594 39.7909 69.7062 39.6021 69.1774C39.5265 68.9508 39.4321 68.8186 39.3188 68.7808C39.2055 68.743 39.0355 68.743 38.8089 68.7808C38.8466 68.3653 38.79 68.0065 38.6389 67.7043C38.5256 67.4022 38.2423 67.2133 37.7891 67.1378C37.7891 66.6468 37.7135 66.2313 37.5624 65.8914C37.4114 65.5514 37.2225 65.2493 36.9959 64.9849C36.807 64.7582 36.5804 64.5127 36.316 64.2483C36.0894 63.9839 35.9005 63.6629 35.7494 63.2852C35.4095 63.2096 35.0696 63.153 34.7296 63.1152C34.4275 63.1152 34.0875 63.1152 33.7098 63.1152C31.8968 63.1152 30.1405 63.4551 28.4408 64.135C28.252 64.2106 28.0442 64.305 27.8176 64.4183C27.6288 64.5316 27.4399 64.626 27.2511 64.7016C27.1755 64.7016 27.1 64.7016 27.0244 64.7016C26.9867 64.7393 26.93 64.7582 26.8545 64.7582C26.5901 64.7582 26.3446 64.7016 26.1179 64.5883C25.8913 64.5127 25.6458 64.475 25.3814 64.475C25.2681 64.475 25.1359 64.4938 24.9848 64.5316C24.8715 64.6072 24.7582 64.6638 24.6449 64.7016C24.0783 64.8904 23.5495 65.0037 23.0585 65.0415C21.5099 65.3437 19.8669 65.5703 18.1294 65.7214C16.4298 65.8725 14.8623 66.2691 13.427 66.9112C13.1248 67.0622 12.936 67.2889 12.8604 67.591C12.7849 67.931 12.766 68.252 12.8038 68.5542C12.3883 68.8563 12.0673 69.2529 11.8406 69.744C11.6518 70.235 11.4629 70.7449 11.2741 71.2737C11.123 71.8402 10.953 72.3879 10.7642 72.9167C10.5753 73.4455 10.3109 73.8987 9.97098 74.2764C10.0843 74.5031 10.1409 74.7486 10.1409 75.013C10.1409 75.5795 9.9521 76.1461 9.57439 76.7126C9.19668 77.2792 8.9134 77.8269 8.72455 78.3557C8.5357 78.8845 8.38461 79.3944 8.2713 79.8854C8.15799 80.4142 7.98802 80.8863 7.7614 81.3018C7.53477 81.7173 7.23261 82.0572 6.8549 82.3216C6.43942 82.586 5.87286 82.7182 5.15522 82.7182C4.47535 82.7182 3.88991 82.586 3.39889 82.3216C2.90787 82.0572 2.51128 81.7173 2.20911 81.3018C1.90695 80.8863 1.66144 80.3953 1.47258 79.8287C1.28373 79.2622 1.13265 78.6956 1.01934 78.129C1.43481 77.2981 1.83141 76.5804 2.20911 75.9761C2.58682 75.3718 2.8701 74.5975 3.05895 73.6532C3.73882 73.1622 4.24873 72.5579 4.58866 71.8402C4.89083 71.1604 5.0608 70.4049 5.09857 69.574C5.51404 69.3096 5.81621 68.9508 6.00506 68.4975C6.15614 68.0821 6.25057 67.6288 6.28834 67.1378C5.38185 67.0622 4.43758 66.9867 3.45554 66.9112C2.43574 66.8356 1.49147 66.6468 0.622744 66.3446C0.622744 66.2691 0.64163 66.1935 0.6794 66.118C0.6794 66.0424 0.6794 65.9669 0.6794 65.8914C0.6794 65.4003 0.566088 64.9471 0.339464 64.5316C0.11284 64.1539 -0.000471547 63.7384 -0.000471547 63.2852V62.8319C0.301694 62.5298 0.584974 62.2087 0.849368 61.8688C1.07599 61.5666 1.3215 61.2833 1.5859 61.0189C1.85029 60.7545 2.15246 60.5279 2.49239 60.3391C2.83233 60.188 3.26669 60.1124 3.79548 60.1124C4.51312 60.1124 5.21188 60.1502 5.89175 60.2258C6.57162 60.3391 7.27038 60.3957 7.98802 60.3957C8.47904 60.3957 8.98894 60.3391 9.51773 60.2258C10.3487 58.5261 11.0852 56.8075 11.7273 55.0701C12.3694 53.2948 12.8604 51.5007 13.2004 49.6877C13.4648 49.31 13.7103 48.8757 13.9369 48.3847C14.1635 47.8559 14.3335 47.3082 14.4468 46.7416C14.5979 46.1751 14.6923 45.6274 14.7301 45.0986C14.8056 44.532 14.8434 44.0221 14.8434 43.5689C15.2589 43.0779 15.5422 42.4735 15.6932 41.7559C15.8821 41.0383 16.0332 40.3017 16.1465 39.5463C16.2598 38.7531 16.3731 37.9788 16.4864 37.2234C16.6375 36.468 16.9019 35.807 17.2796 35.2405V34.7306C17.3174 34.164 17.2607 33.6541 17.1096 33.2009C17.2985 33.1253 17.4118 32.9553 17.4496 32.691C17.4873 32.4266 17.5629 32.1999 17.6762 32.0111C17.714 30.2736 17.9028 28.5739 18.2428 26.912C18.5827 25.2124 18.866 23.5127 19.0926 21.813V21.643C19.0926 21.4542 19.0171 21.3598 18.866 21.3598C18.7527 21.322 18.696 21.2087 18.696 21.0198C18.696 20.6799 18.7338 20.2266 18.8093 19.6601C18.9226 19.0935 18.9982 18.6214 19.0359 18.2437C19.2626 16.2041 19.3759 14.1833 19.3759 12.1815C19.3759 10.4818 19.3192 8.80101 19.2059 7.1391C19.0926 5.4772 18.9793 3.7964 18.866 2.09672L19.3192 1.41685C19.4703 1.19023 19.6025 0.963603 19.7158 0.736979C20.0935 0.585896 20.3957 0.434814 20.6223 0.283731C20.8867 0.094878 21.2266 0.000451341 21.6421 0.000451341C21.7554 0.000451341 21.8499 0.0193367 21.9254 0.0571073C22.0009 0.0571073 22.0765 0.0571073 22.152 0.0571073C22.3786 0.20819 22.5486 0.415929 22.6619 0.680323C22.813 0.944718 22.9452 1.19023 23.0585 1.41685C23.2096 1.64347 23.3984 1.83233 23.6251 1.98341C23.8517 2.13449 24.1727 2.17226 24.5882 2.09672C24.7771 3.1543 25.3059 3.70198 26.1746 3.73975C26.3634 4.26853 26.5901 4.79732 26.8545 5.32611C27.1566 5.8549 27.5532 6.27038 28.0442 6.57254C28.0065 6.72363 27.9876 6.93137 27.9876 7.19576C27.9876 7.72455 28.1009 8.23445 28.3275 8.72547C28.5919 9.21649 28.913 9.66974 29.2907 10.0852V10.1985C29.2907 10.614 29.1396 10.8973 28.8374 11.0484C29.1774 11.4261 29.4229 11.8793 29.5739 12.4081C29.725 12.9369 29.8572 13.4846 29.9705 14.0511C30.0839 14.5799 30.216 15.0898 30.3671 15.5808C30.556 16.0719 30.8582 16.4496 31.2736 16.714V16.8839C31.2736 17.0728 31.1981 17.1861 31.047 17.2239C30.9337 17.2616 30.877 17.375 30.877 17.5638C31.5569 18.8102 32.029 20.17 32.2934 21.643C32.5578 23.1161 32.8978 24.5325 33.3132 25.8922C33.4643 26.0433 33.6343 26.1377 33.8231 26.1755C34.0498 26.2133 34.2197 26.3077 34.3331 26.4588C34.1064 26.6099 33.9931 26.8743 33.9931 27.252C33.9931 27.6297 33.8987 27.913 33.7098 28.1018C34.012 28.3662 34.1442 28.7628 34.1064 29.2916C34.1064 29.7826 34.2575 30.1414 34.5597 30.3681V30.5947C34.5597 30.7458 34.5219 30.878 34.4464 30.9913C34.3708 31.0668 34.3331 31.1801 34.3331 31.3312V31.5578C34.6352 32.8798 34.8618 34.2018 35.0129 35.5237C35.2018 36.8457 35.3906 38.1677 35.5795 39.4897C35.7683 40.8116 35.9761 42.1336 36.2027 43.4556C36.4293 44.7398 36.7504 46.0051 37.1658 47.2515C37.2036 47.2893 37.2225 47.346 37.2225 47.4215C37.2225 47.6104 37.147 47.7237 36.9959 47.7614C36.8448 47.7614 36.7693 47.8559 36.7693 48.0447C36.7693 48.2336 36.8259 48.4602 36.9392 48.7246C37.0903 48.9512 37.2414 49.1401 37.3925 49.2912C37.3547 49.4422 37.3358 49.6689 37.3358 49.971C37.3358 50.5376 37.4302 51.0853 37.6191 51.614C37.8457 52.1428 38.0723 52.6716 38.299 53.2004C38.5634 53.6914 38.79 54.2202 38.9788 54.7868C39.1677 55.3533 39.2432 55.9577 39.2055 56.5998C39.4321 56.9397 39.7154 57.223 40.0553 57.4496C40.433 57.6762 40.8107 57.884 41.1884 58.0728C41.5661 58.2617 41.9061 58.4883 42.2082 58.7527C42.5482 59.0171 42.7748 59.3759 42.8881 59.8292C42.5859 60.0936 42.3782 60.4146 42.2649 60.7923C42.1516 61.2078 41.9438 61.5666 41.6417 61.8688C41.9061 62.5109 42.2082 63.0963 42.5482 63.6251C42.9259 64.1917 43.3036 64.7393 43.6813 65.2681L44.8711 66.8545C45.2865 67.3833 45.6454 67.9499 45.9475 68.5542C46.363 68.5542 46.6652 68.6675 46.854 68.8941C47.0429 69.1207 47.345 69.2152 47.7605 69.1774C47.9116 69.4796 47.9683 69.8195 47.9305 70.1972C48.6859 69.9328 49.4413 69.8006 50.1967 69.8006C50.6122 69.8006 50.9899 69.8195 51.3298 69.8573C51.7076 69.895 52.0853 69.9139 52.463 69.9139C52.9162 69.9139 53.3128 69.8573 53.6527 69.744C53.8038 69.9706 53.9171 70.2161 53.9927 70.4805C54.0682 70.7827 54.1249 71.0848 54.1626 71.387L54.3326 72.2935C54.4082 72.5956 54.5215 72.86 54.6725 73.0867ZM33.3132 57.393C32.7845 54.7868 32.2368 52.1995 31.6702 49.6311C31.1414 47.0249 30.6693 44.3999 30.2538 41.7559C30.0272 40.3584 29.8572 38.9609 29.7439 37.5634C29.6306 36.1658 29.4795 34.7872 29.2907 33.4275C29.1396 32.03 28.913 30.6513 28.6108 29.2916C28.3464 27.9318 27.9498 26.591 27.421 25.269V25.1557C27.421 25.0424 27.4588 24.948 27.5343 24.8724C27.6099 24.7969 27.6476 24.6647 27.6476 24.4758V24.2492C27.1566 23.9093 26.8167 23.4371 26.6278 22.8328C26.439 22.1907 26.269 21.5297 26.1179 20.8499C26.0046 20.1322 25.8347 19.4523 25.608 18.8102C25.4192 18.1304 25.0792 17.5638 24.5882 17.1106C24.3994 19.3013 24.1916 21.492 23.965 23.6826C23.7762 25.8356 23.644 28.0074 23.5684 30.1981C23.1907 30.4247 22.9452 30.8024 22.8319 31.3312C22.7186 31.86 22.6619 32.3321 22.6619 32.7476C22.6619 33.0498 22.6808 33.3708 22.7186 33.7108C22.7563 34.0129 22.8319 34.334 22.9452 34.6739C22.2653 36.3736 21.7743 38.1299 21.4721 39.9429C21.17 41.7181 20.83 43.4934 20.4523 45.2686C20.4146 45.3819 20.339 45.6463 20.2257 46.0618C20.1502 46.4395 20.0557 46.8361 19.9424 47.2515C19.8291 47.667 19.7347 48.0447 19.6592 48.3847C19.5836 48.6868 19.5458 48.8568 19.5458 48.8946C19.5081 49.159 19.4892 49.4233 19.4892 49.6877C19.527 49.9521 19.5458 50.2165 19.5458 50.4809L18.696 51.3308C18.5449 52.7661 18.2616 54.1636 17.8462 55.5233C17.4685 56.8453 17.0719 58.205 16.6564 59.6025C16.9208 59.6403 17.1663 59.6592 17.3929 59.6592C17.6573 59.697 17.9217 59.7159 18.1861 59.7159C19.3948 59.7159 20.6034 59.6403 21.8121 59.4892C23.0585 59.3004 24.2861 59.1304 25.4947 58.9793C25.9102 58.9038 26.3446 58.8471 26.7978 58.8094C27.2511 58.7338 27.6854 58.696 28.1009 58.696C28.2897 58.6583 28.5164 58.6583 28.7808 58.696C29.0452 58.696 29.2718 58.6772 29.4606 58.6394C29.7628 58.5638 29.9517 58.4505 30.0272 58.2995C30.1405 58.1106 30.3482 57.9973 30.6504 57.9595C30.877 58.0728 31.1414 58.1295 31.4436 58.1295C31.7835 58.1295 32.1046 58.0539 32.4067 57.9029C32.7089 57.7518 33.0111 57.5818 33.3132 57.393ZM118.864 49.7444C118.788 50.311 118.58 50.7453 118.241 51.0475C117.938 51.3497 117.58 51.6329 117.164 51.8973C116.975 51.8596 116.786 51.8407 116.598 51.8407C116.446 51.8029 116.276 51.784 116.088 51.784C114.917 51.7462 113.803 51.8973 112.745 52.2373C111.725 52.5772 110.668 52.8227 109.572 52.9738C109.194 53.0493 108.836 53.0871 108.496 53.0871C108.194 53.0493 107.873 53.0682 107.533 53.1438C106.324 53.3326 105.04 53.4837 103.68 53.597C102.32 53.7103 100.96 53.8614 99.6007 54.0503C98.241 54.2013 96.9001 54.4091 95.5782 54.6735C94.294 54.9001 93.0853 55.24 91.9522 55.6933C91.8389 55.6177 91.7256 55.5422 91.6122 55.4667C91.4989 55.3533 91.3667 55.2967 91.2157 55.2967C90.8379 55.2967 90.4791 55.3533 90.1392 55.4667C89.7993 55.58 89.4593 55.6177 89.1194 55.58C88.7417 55.8066 88.3262 55.9766 87.8729 56.0899C87.4575 56.1654 87.0231 56.241 86.5699 56.3165C86.1544 56.3543 85.7389 56.4298 85.3234 56.5431C84.908 56.6564 84.5114 56.8642 84.1337 57.1663C83.8315 57.0152 83.4538 56.9397 83.0005 56.9397C82.5851 56.9019 82.3018 56.7509 82.1507 56.4865C81.282 56.9019 80.3566 57.1663 79.3746 57.2796C78.4303 57.393 77.4671 57.4307 76.4851 57.393C75.843 57.3552 75.1065 57.2608 74.2755 57.1097C73.4446 56.9586 72.6136 56.7509 71.7827 56.4865C70.9517 56.1843 70.1774 55.8444 69.4598 55.4667C68.7421 55.0512 68.1944 54.5602 67.8167 53.9936C67.5523 53.6159 67.3635 53.2004 67.2502 52.7472C67.1369 52.2939 66.8725 51.954 66.457 51.7274C66.5703 50.8586 66.7025 50.0088 66.8536 49.1778C67.0047 48.3469 67.1557 47.497 67.3068 46.6283C68.0622 45.9862 68.7799 45.3063 69.4598 44.5887C70.1396 43.8711 70.7817 43.1156 71.3861 42.3225C72.1037 41.9825 72.7647 41.5671 73.369 41.076C74.0111 40.585 74.6343 40.094 75.2387 39.603C75.8808 39.0742 76.504 38.5643 77.1083 38.0733C77.7504 37.5822 78.4303 37.1479 79.1479 36.7702C79.2612 36.5058 79.4123 36.298 79.6012 36.147C79.8278 35.9581 80.0544 35.7881 80.281 35.6371C80.5077 35.4482 80.7154 35.2594 80.9043 35.0705C81.0931 34.8439 81.2253 34.5795 81.3009 34.2773C82.6228 33.4841 83.7748 32.4832 84.7569 31.2746C85.7389 30.0659 86.381 28.7061 86.6832 27.1953C86.0411 26.6665 85.3045 26.3266 84.4736 26.1755C83.6804 25.9867 82.8495 25.8545 81.9807 25.7789C81.2253 25.7412 80.4321 25.7412 79.6012 25.7789C78.808 25.8167 77.9959 25.7978 77.165 25.7223C76.334 25.9867 75.4653 26.1566 74.5588 26.2322C73.6901 26.3077 72.8213 26.3833 71.9526 26.4588C71.0839 26.4966 70.2152 26.6099 69.3464 26.7987C68.5155 26.9498 67.7034 27.252 66.9102 27.7052C66.7592 27.7052 66.6081 27.6863 66.457 27.6486C66.3437 27.6108 66.2115 27.5919 66.0604 27.5919C64.8517 27.5541 63.7186 27.7997 62.661 28.3284C61.6035 28.8195 60.5648 29.3105 59.545 29.8015C59.4694 29.9526 59.4316 30.0659 59.4316 30.1414C59.4316 30.3681 59.4694 30.5947 59.545 30.8213C59.6583 31.0102 59.7149 31.2179 59.7149 31.4445C59.6772 31.4823 59.6583 31.5201 59.6583 31.5578C59.6583 31.5956 59.6394 31.6334 59.6016 31.6711C59.5638 31.86 59.5072 32.03 59.4316 32.181C59.3939 32.3321 59.3372 32.5021 59.2617 32.691C58.8462 33.8996 58.6196 35.0894 58.5818 36.2603C58.544 37.2423 58.544 38.2055 58.5818 39.1497C58.6196 40.094 58.6196 41.0571 58.5818 42.0392C58.5063 43.2478 58.3174 44.381 58.0152 45.4385C58.2041 46.345 58.3741 47.3082 58.5252 48.328C58.6762 49.31 58.8651 50.2921 59.0917 51.2741C59.3183 52.2561 59.5827 53.2193 59.8849 54.1636C60.2248 55.0701 60.6592 55.9388 61.188 56.7697C61.1502 56.8453 61.1691 56.9019 61.2446 56.9397C61.3202 56.9775 61.3957 56.9964 61.4713 56.9964H61.9245C62.1134 56.9964 62.1889 57.0719 62.1511 57.223C62.2267 57.3363 62.2833 57.4496 62.3211 57.5629C62.3589 57.6385 62.4344 57.714 62.5477 57.7895C62.6233 57.9029 62.6233 58.0539 62.5477 58.2428C62.51 58.9982 62.3211 59.697 61.9812 60.3391C61.6412 60.9812 61.4335 61.6799 61.358 62.4353C60.9047 62.5486 60.4892 62.6053 60.1115 62.6053C59.4694 62.5675 58.9029 62.3787 58.4118 62.0387C57.9208 61.7366 57.4676 61.3589 57.0521 60.9056C56.6366 60.4524 56.24 59.9991 55.8623 59.5459C55.4846 59.0549 55.0691 58.6394 54.6159 58.2995C54.3515 57.2419 54.0871 56.071 53.8227 54.7868C53.5961 53.5026 53.1995 52.4072 52.6329 51.5007C52.784 51.1608 52.8596 50.7453 52.8596 50.2543C52.8973 49.4989 52.8218 48.7624 52.6329 48.0447C52.4818 47.2893 52.4441 46.5339 52.5196 45.7785C52.5196 45.363 52.5574 44.9475 52.6329 44.532C52.7462 44.1166 52.8218 43.7011 52.8596 43.2856C52.8973 42.6435 52.8218 42.0203 52.6329 41.416C52.4818 40.8116 52.4252 40.1884 52.463 39.5463C52.5007 39.2442 52.5574 38.9609 52.6329 38.6965C52.7462 38.3943 52.8973 38.1299 53.0862 37.9033C52.8973 37.4501 52.8407 37.0157 52.9162 36.6002C52.954 35.9581 53.0295 35.3538 53.1428 34.7872C53.2561 34.2207 53.3317 33.6541 53.3695 33.0875C53.3695 32.7854 53.3506 32.5021 53.3128 32.2377C53.275 31.9355 53.2184 31.6523 53.1428 31.3879L52.6329 31.2179C52.4063 31.2179 52.1797 31.2746 51.9531 31.3879C51.7642 31.5012 51.5942 31.6334 51.4432 31.7845C51.2921 31.9355 51.1599 32.0677 51.0466 32.181C50.9333 32.2566 50.8199 32.2944 50.7066 32.2944C50.6311 32.2944 50.5367 32.2944 50.4233 32.2944C50.3478 32.2566 50.2723 32.2377 50.1967 32.2377C50.1212 32.2377 49.9701 32.3132 49.7435 32.4643C49.5546 32.6154 49.3091 32.7854 49.0069 32.9742C48.7426 33.1253 48.4782 33.2953 48.2138 33.4841C47.9494 33.6352 47.7416 33.7296 47.5905 33.7674C47.1751 33.6919 46.8351 33.5597 46.5707 33.3708C46.3441 33.1442 46.1175 32.9365 45.8909 32.7476C45.702 32.521 45.4943 32.3321 45.2677 32.181C45.041 31.9922 44.7577 31.9167 44.4178 31.9544C44.3045 31.7278 44.2478 31.4823 44.2478 31.2179C44.2101 30.9535 44.2101 30.6891 44.2478 30.4247V29.5182C44.5122 29.0272 44.8711 28.6306 45.3243 28.3284C45.7398 27.9885 46.193 27.7052 46.6841 27.4786L48.1571 26.7987C48.6481 26.5721 49.1014 26.2888 49.5169 25.9489H50.0268C50.7066 25.9867 51.2921 25.8545 51.7831 25.5523C52.3119 25.2501 52.8029 24.9102 53.2561 24.5325C53.7094 24.117 54.1626 23.7015 54.6159 23.2861C55.1069 22.8706 55.6357 22.5495 56.2023 22.3229C56.6177 22.5118 57.0521 22.6817 57.5053 22.8328C57.9586 22.9461 58.4307 23.0217 58.9217 23.0594C59.4128 23.0594 59.9227 22.9839 60.4515 22.8328C60.9802 22.6817 61.3957 22.3984 61.6979 21.983C61.8867 22.0585 62.0378 22.1152 62.1511 22.1529C62.3022 22.1529 62.4722 22.1529 62.661 22.1529C63.2276 22.1907 63.7942 22.1152 64.3607 21.9263C64.9273 21.6997 65.475 21.4353 66.0037 21.1331C66.7592 21.1709 67.4957 21.1331 68.2133 21.0198C68.9687 20.8687 69.7053 20.7177 70.4229 20.5666C71.1783 20.4155 71.9148 20.2833 72.6325 20.17C73.3879 20.0189 74.1433 19.9622 74.8987 20C76.1452 20.0378 77.3727 19.9245 78.5814 19.6601C79.79 19.3957 81.0176 19.3013 82.264 19.3768C83.1327 19.4146 83.9826 19.4901 84.8135 19.6034C85.6823 19.679 86.551 19.6978 87.4197 19.6601C87.9107 19.8867 88.3451 20.0944 88.7228 20.2833C89.1383 20.4344 89.6482 20.4721 90.2525 20.3966C91.4612 21.4164 92.5565 22.6062 93.5385 23.9659V24.9291C93.5008 25.7978 93.3497 26.6476 93.0853 27.4786C92.8209 28.3096 92.4999 29.1405 92.1221 29.9715C91.7822 30.7646 91.4045 31.5578 90.989 32.351C90.5735 33.1064 90.177 33.8618 89.7993 34.6173C87.3442 36.8457 84.8891 39.0553 82.434 41.246C79.9789 43.4367 77.4482 45.5519 74.8421 47.5915C74.7665 47.9692 74.6532 48.3091 74.5021 48.6113C74.3888 48.9134 74.3133 49.2345 74.2755 49.5744C74.2755 49.7633 74.2944 49.9144 74.3322 50.0277C74.5966 50.1032 74.8232 50.2543 75.012 50.4809C75.2387 50.6698 75.3142 50.9342 75.2387 51.2741H75.7486C75.9374 51.2741 76.0318 51.3497 76.0318 51.5007L76.9383 51.5574C78.3736 51.6329 79.8089 51.5952 81.2442 51.4441C82.6795 51.293 84.1148 51.123 85.5501 50.9342C87.0231 50.7453 88.4773 50.5754 89.9126 50.4243C91.3478 50.2354 92.7831 50.1221 94.2184 50.0843C94.5584 49.971 94.9172 49.8766 95.2949 49.8011C95.6726 49.7255 96.0125 49.5744 96.3147 49.3478H96.4847C96.7491 49.3478 96.9379 49.4233 97.0512 49.5744C97.2023 49.7255 97.41 49.8199 97.6744 49.8577C97.8633 49.8577 98.0521 49.8199 98.241 49.7444C98.4676 49.6689 98.6942 49.6122 98.9209 49.5744C99.4497 49.4233 99.9973 49.3289 100.564 49.2912C101.168 49.2534 101.754 49.1967 102.32 49.1212C104.511 48.9323 106.683 48.819 108.836 48.7812C110.989 48.7057 113.142 48.4224 115.294 47.9314C115.483 48.1958 115.748 48.3847 116.088 48.498C116.428 48.5735 116.786 48.6679 117.164 48.7812C117.542 48.8568 117.882 48.9512 118.184 49.0645C118.524 49.1778 118.75 49.4045 118.864 49.7444ZM150.421 23.1727C150.27 23.6638 150.025 24.117 149.685 24.5325L148.721 25.7223C148.419 26.1 148.155 26.5154 147.928 26.9687C147.739 27.3842 147.683 27.8752 147.758 28.4418C147.683 28.4418 147.588 28.4418 147.475 28.4418C147.362 28.404 147.267 28.3851 147.192 28.3851C146.587 28.3851 146.115 28.5362 145.775 28.8383C145.473 29.1027 145.058 29.3294 144.529 29.5182C144.453 29.2916 144.359 29.0839 144.246 28.895C144.132 28.6684 143.962 28.5173 143.736 28.4418C142.829 28.6306 141.923 28.7817 141.016 28.895C140.11 28.9705 139.203 29.0839 138.297 29.2349C137.881 29.3105 137.466 29.4238 137.05 29.5749C136.635 29.6882 136.2 29.8015 135.747 29.9148C135.521 29.9903 135.275 30.0281 135.011 30.0281C134.746 29.9903 134.482 29.9903 134.218 30.0281C133.311 30.0659 132.329 30.1414 131.271 30.2547C130.214 30.3303 129.27 30.6136 128.439 31.1046C128.061 31.029 127.664 30.9724 127.249 30.9346C126.833 30.8968 126.418 30.878 126.002 30.878C125.096 30.878 124.095 30.9724 123 31.1612C121.942 31.3123 120.998 31.6334 120.167 32.1244C119.978 32.0488 119.77 31.9922 119.544 31.9544C119.355 31.9167 119.128 31.8978 118.864 31.8978C118.788 31.8978 118.732 31.9167 118.694 31.9544C118.656 31.9544 118.599 31.9544 118.524 31.9544C118.486 32.2944 118.524 32.6343 118.637 32.9742C118.788 33.2764 119.034 33.5219 119.374 33.7108C119.223 34.1262 119.147 34.5795 119.147 35.0705C119.147 35.7126 119.185 36.3547 119.26 36.9968C119.374 37.6389 119.43 38.281 119.43 38.9231C119.43 39.6407 119.336 40.2073 119.147 40.6228C119.525 41.7559 119.714 42.9646 119.714 44.2488C119.714 44.702 119.676 45.1553 119.6 45.6085C119.563 46.024 119.544 46.4772 119.544 46.9683C119.544 47.3837 119.695 47.7237 119.997 47.9881C120.299 48.2147 120.45 48.5357 120.45 48.9512C120.45 49.1023 120.412 49.2534 120.337 49.4045C120.866 49.2912 121.376 49.1401 121.867 48.9512C122.358 48.7246 122.867 48.6113 123.396 48.6113C123.698 48.6113 123.982 48.6679 124.246 48.7812C124.548 48.8946 124.813 49.0456 125.039 49.2345C125.001 49.4233 124.964 49.6311 124.926 49.8577C124.926 50.0843 124.926 50.311 124.926 50.5376C124.926 50.9531 124.926 51.3497 124.926 51.7274C124.964 52.0673 125.001 52.445 125.039 52.8605C124.737 53.3893 124.378 53.8614 123.963 54.2769C123.585 54.6924 123.321 55.2211 123.17 55.8632C122.603 55.8632 122.093 55.9954 121.64 56.2598C121.224 56.4865 120.828 56.7509 120.45 57.053C120.072 57.3174 119.695 57.5818 119.317 57.8462C118.939 58.0728 118.524 58.1861 118.071 58.1861C117.504 58.1861 117.107 58.1106 116.881 57.9595C116.654 57.7707 116.484 57.5818 116.371 57.393C116.258 57.2041 116.144 57.0341 116.031 56.8831C115.955 56.732 115.767 56.6753 115.464 56.7131C115.389 56.2221 115.238 55.7688 115.011 55.3533C114.785 54.9001 114.539 54.4657 114.275 54.0503C114.048 53.6348 113.803 53.2193 113.538 52.8038C113.311 52.3506 113.142 51.8973 113.028 51.4441C112.802 50.462 112.707 49.4422 112.745 48.3847C112.783 47.3271 112.613 46.3073 112.235 45.3252C112.311 44.7964 112.367 44.2677 112.405 43.7389C112.443 43.1723 112.462 42.6246 112.462 42.0958C112.462 41.0383 112.424 39.9996 112.348 38.9798C112.311 37.9222 112.273 36.8457 112.235 35.7504C111.971 35.4104 111.801 35.0327 111.725 34.6173C111.687 34.164 111.65 33.7296 111.612 33.3142C111.498 33.2009 111.366 33.0875 111.215 32.9742C111.102 32.8609 111.026 32.7098 110.989 32.521C110.686 32.4454 110.46 32.4077 110.309 32.4077C109.78 32.4077 109.327 32.5399 108.949 32.8043C108.609 33.0309 108.288 33.1442 107.986 33.1442C107.684 33.1442 107.4 33.1064 107.136 33.0309C106.872 32.9553 106.607 32.9176 106.343 32.9176C106.116 32.9176 105.984 32.9742 105.946 33.0875C105.946 33.1631 105.871 33.2386 105.72 33.3142C105.606 33.3897 105.342 33.4652 104.926 33.5408C104.511 33.6163 104.039 33.6919 103.51 33.7674C103.019 33.8052 102.528 33.843 102.037 33.8807C101.584 33.9185 101.282 33.9374 101.13 33.9374C100.526 33.9374 100.073 33.8241 99.7707 33.5974C99.4308 33.3331 99.0342 33.0498 98.5809 32.7476C98.6565 32.521 98.6942 32.3699 98.6942 32.2944C98.6942 31.9167 98.5809 31.6145 98.3543 31.3879C98.1277 31.1235 98.0144 30.8968 98.0144 30.708C98.0144 30.2925 98.1843 29.9715 98.5243 29.7448C98.8264 29.5182 98.9964 29.1594 99.0342 28.6684C99.9029 28.2907 100.791 28.0074 101.697 27.8185C102.604 27.6297 103.529 27.4786 104.473 27.3653C105.417 27.252 106.343 27.1198 107.249 26.9687C108.194 26.8176 109.119 26.5721 110.025 26.2322C110.29 26.2699 110.535 26.3077 110.762 26.3455C111.026 26.3455 111.291 26.3455 111.555 26.3455C112.688 26.3455 113.803 26.2322 114.898 26.0055C116.031 25.7412 117.183 25.609 118.354 25.609C118.656 25.609 118.958 25.6278 119.26 25.6656C119.563 25.7034 119.865 25.76 120.167 25.8356C121.678 25.609 123.17 25.3634 124.643 25.099C126.154 24.8347 127.702 24.608 129.288 24.4192C130.044 24.3436 130.78 24.287 131.498 24.2492C132.253 24.1737 133.009 24.0792 133.764 23.9659C134.029 23.9282 134.218 23.8715 134.331 23.796C134.482 23.6826 134.557 23.4749 134.557 23.1727C134.897 23.3238 135.275 23.3994 135.691 23.3994C136.333 23.3994 136.956 23.2861 137.56 23.0594C138.165 22.8328 138.788 22.7195 139.43 22.7195C139.581 22.7195 139.713 22.7384 139.826 22.7762C139.94 22.7762 140.053 22.7762 140.166 22.7762C140.431 22.7762 140.563 22.6628 140.563 22.4362C140.601 22.1718 140.79 22.0019 141.13 21.9263C141.394 21.8508 141.772 21.7941 142.263 21.7563C142.754 21.7186 143.264 21.6808 143.792 21.643C144.359 21.5675 144.869 21.492 145.322 21.4164C145.813 21.3031 146.172 21.152 146.399 20.9632L146.795 20.3399C147.475 20.3777 147.966 20.6799 148.268 21.2464C148.608 21.7752 148.797 22.3607 148.835 23.0028C148.986 23.1539 149.194 23.2294 149.458 23.2294C149.76 23.1916 150.025 23.1727 150.251 23.1727H150.421ZM154.727 51.8407C154.538 52.1428 154.312 52.4261 154.047 52.6905C153.783 52.9171 153.537 53.1626 153.311 53.427C153.046 53.5403 152.744 53.597 152.404 53.597C152.102 53.597 151.8 53.597 151.498 53.597C151.233 53.5592 150.969 53.5592 150.704 53.597C150.478 53.597 150.289 53.6725 150.138 53.8236C149.836 53.7481 149.609 53.6159 149.458 53.427C149.307 53.2004 149.043 53.0682 148.665 53.0304C148.514 52.9927 148.363 52.9927 148.212 53.0304C147.645 52.3883 147.116 51.7085 146.625 50.9908C146.172 50.2732 145.738 49.5933 145.322 48.9512C145.284 47.5537 145.171 46.1373 144.982 44.702C144.944 44.3621 144.888 44.0221 144.812 43.6822C144.737 43.3423 144.68 43.0212 144.642 42.7191C144.642 42.3414 144.661 41.9825 144.699 41.6426C144.774 41.2649 144.831 40.925 144.869 40.6228C145.02 39.5274 145.19 38.451 145.379 37.3934C145.568 36.3358 145.738 35.2594 145.889 34.164C146.04 33.182 146.115 32.1622 146.115 31.1046C146.115 30.0092 145.945 28.9894 145.605 28.0452L145.549 27.7619C145.624 27.4597 145.7 27.2142 145.775 27.0254C145.889 26.7987 145.964 26.5532 146.002 26.2888C146.078 25.8733 145.983 25.5712 145.719 25.3823C145.832 25.0802 146.021 24.8913 146.285 24.8158C146.55 24.7025 146.701 24.4758 146.739 24.1359C146.776 23.9848 146.776 23.8337 146.739 23.6826C147.041 23.5693 147.343 23.4749 147.645 23.3994C147.985 23.2861 148.306 23.2672 148.608 23.3427C149.099 23.4183 149.534 23.5882 149.911 23.8526C150.289 24.0792 150.648 24.3436 150.988 24.6458C151.592 26.4588 151.838 28.3851 151.724 30.4247C151.611 32.4266 151.422 34.4473 151.158 36.4869C150.893 38.5265 150.723 40.5284 150.648 42.4924C150.572 44.4187 150.874 46.2128 151.554 47.8748L151.668 47.9314C151.856 47.9692 152.008 47.9125 152.121 47.7614C152.234 47.5726 152.385 47.497 152.574 47.5348C152.725 47.6104 152.82 47.6481 152.857 47.6481C153.008 48.4035 153.254 49.1212 153.594 49.8011C153.934 50.4809 154.312 51.1608 154.727 51.8407ZM190.08 52.4639C190.08 53.106 189.91 53.6725 189.57 54.1636C189.268 54.6168 189.155 55.1834 189.23 55.8632C188.702 56.1654 188.267 56.562 187.927 57.053C187.587 57.544 187.266 58.0539 186.964 58.5827C184.471 60.2069 181.79 61.51 178.919 62.492C176.086 63.5118 173.159 64.0217 170.137 64.0217C169.949 64.0217 169.779 63.9273 169.628 63.7384C169.476 63.5873 169.325 63.4174 169.174 63.2285C169.023 63.0397 168.853 62.8508 168.664 62.662C168.513 62.5109 168.324 62.4353 168.098 62.4353C167.833 62.4353 167.626 62.492 167.475 62.6053C167.475 62.5298 167.475 62.4542 167.475 62.3787C167.512 62.3409 167.531 62.2843 167.531 62.2087C167.531 61.7555 167.475 61.2833 167.361 60.7923C167.248 60.3391 167.191 59.8858 167.191 59.4326C167.191 58.9038 167.286 58.4694 167.475 58.1295H168.154C168.532 58.1295 168.891 58.1106 169.231 58.0728C169.609 57.9973 170.005 57.9595 170.421 57.9595C170.836 57.9595 171.214 58.0728 171.554 58.2995C173.631 58.2239 175.595 57.8462 177.446 57.1663C179.335 56.4487 181.242 55.7499 183.168 55.0701C183.47 54.6546 183.64 54.2013 183.678 53.7103C183.754 53.1815 183.905 52.6905 184.131 52.2373C183.149 51.4063 182.148 50.7642 181.129 50.311C180.147 49.8199 178.995 49.65 177.673 49.8011C176.879 49.31 176.03 49.0268 175.123 48.9512C174.254 48.8757 173.367 48.7624 172.46 48.6113C172.234 48.5735 171.988 48.5357 171.724 48.498C171.497 48.4224 171.252 48.3847 170.987 48.3847C170.798 48.3847 170.61 48.4413 170.421 48.5546C170.27 48.6302 170.232 48.7624 170.307 48.9512C170.119 48.6491 169.854 48.4791 169.514 48.4413C169.212 48.3658 168.948 48.2147 168.721 47.9881C167.512 47.9125 166.455 47.7048 165.548 47.3648C164.642 46.9871 163.641 46.5717 162.546 46.1184C162.243 46.0051 161.941 45.9296 161.639 45.8918C161.375 45.8163 161.11 45.7029 160.846 45.5519C160.166 45.2119 159.618 44.7587 159.203 44.1921C158.787 43.6256 158.466 43.0023 158.24 42.3225C157.975 41.6048 157.786 40.8683 157.673 40.1129C157.56 39.3575 157.446 38.6587 157.333 38.0166C157.673 37.4123 157.994 36.7891 158.296 36.147C158.561 35.5049 158.787 34.825 158.976 34.1073C159.203 33.994 159.429 33.8996 159.656 33.8241C159.883 33.7485 160.128 33.6541 160.393 33.5408C160.355 33.4652 160.336 33.3708 160.336 33.2575C160.336 33.0687 160.393 32.8798 160.506 32.691C160.657 32.5021 160.695 32.3132 160.619 32.1244C161.45 31.369 162.243 30.5947 162.999 29.8015C163.792 28.9705 164.472 28.064 165.038 27.082C165.605 26.8932 166.058 26.6099 166.398 26.2322C166.738 25.8545 167.078 25.4768 167.418 25.099C167.758 24.6836 168.136 24.3248 168.551 24.0226C168.967 23.6826 169.495 23.4749 170.137 23.3994C170.289 23.135 170.496 22.9272 170.761 22.7762C171.025 22.5873 171.289 22.4173 171.554 22.2663C171.818 22.1152 172.064 21.9452 172.29 21.7563C172.517 21.5675 172.687 21.3031 172.8 20.9632C173.405 20.9632 173.952 20.8499 174.443 20.6232C174.972 20.3966 175.482 20.1511 175.973 19.8867C176.464 19.6223 176.955 19.3768 177.446 19.1502C177.975 18.9235 178.541 18.8102 179.146 18.8102C179.297 18.8102 179.448 18.8291 179.599 18.8669C179.75 18.8669 179.92 18.8858 180.109 18.9235C180.373 19.1879 180.543 19.509 180.619 19.8867C180.732 20.2266 180.808 20.6043 180.845 21.0198C180.883 21.4353 180.902 21.8508 180.902 22.2663C180.94 22.6817 181.015 23.0594 181.129 23.3994C180.789 24.0415 180.411 24.6836 179.996 25.3257C179.618 25.9678 179.108 26.4588 178.466 26.7987H178.353C178.088 26.8365 177.843 26.7798 177.616 26.6288C177.389 26.4777 177.125 26.4021 176.823 26.4021C176.634 26.4021 176.483 26.4588 176.37 26.5721L176.086 26.8554C176.011 26.9309 175.897 27.0065 175.746 27.082C175.633 27.1575 175.463 27.1575 175.236 27.082C174.708 27.2709 174.5 27.5919 174.613 28.0452C173.896 28.1207 173.291 28.3473 172.8 28.725C172.309 29.065 171.856 29.4616 171.441 29.9148C171.025 30.3303 170.61 30.7269 170.194 31.1046C169.779 31.4445 169.288 31.6334 168.721 31.6711C168.079 32.8043 167.286 33.8052 166.341 34.6739C165.435 35.5426 164.68 36.5247 164.075 37.62C164.189 37.9222 164.264 38.2432 164.302 38.5832C164.34 38.9231 164.396 39.2819 164.472 39.6596C164.812 40.1129 165.208 40.5095 165.662 40.8494C166.153 41.1893 166.625 41.5293 167.078 41.8692H167.248C168.003 41.8692 168.702 42.0203 169.344 42.3225C169.986 42.5869 170.666 42.7191 171.384 42.7191C171.762 42.7191 172.083 42.6435 172.347 42.4924C173.329 42.7191 174.292 42.9079 175.236 43.059C176.218 43.2101 177.201 43.3234 178.183 43.3989C178.674 43.4745 179.165 43.5122 179.656 43.5122C180.184 43.5122 180.675 43.5689 181.129 43.6822C181.544 43.7955 181.96 43.9466 182.375 44.1355C182.791 44.2865 183.206 44.4565 183.622 44.6454C184.49 45.0231 185.302 45.4385 186.058 45.8918C186.851 46.345 187.55 46.8927 188.154 47.5348C188.758 48.1391 189.23 48.8568 189.57 49.6877C189.91 50.4809 190.08 51.4063 190.08 52.4639ZM239.314 23.1727C239.163 23.6638 238.918 24.117 238.578 24.5325L237.615 25.7223C237.313 26.1 237.048 26.5154 236.822 26.9687C236.633 27.3842 236.576 27.8752 236.652 28.4418C236.576 28.4418 236.482 28.4418 236.368 28.4418C236.255 28.404 236.161 28.3851 236.085 28.3851C235.481 28.3851 235.009 28.5362 234.669 28.8383C234.366 29.1027 233.951 29.3294 233.422 29.5182C233.347 29.2916 233.252 29.0839 233.139 28.895C233.026 28.6684 232.856 28.5173 232.629 28.4418C231.722 28.6306 230.816 28.7817 229.909 28.895C229.003 28.9705 228.096 29.0839 227.19 29.2349C226.775 29.3105 226.359 29.4238 225.944 29.5749C225.528 29.6882 225.094 29.8015 224.64 29.9148C224.414 29.9903 224.168 30.0281 223.904 30.0281C223.64 29.9903 223.375 29.9903 223.111 30.0281C222.204 30.0659 221.222 30.1414 220.165 30.2547C219.107 30.3303 218.163 30.6136 217.332 31.1046C216.954 31.029 216.558 30.9724 216.142 30.9346C215.727 30.8968 215.311 30.878 214.896 30.878C213.989 30.878 212.988 30.9724 211.893 31.1612C210.835 31.3123 209.891 31.6334 209.06 32.1244C208.871 32.0488 208.663 31.9922 208.437 31.9544C208.248 31.9167 208.021 31.8978 207.757 31.8978C207.681 31.8978 207.625 31.9167 207.587 31.9544C207.549 31.9544 207.493 31.9544 207.417 31.9544C207.379 32.2944 207.417 32.6343 207.53 32.9742C207.681 33.2764 207.927 33.5219 208.267 33.7108C208.116 34.1262 208.04 34.5795 208.04 35.0705C208.04 35.7126 208.078 36.3547 208.154 36.9968C208.267 37.6389 208.324 38.281 208.324 38.9231C208.324 39.6407 208.229 40.2073 208.04 40.6228C208.418 41.7559 208.607 42.9646 208.607 44.2488C208.607 44.702 208.569 45.1553 208.494 45.6085C208.456 46.024 208.437 46.4772 208.437 46.9683C208.437 47.3837 208.588 47.7237 208.89 47.9881C209.192 48.2147 209.343 48.5357 209.343 48.9512C209.343 49.1023 209.306 49.2534 209.23 49.4045C209.759 49.2912 210.269 49.1401 210.76 48.9512C211.251 48.7246 211.761 48.6113 212.289 48.6113C212.592 48.6113 212.875 48.6679 213.139 48.7812C213.441 48.8946 213.706 49.0456 213.933 49.2345C213.895 49.4233 213.857 49.6311 213.819 49.8577C213.819 50.0843 213.819 50.311 213.819 50.5376C213.819 50.9531 213.819 51.3497 213.819 51.7274C213.857 52.0673 213.895 52.445 213.933 52.8605C213.63 53.3893 213.272 53.8614 212.856 54.2769C212.478 54.6924 212.214 55.2211 212.063 55.8632C211.496 55.8632 210.986 55.9954 210.533 56.2598C210.118 56.4865 209.721 56.7509 209.343 57.053C208.966 57.3174 208.588 57.5818 208.21 57.8462C207.833 58.0728 207.417 58.1861 206.964 58.1861C206.397 58.1861 206.001 58.1106 205.774 57.9595C205.547 57.7707 205.377 57.5818 205.264 57.393C205.151 57.2041 205.038 57.0341 204.924 56.8831C204.849 56.732 204.66 56.6753 204.358 56.7131C204.282 56.2221 204.131 55.7688 203.904 55.3533C203.678 54.9001 203.432 54.4657 203.168 54.0503C202.941 53.6348 202.696 53.2193 202.431 52.8038C202.205 52.3506 202.035 51.8973 201.921 51.4441C201.695 50.462 201.6 49.4422 201.638 48.3847C201.676 47.3271 201.506 46.3073 201.128 45.3252C201.204 44.7964 201.26 44.2677 201.298 43.7389C201.336 43.1723 201.355 42.6246 201.355 42.0958C201.355 41.0383 201.317 39.9996 201.242 38.9798C201.204 37.9222 201.166 36.8457 201.128 35.7504C200.864 35.4104 200.694 35.0327 200.618 34.6173C200.581 34.164 200.543 33.7296 200.505 33.3142C200.392 33.2009 200.26 33.0875 200.108 32.9742C199.995 32.8609 199.92 32.7098 199.882 32.521C199.58 32.4454 199.353 32.4077 199.202 32.4077C198.673 32.4077 198.22 32.5399 197.842 32.8043C197.502 33.0309 197.181 33.1442 196.879 33.1442C196.577 33.1442 196.294 33.1064 196.029 33.0309C195.765 32.9553 195.5 32.9176 195.236 32.9176C195.009 32.9176 194.877 32.9742 194.839 33.0875C194.839 33.1631 194.764 33.2386 194.613 33.3142C194.5 33.3897 194.235 33.4652 193.82 33.5408C193.404 33.6163 192.932 33.6919 192.403 33.7674C191.912 33.8052 191.421 33.843 190.93 33.8807C190.477 33.9185 190.175 33.9374 190.024 33.9374C189.419 33.9374 188.966 33.8241 188.664 33.5974C188.324 33.3331 187.927 33.0498 187.474 32.7476C187.55 32.521 187.587 32.3699 187.587 32.2944C187.587 31.9167 187.474 31.6145 187.248 31.3879C187.021 31.1235 186.908 30.8968 186.908 30.708C186.908 30.2925 187.078 29.9715 187.418 29.7448C187.72 29.5182 187.89 29.1594 187.927 28.6684C188.796 28.2907 189.684 28.0074 190.59 27.8185C191.497 27.6297 192.422 27.4786 193.366 27.3653C194.311 27.252 195.236 27.1198 196.143 26.9687C197.087 26.8176 198.012 26.5721 198.919 26.2322C199.183 26.2699 199.429 26.3077 199.655 26.3455C199.92 26.3455 200.184 26.3455 200.448 26.3455C201.582 26.3455 202.696 26.2322 203.791 26.0055C204.924 25.7412 206.076 25.609 207.247 25.609C207.549 25.609 207.851 25.6278 208.154 25.6656C208.456 25.7034 208.758 25.76 209.06 25.8356C210.571 25.609 212.063 25.3634 213.536 25.099C215.047 24.8347 216.595 24.608 218.182 24.4192C218.937 24.3436 219.674 24.287 220.391 24.2492C221.147 24.1737 221.902 24.0792 222.658 23.9659C222.922 23.9282 223.111 23.8715 223.224 23.796C223.375 23.6826 223.451 23.4749 223.451 23.1727C223.791 23.3238 224.168 23.3994 224.584 23.3994C225.226 23.3994 225.849 23.2861 226.453 23.0594C227.058 22.8328 227.681 22.7195 228.323 22.7195C228.474 22.7195 228.606 22.7384 228.72 22.7762C228.833 22.7762 228.946 22.7762 229.06 22.7762C229.324 22.7762 229.456 22.6628 229.456 22.4362C229.494 22.1718 229.683 22.0019 230.023 21.9263C230.287 21.8508 230.665 21.7941 231.156 21.7563C231.647 21.7186 232.157 21.6808 232.686 21.643C233.252 21.5675 233.762 21.492 234.215 21.4164C234.706 21.3031 235.065 21.152 235.292 20.9632L235.688 20.3399C236.368 20.3777 236.859 20.6799 237.161 21.2464C237.501 21.7752 237.69 22.3607 237.728 23.0028C237.879 23.1539 238.087 23.2294 238.351 23.2294C238.653 23.1916 238.918 23.1727 239.144 23.1727H239.314ZM300.956 57.5063C300.956 57.884 300.937 58.1673 300.899 58.3561C300.711 58.4316 300.559 58.545 300.446 58.696C300.333 58.8094 300.144 58.8471 299.88 58.8094C299.804 59.3759 299.615 59.848 299.313 60.2258C299.011 60.6035 298.69 60.9434 298.35 61.2456C298.048 61.5855 297.746 61.9254 297.443 62.2654C297.141 62.6431 296.952 63.1152 296.877 63.6818C296.31 63.9839 295.744 64.3805 295.177 64.8715C294.648 65.4003 294.176 65.7592 293.761 65.948C293.459 66.0991 293.138 66.2124 292.798 66.2879C292.458 66.4013 292.118 66.5335 291.778 66.6845C290.682 67.1756 289.549 67.6855 288.378 68.2142C287.245 68.743 286.056 69.0074 284.809 69.0074H284.413C284.261 69.1585 284.073 69.2529 283.846 69.2907C283.619 69.3663 283.393 69.4229 283.166 69.4607C282.939 69.4984 282.713 69.5551 282.486 69.6306C282.26 69.7062 282.09 69.8195 281.976 69.9706C281.561 69.8195 281.108 69.744 280.617 69.744H280.22C279.578 69.895 278.974 70.0084 278.407 70.0839C277.84 70.1594 277.236 70.1972 276.594 70.1972C275.461 70.1972 274.328 70.1217 273.195 69.9706C272.062 69.8195 270.928 69.6873 269.795 69.574C269.078 69.0074 268.492 68.2898 268.039 67.4211C267.586 66.5901 267.359 65.7025 267.359 64.7582C267.359 64.0406 267.51 63.3607 267.812 62.7186C268.115 62.1143 268.511 61.5666 269.002 61.0756H269.172C269.512 61.0756 269.852 61.0001 270.192 60.849C270.57 60.6979 270.928 60.6223 271.268 60.6223C271.646 60.6223 271.948 60.7734 272.175 61.0756C272.439 61.3778 272.628 61.7366 272.741 62.1521C272.892 62.5675 272.987 62.983 273.025 63.3985C273.062 63.8517 273.081 64.2106 273.081 64.475C273.497 64.6638 273.931 64.7771 274.384 64.8149C274.875 64.8527 275.366 64.8715 275.857 64.8715C276.349 64.8715 276.896 64.8338 277.501 64.7582C278.105 64.7205 278.709 64.626 279.314 64.475C279.956 64.3616 280.56 64.2106 281.126 64.0217C281.731 63.8329 282.241 63.5873 282.656 63.2852C284.734 63.0963 286.565 62.6242 288.152 61.8688C289.738 61.1134 291.419 60.2258 293.194 59.2059C293.27 58.7905 293.421 58.4694 293.647 58.2428C293.912 57.9784 294.044 57.6007 294.044 57.1097C294.044 57.0341 294.025 56.9586 293.987 56.8831C293.987 56.7697 293.987 56.6753 293.987 56.5998C293.232 55.6555 292.439 54.8246 291.608 54.1069C290.815 53.3893 289.776 52.9171 288.492 52.6905C288.341 52.3506 288.095 52.1051 287.755 51.954C287.415 51.7651 287.056 51.5952 286.679 51.4441C286.301 51.293 285.942 51.1419 285.602 50.9908C285.262 50.802 285.017 50.4998 284.866 50.0843C283.846 49.8955 282.788 49.6689 281.693 49.4045C280.635 49.1023 279.729 48.5735 278.974 47.8181C278.369 47.7803 277.784 47.667 277.217 47.4782C276.688 47.2515 276.16 47.0438 275.631 46.8549C275.102 46.6283 274.554 46.4395 273.988 46.2884C273.421 46.0995 272.836 46.0051 272.232 46.0051C272.08 45.7407 271.873 45.533 271.608 45.3819C271.344 45.2308 271.042 45.0986 270.702 44.9853C270.4 44.872 270.097 44.7587 269.795 44.6454C269.531 44.4943 269.323 44.2865 269.172 44.0221C269.021 44.0599 268.908 44.1355 268.832 44.2488C268.757 44.3621 268.624 44.4187 268.436 44.4187H268.209C268.133 44.1921 267.982 44.041 267.756 43.9655C267.529 43.8522 267.397 43.6444 267.359 43.3423C266.679 43.3045 266.056 43.1723 265.489 42.9457C264.961 42.7191 264.451 42.4735 263.96 42.2092C263.506 41.907 263.034 41.6237 262.543 41.3593C262.052 41.0949 261.505 40.8872 260.9 40.7361C260.523 40.4339 260.164 40.1129 259.824 39.7729C259.522 39.3952 259.125 39.2064 258.634 39.2064C258.521 39.2064 258.313 39.2442 258.011 39.3197C257.935 38.6398 257.652 38.1677 257.161 37.9033C256.67 37.6011 256.141 37.3367 255.575 37.1101C255.197 36.1281 254.687 35.2594 254.045 34.5039C253.403 33.7485 252.704 33.0498 251.949 32.4077C252.024 32.181 252.062 32.0111 252.062 31.8978C252.062 31.5201 251.968 31.199 251.779 30.9346C251.59 30.6324 251.382 30.3869 251.155 30.1981C250.627 28.4984 250.362 26.8365 250.362 25.2124C250.362 22.9461 250.872 20.8499 251.892 18.9235C252.874 16.9595 254.442 15.4864 256.594 14.5044C256.632 14.2022 256.727 13.9378 256.878 13.7112C257.067 13.4846 257.18 13.2202 257.218 12.918C257.558 12.918 257.822 12.8425 258.011 12.6914C258.2 12.5403 258.37 12.3892 258.521 12.2381C258.71 12.0493 258.898 11.8793 259.087 11.7282C259.276 11.5772 259.522 11.4827 259.824 11.445C261.259 10.1985 262.789 9.1976 264.413 8.44219C266.037 7.64901 267.699 6.83694 269.399 6.00598C269.739 5.8549 270.022 5.57162 270.249 5.15615H270.588C270.966 5.15615 271.249 5.0806 271.438 4.92952C271.665 4.74067 271.986 4.68401 272.401 4.75955C272.553 4.53293 272.741 4.38185 272.968 4.30631C273.232 4.23076 273.478 4.17411 273.705 4.13634C273.969 4.0608 274.214 3.96637 274.441 3.85306C274.668 3.73975 274.819 3.56978 274.894 3.34315H275.291C275.933 3.34315 276.556 3.24873 277.161 3.05987C277.765 2.83325 278.369 2.58774 278.974 2.32335H279.37C280.126 2.32335 280.824 2.19115 281.466 1.92675C282.146 1.62459 282.864 1.41685 283.619 1.30354C283.922 1.228 284.224 1.20911 284.526 1.24688C284.828 1.28465 285.13 1.30354 285.432 1.30354C285.621 1.30354 285.848 1.28465 286.112 1.24688C286.377 1.20911 286.565 1.0958 286.679 0.906947H286.792C287.019 0.906947 287.151 0.982488 287.189 1.13357C287.226 1.28465 287.34 1.36019 287.529 1.36019C287.793 1.36019 288.057 1.32242 288.322 1.24688C288.586 1.17134 288.851 1.13357 289.115 1.13357C290.248 1.13357 291.362 1.24688 292.458 1.47351C293.591 1.70013 294.705 1.90787 295.8 2.09672C295.876 2.54997 296.065 2.87102 296.367 3.05987C296.707 3.24873 297.066 3.4187 297.443 3.56978V3.7964C297.443 4.09857 297.519 4.34408 297.67 4.53293C297.519 5.06172 297.255 5.45831 296.877 5.72271C296.499 5.9871 296.084 6.21372 295.63 6.40258C295.819 6.55366 295.933 6.7614 295.97 7.02579C296.008 7.29019 296.027 7.5357 296.027 7.76232V8.44219L295.744 8.38554C295.139 8.38554 294.837 8.66882 294.837 9.23538C294.346 8.93321 293.799 8.74436 293.194 8.66882C292.628 8.59327 292.061 8.5555 291.495 8.5555C290.739 8.5555 289.946 8.59327 289.115 8.66882C288.284 8.70659 287.472 8.6877 286.679 8.61216C286.377 8.98987 285.999 9.27315 285.546 9.462C285.092 9.61308 284.639 9.68862 284.186 9.68862C283.695 9.68862 283.223 9.5942 282.77 9.40534C282.316 9.17872 281.995 8.85767 281.806 8.44219C281.618 8.36665 281.448 8.32888 281.296 8.32888H280.787C280.182 8.32888 279.578 8.40442 278.974 8.5555C278.407 8.66882 277.822 8.8199 277.217 9.00875C276.613 9.15983 276.009 9.3298 275.404 9.51866C274.838 9.66974 274.252 9.76416 273.648 9.80194C273.421 10.1041 273.119 10.3118 272.741 10.4252C272.364 10.5385 272.062 10.7462 271.835 11.0484C271.042 11.1994 270.324 11.4638 269.682 11.8416C269.04 12.1815 268.417 12.5592 267.812 12.9747L266.056 14.1644C265.489 14.5422 264.847 14.8632 264.13 15.1276C263.601 15.6942 263.11 16.1474 262.657 16.4873C262.203 16.8273 261.618 17.1294 260.9 17.3938C260.447 17.5449 260.183 17.7715 260.107 18.0737C260.069 18.3759 259.918 18.678 259.654 18.9802C259.427 19.2446 259.144 19.4523 258.804 19.6034C258.502 19.7167 258.237 19.9245 258.011 20.2266C257.822 20.491 257.671 20.8121 257.558 21.1898C257.482 21.5297 257.388 21.8697 257.274 22.2096C257.161 22.5495 257.029 22.8895 256.878 23.2294C256.727 23.5316 256.5 23.796 256.198 24.0226C256.198 24.1737 256.179 24.3248 256.141 24.4758C256.141 24.6269 256.141 24.7591 256.141 24.8724C256.141 25.4012 256.198 25.9489 256.311 26.5154C256.462 27.0442 256.557 27.573 256.594 28.1018C257.35 29.4238 258.237 30.6324 259.257 31.7278C260.277 32.7854 261.372 33.7674 262.543 34.6739C263.714 35.5804 264.923 36.4302 266.169 37.2234C267.454 38.0166 268.719 38.7909 269.965 39.5463C270.419 39.5086 270.834 39.5652 271.212 39.7163C271.589 39.8296 271.986 39.9051 272.401 39.9429C272.855 40.2829 273.384 40.5472 273.988 40.7361L275.801 41.3027C276.405 41.4915 276.991 41.7181 277.557 41.9825C278.124 42.2092 278.596 42.5302 278.974 42.9457C279.162 42.9835 279.332 43.0401 279.483 43.1156C279.635 43.1534 279.805 43.1723 279.993 43.1723C280.22 43.1723 280.352 43.0968 280.39 42.9457C282.09 43.5878 283.752 44.3054 285.376 45.0986C287 45.854 288.718 46.4395 290.531 46.8549C291.249 47.4593 292.042 47.9881 292.911 48.4413C293.78 48.8946 294.648 49.3667 295.517 49.8577C296.386 50.311 297.217 50.8209 298.01 51.3874C298.803 51.9162 299.502 52.5583 300.106 53.3137C300.182 54.0314 300.333 54.7301 300.559 55.41C300.824 56.0521 300.956 56.7509 300.956 57.5063ZM348.264 28.1018C348.264 28.6306 348.245 29.1594 348.207 29.6882C348.169 30.217 348.113 30.7458 348.037 31.2746C347.773 31.6523 347.508 31.9922 347.244 32.2944C347.017 32.5588 346.866 32.8987 346.791 33.3142C346.375 33.6163 345.903 34.0318 345.374 34.5606C344.883 35.0894 344.676 35.6182 344.751 36.147H343.958C343.505 36.8268 342.976 37.4123 342.372 37.9033C341.767 38.3943 341.125 38.8665 340.445 39.3197L338.462 40.6228C337.82 41.0383 337.216 41.5293 336.649 42.0958C336.347 42.1336 336.102 42.1903 335.913 42.2658C335.724 42.3414 335.478 42.3602 335.176 42.3225C334.005 43.0779 332.778 43.7389 331.494 44.3054C330.247 44.872 328.982 45.4385 327.698 46.0051C326.451 46.5339 325.205 47.1005 323.958 47.7048C322.712 48.3091 321.522 49.0079 320.389 49.8011C320.276 49.7633 320.125 49.7444 319.936 49.7444C319.596 49.7444 319.256 49.8011 318.916 49.9144C318.576 49.9899 318.236 50.0277 317.896 50.0277C317.745 50.0277 317.537 50.0088 317.273 49.971C317.046 49.9333 316.876 49.8766 316.763 49.8011C316.574 49.6877 316.404 49.5178 316.253 49.2912C316.102 49.0645 315.989 48.819 315.913 48.5546C315.838 48.2525 315.781 47.9692 315.743 47.7048C315.706 47.4404 315.687 47.2138 315.687 47.0249C315.687 46.7983 315.706 46.5528 315.743 46.2884C315.781 46.024 315.838 45.7785 315.913 45.5519C317.009 45.4763 318.104 45.193 319.199 44.702C320.332 44.211 321.409 43.7389 322.429 43.2856C322.693 43.1723 322.901 43.0401 323.052 42.889C323.241 42.7002 323.43 42.5491 323.618 42.4358C323.807 42.2847 324.015 42.1525 324.242 42.0392C324.468 41.9259 324.752 41.8692 325.092 41.8692H325.261C327.641 40.7739 329.964 39.5841 332.23 38.2999C334.534 37.0157 336.819 35.7126 339.086 34.3906C339.199 34.0507 339.369 33.7108 339.595 33.3708C339.86 33.0309 340.105 32.7098 340.332 32.4077C340.559 32.0677 340.766 31.7278 340.955 31.3879C341.144 31.0479 341.238 30.708 341.238 30.3681C341.238 29.6882 340.917 29.1216 340.275 28.6684H340.049C339.595 28.6684 339.199 28.6117 338.859 28.4984C338.519 28.3473 338.198 28.2151 337.896 28.1018C337.594 27.9507 337.254 27.8374 336.876 27.7619C336.498 27.6486 336.064 27.6108 335.573 27.6486C335.384 27.4975 335.082 27.3653 334.666 27.252C334.251 27.1387 333.911 27.082 333.647 27.082C332.287 27.082 330.946 27.1764 329.624 27.3653C328.302 27.5164 326.98 27.6108 325.658 27.6486C325.318 27.8374 324.997 28.0074 324.695 28.1585C324.393 28.3096 324.034 28.3851 323.618 28.3851C323.43 28.3851 323.26 28.3851 323.109 28.3851C322.957 28.3473 322.788 28.3096 322.599 28.2718C321.881 28.5739 321.069 28.8383 320.162 29.065C319.256 29.2538 318.349 29.4993 317.443 29.8015C316.574 30.0659 315.762 30.4058 315.007 30.8213C314.251 31.2368 313.666 31.8033 313.25 32.521C313.25 32.7098 313.288 32.8798 313.364 33.0309C313.439 33.1442 313.477 33.2953 313.477 33.4841V33.7108C313.25 33.9374 313.099 34.2018 313.024 34.5039C312.948 34.7683 312.892 35.0516 312.854 35.3538C312.816 35.6182 312.759 35.9015 312.684 36.2036C312.646 36.468 312.514 36.7324 312.287 36.9968C312.438 37.5634 312.514 38.1866 312.514 38.8665C312.514 39.6219 312.457 40.3773 312.344 41.1327C312.268 41.8881 312.231 42.6435 312.231 43.3989C312.231 44.1166 312.306 44.7587 312.457 45.3252C312.231 45.5519 312.136 45.8918 312.174 46.345C312.212 46.7983 312.117 47.1382 311.891 47.3648C311.891 47.667 311.966 47.8748 312.117 47.9881C312.306 48.1014 312.419 48.2902 312.457 48.5546C312.306 49.1967 312.231 49.8955 312.231 50.6509C312.231 51.7462 312.344 52.8605 312.571 53.9936C312.835 55.1267 313.137 56.241 313.477 57.3363C314.081 57.1474 314.723 56.9964 315.403 56.8831C316.121 56.732 316.801 56.6564 317.443 56.6564C317.556 56.6564 317.67 56.6753 317.783 56.7131C317.896 56.7131 318.01 56.7131 318.123 56.7131C318.198 57.1286 318.349 57.5063 318.576 57.8462C318.803 58.1861 319.01 58.5638 319.199 58.9793C319.01 59.2437 318.84 59.4515 318.689 59.6025C318.576 59.7914 318.519 60.0369 318.519 60.3391C317.991 60.3768 317.556 60.509 317.216 60.7357C316.876 61.0001 316.499 61.2833 316.083 61.5855H315.857C315.214 61.5855 314.686 61.6988 314.27 61.9254C313.855 62.1898 313.383 62.4731 312.854 62.7753C312.401 62.5864 311.947 62.492 311.494 62.492C311.003 62.492 310.512 62.5864 310.021 62.7753C309.417 62.5109 308.926 62.0954 308.548 61.5288C308.17 61.0001 307.849 60.3957 307.585 59.7159C307.32 59.0737 307.075 58.4128 306.848 57.7329C306.659 57.053 306.433 56.4298 306.168 55.8632V54.9567C306.168 54.088 306.093 53.2571 305.942 52.4639C305.828 51.6329 305.772 50.7831 305.772 49.9144C305.772 49.5744 305.791 49.2156 305.828 48.8379C305.904 48.4602 306.017 48.1014 306.168 47.7614C306.093 47.4215 306.055 47.1005 306.055 46.7983V45.7218C306.055 44.5887 306.093 43.4556 306.168 42.3225C306.282 41.1893 306.338 40.0562 306.338 38.9231C306.338 38.0922 306.282 37.2423 306.168 36.3736C305.98 36.4491 305.81 36.5247 305.659 36.6002C305.507 36.6758 305.337 36.7135 305.149 36.7135C304.96 36.7135 304.771 36.6946 304.582 36.6569C304.431 36.6191 304.28 36.5813 304.129 36.5436C303.751 36.2036 303.487 35.7881 303.336 35.2971C303.185 34.8061 302.977 34.3529 302.712 33.9374C302.712 33.2197 302.826 32.6343 303.052 32.181C303.241 31.69 303.487 31.2557 303.789 30.878C304.091 30.4625 304.393 30.0659 304.695 29.6882C305.035 29.3105 305.319 28.8383 305.545 28.2718H305.772C306.376 28.2718 306.98 28.0829 307.585 27.7052C308.189 27.2897 308.869 27.082 309.624 27.082C309.889 26.7421 310.248 26.4588 310.701 26.2322C311.154 25.9678 311.626 25.76 312.117 25.609C312.646 25.4579 313.156 25.3634 313.647 25.3257C314.176 25.2501 314.667 25.2124 315.12 25.2124C315.271 24.948 315.498 24.778 315.8 24.7025C316.102 24.5891 316.404 24.4947 316.706 24.4192C317.046 24.3059 317.349 24.2114 317.613 24.1359C317.915 24.0226 318.161 23.8337 318.349 23.5693C318.652 23.6449 318.935 23.6826 319.199 23.6826C319.69 23.6826 320.162 23.626 320.616 23.5127C321.069 23.3616 321.522 23.2105 321.975 23.0594C322.429 22.8706 322.882 22.7006 323.335 22.5495C323.826 22.3984 324.336 22.3229 324.865 22.3229C325.054 22.3229 325.243 22.3418 325.431 22.3796C325.62 22.3796 325.809 22.3796 325.998 22.3796C326.3 22.3796 326.47 22.2663 326.508 22.0396C326.583 21.813 326.716 21.643 326.905 21.5297C327.018 21.5675 327.226 21.5864 327.528 21.5864C328.283 21.5864 329.02 21.5297 329.737 21.4164C330.455 21.2653 331.191 21.1898 331.947 21.1898C332.287 21.1898 332.627 21.2087 332.967 21.2464C333.307 21.2842 333.647 21.3786 333.987 21.5297C334.062 21.4164 334.138 21.322 334.213 21.2464C334.289 21.1709 334.345 21.0765 334.383 20.9632C336.234 21.0765 337.971 21.4542 339.595 22.0963C341.257 22.7384 342.976 23.3049 344.751 23.796C344.978 24.1359 345.242 24.4381 345.544 24.7025L346.507 25.4956C346.847 25.76 347.168 26.0244 347.471 26.2888C347.773 26.5532 348.037 26.8743 348.264 27.252V28.1018ZM385.997 26.7987C385.77 27.1387 385.638 27.5164 385.6 27.9318C385.562 28.3473 385.543 28.725 385.543 29.065C385.543 29.5182 385.543 29.9715 385.543 30.4247C385.581 30.8402 385.6 31.2557 385.6 31.6711V32.521C385.525 32.7854 385.411 33.0498 385.26 33.3142C385.109 33.5786 384.996 33.843 384.92 34.1073C384.391 35.5049 384.127 36.9024 384.127 38.2999V38.4132C383.938 38.8665 383.749 39.2819 383.56 39.6596C383.409 40.0373 383.258 40.415 383.107 40.7928C382.956 41.1327 382.843 41.5104 382.767 41.9259C382.692 42.3036 382.673 42.7568 382.711 43.2856C382.182 44.6076 381.483 45.8163 380.614 46.9116C379.746 47.9692 378.896 49.0645 378.065 50.1976C377.272 50.4998 376.535 50.8964 375.855 51.3874C375.213 51.8784 374.59 52.4261 373.986 53.0304C372.815 53.4082 371.663 53.8425 370.53 54.3335C369.397 54.8246 368.377 55.4855 367.47 56.3165C366.753 56.392 366.035 56.5053 365.317 56.6564C364.6 56.8075 363.901 57.0341 363.221 57.3363H362.541C362.201 57.3363 361.956 57.2608 361.805 57.1097C361.314 57.3741 360.804 57.5629 360.275 57.6762C359.746 57.7518 359.217 57.7895 358.689 57.7895C358.009 57.7895 357.329 57.7518 356.649 57.6762C356.007 57.5629 355.346 57.4496 354.666 57.3363C354.288 56.8075 353.759 56.4109 353.08 56.1465C352.4 55.8444 351.795 55.5611 351.267 55.2967C350.171 53.7859 349.378 52.3317 348.887 50.9342C348.396 49.4989 347.886 47.8936 347.357 46.1184C347.433 45.5896 347.565 45.0797 347.754 44.5887C347.943 44.0599 348.018 43.4934 347.981 42.889C348.66 40.925 349.548 39.1497 350.643 37.5634C351.776 35.9392 353.061 34.3906 354.496 32.9176C354.496 32.691 354.534 32.5021 354.609 32.351C354.723 32.1999 354.741 31.9733 354.666 31.6711C354.704 31.7089 354.779 31.7278 354.893 31.7278C355.195 31.7278 355.384 31.6523 355.459 31.5012C355.535 31.3123 355.554 31.1046 355.516 30.878C356.876 30.0092 358.103 29.0083 359.198 27.8752C360.332 26.7421 361.616 25.7978 363.051 25.0424C363.164 24.7025 363.353 24.4192 363.618 24.1926C363.882 23.9659 364.09 23.7015 364.241 23.3994C365.449 23.0594 366.545 22.5495 367.527 21.8697C368.509 21.1898 369.548 20.5855 370.643 20.0567C371.247 19.7167 371.814 19.4901 372.343 19.3768C372.909 19.2257 373.514 19.0746 374.156 18.9235C374.382 18.848 374.59 18.7914 374.779 18.7536C374.968 18.7158 375.175 18.6969 375.402 18.6969C376.082 18.6969 376.743 18.8291 377.385 19.0935C378.027 19.3201 378.688 19.4335 379.368 19.4335C379.557 19.4335 379.708 19.4335 379.821 19.4335C379.972 19.3957 380.123 19.3579 380.274 19.3201C380.917 20.1133 381.729 20.7177 382.711 21.1331C382.937 21.6997 383.202 22.1907 383.504 22.6062C383.844 23.0217 384.184 23.4371 384.524 23.8526C384.864 24.2303 385.166 24.6647 385.43 25.1557C385.732 25.609 385.921 26.1566 385.997 26.7987ZM380.331 29.7448C380.331 29.556 380.312 29.386 380.274 29.2349C379.897 29.1216 379.538 28.9705 379.198 28.7817C378.858 28.5928 378.48 28.4984 378.065 28.4984C377.8 28.4984 377.536 28.5551 377.272 28.6684C377.234 28.404 377.121 28.2151 376.932 28.1018C376.781 27.9885 376.592 27.8941 376.365 27.8185C376.176 27.7052 375.969 27.6297 375.742 27.5919C375.553 27.5164 375.383 27.4031 375.232 27.252C375.119 26.9498 374.987 26.6476 374.835 26.3455C374.722 26.0055 374.496 25.76 374.156 25.609C373.816 25.9489 373.419 26.2322 372.966 26.4588C372.513 26.6476 372.04 26.8365 371.549 27.0254C371.096 27.2142 370.643 27.4408 370.19 27.7052C369.774 27.9696 369.415 28.2907 369.113 28.6684H368.093C367.867 29.0839 367.546 29.4049 367.13 29.6315C366.715 29.8204 366.356 30.1037 366.054 30.4814C365.449 30.7835 364.883 31.1612 364.354 31.6145C363.863 32.03 363.372 32.4832 362.881 32.9742C362.39 33.4275 361.899 33.8996 361.408 34.3906C360.955 34.8816 360.464 35.3349 359.935 35.7504C359.444 36.808 358.896 37.7333 358.292 38.5265C357.725 39.2819 357.178 40.0562 356.649 40.8494C356.158 41.6426 355.724 42.5113 355.346 43.4556C355.006 44.3621 354.836 45.4952 354.836 46.8549V47.4215C354.836 47.6104 354.855 47.7992 354.893 47.9881C355.384 48.5169 355.78 49.0834 356.082 49.6877C356.422 50.2921 356.97 50.7264 357.725 50.9908C358.481 51.293 359.274 51.4252 360.105 51.3874C360.974 51.3497 361.805 51.4441 362.598 51.6707C364.411 51.3308 366.148 50.7831 367.81 50.0277C369.51 49.2345 371.115 48.2902 372.626 47.1949C372.853 47.006 373.117 46.8172 373.419 46.6283C373.721 46.4017 373.967 46.1751 374.156 45.9484C374.344 45.7596 374.496 45.5519 374.609 45.3252C374.76 45.0986 374.911 44.8909 375.062 44.702C375.364 44.211 375.704 43.72 376.082 43.229C376.46 42.7379 376.856 42.2847 377.272 41.8692C377.461 41.0383 377.706 40.2451 378.008 39.4897C378.31 38.6965 378.613 37.9222 378.915 37.1668C379.217 36.4114 379.462 35.6371 379.651 34.8439C379.878 34.0507 379.991 33.2197 379.991 32.351C379.991 32.1622 379.972 31.9544 379.935 31.7278C379.935 31.5012 379.916 31.2934 379.878 31.1046C380.18 30.6891 380.331 30.2359 380.331 29.7448ZM438.687 23.1727C438.536 23.6638 438.29 24.117 437.95 24.5325L436.987 25.7223C436.685 26.1 436.421 26.5154 436.194 26.9687C436.005 27.3842 435.948 27.8752 436.024 28.4418C435.948 28.4418 435.854 28.4418 435.741 28.4418C435.627 28.404 435.533 28.3851 435.457 28.3851C434.853 28.3851 434.381 28.5362 434.041 28.8383C433.739 29.1027 433.323 29.3294 432.795 29.5182C432.719 29.2916 432.625 29.0839 432.511 28.895C432.398 28.6684 432.228 28.5173 432.001 28.4418C431.095 28.6306 430.188 28.7817 429.282 28.895C428.375 28.9705 427.469 29.0839 426.562 29.2349C426.147 29.3105 425.731 29.4238 425.316 29.5749C424.9 29.6882 424.466 29.8015 424.013 29.9148C423.786 29.9903 423.541 30.0281 423.276 30.0281C423.012 29.9903 422.748 29.9903 422.483 30.0281C421.577 30.0659 420.595 30.1414 419.537 30.2547C418.479 30.3303 417.535 30.6136 416.704 31.1046C416.327 31.029 415.93 30.9724 415.514 30.9346C415.099 30.8968 414.684 30.878 414.268 30.878C413.362 30.878 412.361 30.9724 411.265 31.1612C410.208 31.3123 409.263 31.6334 408.432 32.1244C408.244 32.0488 408.036 31.9922 407.809 31.9544C407.62 31.9167 407.394 31.8978 407.129 31.8978C407.054 31.8978 406.997 31.9167 406.959 31.9544C406.922 31.9544 406.865 31.9544 406.789 31.9544C406.752 32.2944 406.789 32.6343 406.903 32.9742C407.054 33.2764 407.299 33.5219 407.639 33.7108C407.488 34.1262 407.413 34.5795 407.413 35.0705C407.413 35.7126 407.45 36.3547 407.526 36.9968C407.639 37.6389 407.696 38.281 407.696 38.9231C407.696 39.6407 407.602 40.2073 407.413 40.6228C407.79 41.7559 407.979 42.9646 407.979 44.2488C407.979 44.702 407.941 45.1553 407.866 45.6085C407.828 46.024 407.809 46.4772 407.809 46.9683C407.809 47.3837 407.96 47.7237 408.262 47.9881C408.565 48.2147 408.716 48.5357 408.716 48.9512C408.716 49.1023 408.678 49.2534 408.602 49.4045C409.131 49.2912 409.641 49.1401 410.132 48.9512C410.623 48.7246 411.133 48.6113 411.662 48.6113C411.964 48.6113 412.247 48.6679 412.512 48.7812C412.814 48.8946 413.078 49.0456 413.305 49.2345C413.267 49.4233 413.229 49.6311 413.192 49.8577C413.192 50.0843 413.192 50.311 413.192 50.5376C413.192 50.9531 413.192 51.3497 413.192 51.7274C413.229 52.0673 413.267 52.445 413.305 52.8605C413.003 53.3893 412.644 53.8614 412.228 54.2769C411.851 54.6924 411.586 55.2211 411.435 55.8632C410.869 55.8632 410.359 55.9954 409.906 56.2598C409.49 56.4865 409.093 56.7509 408.716 57.053C408.338 57.3174 407.96 57.5818 407.583 57.8462C407.205 58.0728 406.789 58.1861 406.336 58.1861C405.77 58.1861 405.373 58.1106 405.146 57.9595C404.92 57.7707 404.75 57.5818 404.637 57.393C404.523 57.2041 404.41 57.0341 404.297 56.8831C404.221 56.732 404.032 56.6753 403.73 56.7131C403.654 56.2221 403.503 55.7688 403.277 55.3533C403.05 54.9001 402.805 54.4657 402.54 54.0503C402.314 53.6348 402.068 53.2193 401.804 52.8038C401.577 52.3506 401.407 51.8973 401.294 51.4441C401.067 50.462 400.973 49.4422 401.011 48.3847C401.048 47.3271 400.878 46.3073 400.501 45.3252C400.576 44.7964 400.633 44.2677 400.671 43.7389C400.708 43.1723 400.727 42.6246 400.727 42.0958C400.727 41.0383 400.689 39.9996 400.614 38.9798C400.576 37.9222 400.538 36.8457 400.501 35.7504C400.236 35.4104 400.066 35.0327 399.991 34.6173C399.953 34.164 399.915 33.7296 399.877 33.3142C399.764 33.2009 399.632 33.0875 399.481 32.9742C399.368 32.8609 399.292 32.7098 399.254 32.521C398.952 32.4454 398.725 32.4077 398.574 32.4077C398.046 32.4077 397.592 32.5399 397.215 32.8043C396.875 33.0309 396.554 33.1442 396.251 33.1442C395.949 33.1442 395.666 33.1064 395.402 33.0309C395.137 32.9553 394.873 32.9176 394.608 32.9176C394.382 32.9176 394.25 32.9742 394.212 33.0875C394.212 33.1631 394.136 33.2386 393.985 33.3142C393.872 33.3897 393.607 33.4652 393.192 33.5408C392.777 33.6163 392.304 33.6919 391.776 33.7674C391.285 33.8052 390.794 33.843 390.303 33.8807C389.849 33.9185 389.547 33.9374 389.396 33.9374C388.792 33.9374 388.338 33.8241 388.036 33.5974C387.696 33.3331 387.3 33.0498 386.847 32.7476C386.922 32.521 386.96 32.3699 386.96 32.2944C386.96 31.9167 386.847 31.6145 386.62 31.3879C386.393 31.1235 386.28 30.8968 386.28 30.708C386.28 30.2925 386.45 29.9715 386.79 29.7448C387.092 29.5182 387.262 29.1594 387.3 28.6684C388.169 28.2907 389.056 28.0074 389.963 27.8185C390.869 27.6297 391.794 27.4786 392.739 27.3653C393.683 27.252 394.608 27.1198 395.515 26.9687C396.459 26.8176 397.385 26.5721 398.291 26.2322C398.555 26.2699 398.801 26.3077 399.028 26.3455C399.292 26.3455 399.556 26.3455 399.821 26.3455C400.954 26.3455 402.068 26.2322 403.163 26.0055C404.297 25.7412 405.449 25.609 406.619 25.609C406.922 25.609 407.224 25.6278 407.526 25.6656C407.828 25.7034 408.13 25.76 408.432 25.8356C409.943 25.609 411.435 25.3634 412.908 25.099C414.419 24.8347 415.968 24.608 417.554 24.4192C418.309 24.3436 419.046 24.287 419.764 24.2492C420.519 24.1737 421.274 24.0792 422.03 23.9659C422.294 23.9282 422.483 23.8715 422.596 23.796C422.748 23.6826 422.823 23.4749 422.823 23.1727C423.163 23.3238 423.541 23.3994 423.956 23.3994C424.598 23.3994 425.222 23.2861 425.826 23.0594C426.43 22.8328 427.053 22.7195 427.695 22.7195C427.847 22.7195 427.979 22.7384 428.092 22.7762C428.205 22.7762 428.319 22.7762 428.432 22.7762C428.696 22.7762 428.829 22.6628 428.829 22.4362C428.866 22.1718 429.055 22.0019 429.395 21.9263C429.66 21.8508 430.037 21.7941 430.528 21.7563C431.019 21.7186 431.529 21.6808 432.058 21.643C432.625 21.5675 433.134 21.492 433.588 21.4164C434.079 21.3031 434.438 21.152 434.664 20.9632L435.061 20.3399C435.741 20.3777 436.232 20.6799 436.534 21.2464C436.874 21.7752 437.063 22.3607 437.1 23.0028C437.251 23.1539 437.459 23.2294 437.724 23.2294C438.026 23.1916 438.29 23.1727 438.517 23.1727H438.687ZM461.632 45.042C461.632 45.4574 461.481 45.7785 461.179 46.0051C460.877 46.194 460.726 46.4584 460.726 46.7983C460.726 46.9494 460.801 47.1382 460.953 47.3648C460.424 47.3648 460.065 47.5348 459.876 47.8748C459.687 48.2147 459.498 48.5924 459.31 49.0079H458.573C458.384 49.0079 458.233 49.0456 458.12 49.1212C458.006 49.1967 457.893 49.31 457.78 49.4611C457.704 49.5744 457.591 49.7633 457.44 50.0277C456.722 50.1788 456.023 50.4243 455.344 50.7642C454.702 51.0664 454.059 51.4063 453.417 51.784C452.813 52.124 452.19 52.4828 451.548 52.8605C450.906 53.2004 450.245 53.4837 449.565 53.7103C449.225 54.2769 448.734 54.7301 448.092 55.0701H447.922C447.733 55.1078 447.563 55.0889 447.412 55.0134C447.298 54.9001 447.147 54.8434 446.959 54.8434C446.845 54.8434 446.77 54.8623 446.732 54.9001C445.599 55.6555 444.333 56.0332 442.936 56.0332C442.558 56.0332 442.199 56.0143 441.86 55.9766C441.52 55.901 441.161 55.8632 440.783 55.8632C440.67 55.8632 440.594 55.901 440.556 55.9766L440.443 56.2032C440.405 56.2787 440.349 56.3543 440.273 56.4298C440.235 56.5053 440.103 56.5431 439.877 56.5431C439.461 56.5431 439.046 56.4865 438.63 56.3731C438.215 56.2598 437.78 56.241 437.327 56.3165C436.458 55.8255 435.778 55.3533 435.287 54.9001C434.796 54.4468 434.343 53.767 433.928 52.8605C433.739 52.445 433.474 52.0484 433.134 51.6707C432.832 51.293 432.606 50.8775 432.455 50.4243C432.417 50.2732 432.36 50.0088 432.285 49.6311C432.209 49.2156 432.134 48.7812 432.058 48.328C431.982 47.8748 431.907 47.4404 431.831 47.0249C431.794 46.6094 431.775 46.3262 431.775 46.1751C431.775 45.7218 431.794 45.2875 431.831 44.872C431.907 44.4187 431.982 43.9655 432.058 43.5122C432.285 42.077 432.436 40.6417 432.511 39.2064C432.625 37.7333 432.946 36.3169 433.474 34.9572C433.399 34.5417 433.361 34.1451 433.361 33.7674V32.521C433.361 31.8033 433.267 31.199 433.078 30.708C433.38 30.217 433.531 29.6693 433.531 29.065C433.531 28.3851 433.248 27.9885 432.681 27.8752V27.7052C432.681 26.912 432.417 26.2888 431.888 25.8356C431.888 24.5136 432.209 23.5316 432.851 22.8895C433.531 22.2096 434.419 21.6241 435.514 21.1331C435.665 20.9065 435.722 20.7177 435.684 20.5666C435.948 20.6421 436.194 20.7177 436.421 20.7932C436.647 20.8687 436.874 20.9065 437.1 20.9065C437.478 20.9065 437.818 20.8499 438.12 20.7365C438.234 21.1898 438.517 21.4731 438.97 21.5864C439.461 21.6619 439.858 21.7752 440.16 21.9263V22.6628C440.16 23.8337 440.443 24.948 441.01 26.0055C440.859 26.3077 440.764 26.6288 440.726 26.9687C440.689 27.3086 440.67 27.6297 440.67 27.9318C440.67 28.3851 440.689 28.8383 440.726 29.2916C440.764 29.7448 440.783 30.1792 440.783 30.5947C440.783 31.0479 440.726 31.5012 440.613 31.9544C440.538 32.4077 440.33 32.8043 439.99 33.1442C439.952 33.6352 439.914 34.2018 439.877 34.8439C439.877 35.4482 439.839 36.0714 439.763 36.7135C439.725 37.3556 439.631 37.9788 439.48 38.5832C439.329 39.1875 439.102 39.6785 438.8 40.0562C438.762 40.6228 438.725 41.2082 438.687 41.8126C438.687 42.3791 438.687 42.9268 438.687 43.4556C438.687 44.2865 438.725 45.2686 438.8 46.4017C438.913 47.5348 439.178 48.4791 439.593 49.2345C439.782 49.5367 440.141 49.7633 440.67 49.9144C441.236 50.0654 441.69 50.141 442.029 50.141C442.445 50.141 442.86 50.0843 443.276 49.971C443.729 49.8199 444.05 49.5744 444.239 49.2345C444.466 49.2723 444.617 49.3856 444.692 49.5744C444.768 49.7633 444.9 49.9144 445.089 50.0277C447.242 49.1212 449.395 48.2525 451.548 47.4215C453.701 46.5905 455.816 45.6274 457.893 44.532C458.195 44.6831 458.516 44.7587 458.856 44.7587C459.234 44.7587 459.612 44.7209 459.989 44.6454C460.367 44.5698 460.745 44.532 461.123 44.532H461.519C461.595 44.7587 461.632 44.9286 461.632 45.042ZM473.474 51.8407C473.285 52.1428 473.058 52.4261 472.794 52.6905C472.529 52.9171 472.284 53.1626 472.057 53.427C471.793 53.5403 471.491 53.597 471.151 53.597C470.848 53.597 470.546 53.597 470.244 53.597C469.98 53.5592 469.715 53.5592 469.451 53.597C469.224 53.597 469.035 53.6725 468.884 53.8236C468.582 53.7481 468.356 53.6159 468.205 53.427C468.053 53.2004 467.789 53.0682 467.411 53.0304C467.26 52.9927 467.109 52.9927 466.958 53.0304C466.392 52.3883 465.863 51.7085 465.372 50.9908C464.918 50.2732 464.484 49.5933 464.069 48.9512C464.031 47.5537 463.918 46.1373 463.729 44.702C463.691 44.3621 463.634 44.0221 463.559 43.6822C463.483 43.3423 463.427 43.0212 463.389 42.7191C463.389 42.3414 463.408 41.9825 463.445 41.6426C463.521 41.2649 463.578 40.925 463.615 40.6228C463.766 39.5274 463.936 38.451 464.125 37.3934C464.314 36.3358 464.484 35.2594 464.635 34.164C464.786 33.182 464.862 32.1622 464.862 31.1046C464.862 30.0092 464.692 28.9894 464.352 28.0452L464.295 27.7619C464.371 27.4597 464.446 27.2142 464.522 27.0254C464.635 26.7987 464.711 26.5532 464.748 26.2888C464.824 25.8733 464.73 25.5712 464.465 25.3823C464.579 25.0802 464.767 24.8913 465.032 24.8158C465.296 24.7025 465.447 24.4758 465.485 24.1359C465.523 23.9848 465.523 23.8337 465.485 23.6826C465.787 23.5693 466.089 23.4749 466.392 23.3994C466.731 23.2861 467.053 23.2672 467.355 23.3427C467.846 23.4183 468.28 23.5882 468.658 23.8526C469.035 24.0792 469.394 24.3436 469.734 24.6458C470.339 26.4588 470.584 28.3851 470.471 30.4247C470.357 32.4266 470.169 34.4473 469.904 36.4869C469.64 38.5265 469.47 40.5284 469.394 42.4924C469.319 44.4187 469.621 46.2128 470.301 47.8748L470.414 47.9314C470.603 47.9692 470.754 47.9125 470.867 47.7614C470.981 47.5726 471.132 47.497 471.321 47.5348C471.472 47.6104 471.566 47.6481 471.604 47.6481C471.755 48.4035 472 49.1212 472.34 49.8011C472.68 50.4809 473.058 51.1608 473.474 51.8407ZM537.891 28.2718C537.778 28.6117 537.551 28.8572 537.212 29.0083C536.909 29.1216 536.588 29.2161 536.248 29.2916C535.908 29.3671 535.587 29.4993 535.285 29.6882C535.021 29.8393 534.851 30.1037 534.775 30.4814L534.662 30.538C534.511 30.538 534.398 30.5003 534.322 30.4247C534.284 30.3114 534.247 30.217 534.209 30.1414C534.171 30.0281 534.114 29.9337 534.039 29.8582C534.001 29.7448 533.925 29.6882 533.812 29.6882C533.397 29.6882 532.981 29.726 532.566 29.8015C532.188 29.877 531.81 29.9148 531.433 29.9148C530.866 29.9148 530.356 29.8393 529.903 29.6882C529.638 29.7637 529.487 29.9337 529.45 30.1981C529.45 30.4625 529.336 30.6324 529.11 30.708C528.921 30.7835 528.694 30.8213 528.43 30.8213C528.165 30.7835 527.901 30.8024 527.637 30.878L525.824 31.3312C525.219 31.4823 524.615 31.5578 524.011 31.5578C523.671 31.5578 523.425 31.5389 523.274 31.5012C522.708 31.9544 522.065 32.2944 521.348 32.521C520.63 32.7098 519.875 32.8987 519.082 33.0875C518.326 33.2386 517.571 33.4464 516.815 33.7108C516.098 33.9752 515.456 34.3906 514.889 34.9572C514.587 34.8816 514.322 34.8439 514.096 34.8439C513.605 34.8439 513.17 34.9572 512.793 35.1838C512.415 35.3727 512.018 35.5615 511.603 35.7504C511.414 35.8259 511.225 35.8637 511.036 35.8637C510.848 35.8637 510.64 35.9015 510.413 35.977C510.187 36.0525 510.036 36.1847 509.96 36.3736C509.922 36.5247 509.809 36.6758 509.62 36.8268C509.62 38.1866 509.752 39.5463 510.017 40.9061C510.281 42.228 510.413 43.5689 510.413 44.9286V45.1553C510.489 45.7974 510.697 46.4017 511.036 46.9683C511.376 47.497 511.546 48.0447 511.546 48.6113C511.546 48.8001 511.509 49.0079 511.433 49.2345C512.415 49.4611 513.057 49.971 513.359 50.7642C513.699 51.5196 513.964 52.3506 514.153 53.2571C514.379 54.1258 514.662 54.9379 515.002 55.6933C515.38 56.4487 516.098 56.9208 517.155 57.1097C517.231 57.4874 517.287 57.884 517.325 58.2995C517.363 58.6772 517.382 59.0549 517.382 59.4326C517.382 59.9614 517.325 60.4713 517.212 60.9623C517.099 61.4911 516.872 61.9632 516.532 62.3787C515.966 62.4165 515.55 62.4353 515.286 62.4353C515.021 62.4353 514.625 62.5486 514.096 62.7753C513.34 62.322 512.661 61.7932 512.056 61.1889C511.49 60.6223 510.942 60.018 510.413 59.3759C509.922 58.696 509.431 58.0162 508.94 57.3363C508.449 56.6187 507.92 55.9388 507.354 55.2967C505.39 55.7877 503.369 56.1276 501.292 56.3165C499.252 56.4676 497.212 56.5431 495.173 56.5431C495.097 56.6187 494.984 56.6564 494.833 56.6564C494.682 56.6564 494.531 56.6753 494.38 56.7131C494.266 56.7131 494.153 56.7509 494.04 56.8264C493.964 56.8642 493.945 56.9586 493.983 57.1097C493.719 56.9586 493.416 56.8642 493.077 56.8264C492.774 56.7509 492.491 56.7131 492.227 56.7131C492.038 56.7131 491.849 56.732 491.66 56.7697C491.471 56.7697 491.282 56.8264 491.094 56.9397C489.658 56.6753 488.261 56.3165 486.901 55.8632C485.579 55.3722 484.219 54.9756 482.822 54.6735C482.822 54.3713 482.746 54.1636 482.595 54.0503C482.444 53.8992 482.312 53.6914 482.199 53.427C480.612 52.445 479.271 51.2552 478.176 49.8577C477.118 48.4602 476.684 46.7605 476.873 44.7587L476.476 43.9655C476.476 43.3612 476.608 42.9268 476.873 42.6624C476.722 42.398 476.457 42.1336 476.08 41.8692C476.42 41.3404 476.722 40.7928 476.986 40.2262C477.251 39.6596 477.439 39.0553 477.553 38.4132C477.591 38.2244 477.609 38.0544 477.609 37.9033C477.609 37.7522 477.647 37.5822 477.723 37.3934C477.798 37.1668 477.912 36.9213 478.063 36.6569C478.176 36.3547 478.289 36.0903 478.403 35.8637C479.007 34.5795 479.668 33.3519 480.386 32.181C481.141 30.9724 482.085 29.9337 483.218 29.065C483.294 28.4229 483.483 27.8941 483.785 27.4786C484.087 27.0254 484.408 26.6288 484.748 26.2888C485.126 25.9111 485.485 25.5334 485.825 25.1557C486.202 24.778 486.486 24.3248 486.674 23.796C487.43 23.1539 488.185 22.5306 488.941 21.9263C489.734 21.322 490.395 20.6043 490.924 19.7734C491.603 19.5468 492.246 19.2635 492.85 18.9235C493.454 18.5458 493.964 18.0737 494.38 17.5071C495.286 17.4316 496.174 17.2616 497.042 16.9972C497.949 16.7328 498.893 16.6007 499.875 16.6007C500.291 16.6007 500.782 16.6951 501.348 16.8839C501.953 17.035 502.406 17.3183 502.708 17.7338C502.746 17.8093 502.765 17.9037 502.765 18.0171L502.821 18.3003C502.859 18.3759 502.897 18.4514 502.935 18.527C503.01 18.5647 503.123 18.5647 503.275 18.527C503.275 19.3579 503.18 20.2077 502.991 21.0765C502.802 21.9074 502.311 22.5495 501.518 23.0028C501.027 22.8517 500.498 22.7762 499.932 22.7762C499.176 22.7762 498.478 22.9272 497.836 23.2294C497.231 23.4938 496.627 23.8148 496.023 24.1926C495.456 24.5325 494.871 24.8913 494.266 25.269C493.662 25.609 493.02 25.8545 492.34 26.0055C492.264 26.3077 492.189 26.591 492.113 26.8554C492.076 27.082 492.094 27.3464 492.17 27.6486C491.981 27.6486 491.83 27.6297 491.717 27.5919C491.641 27.5164 491.509 27.4786 491.32 27.4786C491.056 27.4786 490.867 27.6297 490.754 27.9318C490.678 28.234 490.603 28.4795 490.527 28.6684C489.809 28.9705 489.205 29.4049 488.714 29.9715C488.261 30.5003 487.826 31.0857 487.411 31.7278C487.033 32.3321 486.618 32.9176 486.164 33.4841C485.711 34.0507 485.145 34.4851 484.465 34.7872C484.163 35.9959 483.86 37.1857 483.558 38.3565C483.294 39.5274 482.973 40.6983 482.595 41.8692C482.708 42.3225 482.765 42.7946 482.765 43.2856C482.765 43.8899 482.708 44.4376 482.595 44.9286C482.784 45.2308 482.973 45.5896 483.162 46.0051L483.842 47.3082C484.068 47.7614 484.295 48.1769 484.521 48.5546C484.786 48.9323 485.031 49.2156 485.258 49.4045C485.673 49.7066 486.316 49.9899 487.184 50.2543C488.053 50.4809 488.827 50.8775 489.507 51.4441C489.583 51.4441 489.677 51.4441 489.79 51.4441C489.904 51.4063 489.998 51.3874 490.074 51.3874C490.527 51.3874 491.018 51.5007 491.547 51.7274C492.076 51.954 492.416 52.0673 492.567 52.0673C494.682 52.0673 496.986 51.9351 499.479 51.6707C501.971 51.3685 504.275 51.0097 506.391 50.5942C506.466 50.2165 506.504 49.8955 506.504 49.6311C506.504 49.1401 506.428 48.6679 506.277 48.2147C506.126 47.7237 505.881 47.3082 505.541 46.9683C505.541 46.4017 505.541 45.8351 505.541 45.2686C505.579 44.702 505.597 44.1355 505.597 43.5689C505.597 42.6246 505.56 41.6237 505.484 40.5661C505.409 39.5086 505.22 38.5265 504.918 37.62H504.804C504.313 37.62 503.86 37.7522 503.445 38.0166C503.067 38.2432 502.67 38.3565 502.255 38.3565C502.028 38.3565 501.839 38.2999 501.688 38.1866C501.235 38.7154 500.687 39.112 500.045 39.3764C499.403 39.6407 498.723 39.8863 498.006 40.1129C497.288 40.3017 496.57 40.5095 495.853 40.7361C495.173 40.9627 494.55 41.2838 493.983 41.6993C493.681 41.5859 493.398 41.5293 493.133 41.5293C492.869 41.5293 492.604 41.5482 492.34 41.5859C492.113 41.6237 491.849 41.6615 491.547 41.6993C490.754 41.0194 490.357 40.1695 490.357 39.1497C490.357 38.6209 490.433 38.111 490.584 37.62C490.772 37.0912 491.018 36.6002 491.32 36.147C491.509 36.0337 491.736 35.977 492 35.977C492.264 35.9392 492.529 35.9015 492.793 35.8637C493.058 35.7881 493.265 35.6937 493.416 35.5804C493.605 35.4671 493.719 35.2594 493.756 34.9572C493.87 35.0705 493.964 35.1272 494.04 35.1272C494.115 35.1272 494.191 35.1083 494.266 35.0705C494.342 35.0327 494.417 35.0138 494.493 35.0138C494.568 35.0138 494.625 35.0516 494.663 35.1272C494.738 35.2027 494.776 35.2782 494.776 35.3538C496.4 34.4851 498.062 33.7485 499.762 33.1442C501.462 32.5399 503.18 31.9922 504.918 31.5012C506.693 31.0102 508.468 30.5569 510.243 30.1414C512.018 29.6882 513.775 29.1972 515.512 28.6684C515.777 28.4418 516.06 28.2718 516.362 28.1585C516.664 28.0452 516.929 27.8752 517.155 27.6486C517.42 27.7997 517.741 27.8752 518.118 27.8752C518.647 27.8752 519.214 27.7808 519.818 27.5919C520.46 27.3653 520.989 27.1009 521.404 26.7987C521.556 26.8365 521.688 26.8554 521.801 26.8554H522.198C522.953 26.8554 523.652 26.7421 524.294 26.5154C524.974 26.2888 525.635 25.9867 526.277 25.609H526.56C527.731 25.609 528.883 25.4768 530.016 25.2124C531.187 24.948 532.377 24.8158 533.586 24.8158C535.134 24.8158 536.494 25.2124 537.665 26.0055V26.6854C537.665 26.9876 537.665 27.2709 537.665 27.5353C537.703 27.7619 537.778 28.0074 537.891 28.2718ZM556.871 33.1442C556.72 33.5219 556.569 33.8807 556.418 34.2207C556.267 34.5606 556.153 34.9383 556.078 35.3538C555.814 35.5426 555.511 35.6937 555.171 35.807C554.869 35.8826 554.548 35.977 554.208 36.0903C553.868 36.1658 553.547 36.2792 553.245 36.4302C552.981 36.5436 552.773 36.7324 552.622 36.9968C552.509 37.5634 552.452 38.0922 552.452 38.5832C552.452 39.2253 552.565 39.7729 552.792 40.2262C552.679 40.5661 552.603 40.925 552.565 41.3027C552.527 41.6804 552.509 42.0392 552.509 42.3791C552.509 43.6256 552.66 44.872 552.962 46.1184C553.264 47.3271 553.434 48.5546 553.472 49.8011C553.472 49.9899 553.453 50.1976 553.415 50.4243C553.377 50.6509 553.358 50.8586 553.358 51.0475C553.358 51.8407 553.661 52.3695 554.265 52.6339C554.152 52.8227 554.095 52.9927 554.095 53.1438C554.095 53.4459 554.133 53.7103 554.208 53.9369C554.284 54.1636 554.303 54.4091 554.265 54.6735C554.454 55.0512 554.643 55.3911 554.831 55.6933C555.02 55.9577 555.153 56.2976 555.228 56.7131C554.964 57.2419 554.643 57.7329 554.265 58.1861C553.887 58.6016 553.623 59.1304 553.472 59.7725C553.321 59.7347 553.151 59.7159 552.962 59.7159C552.697 59.7159 552.49 59.7725 552.339 59.8858C552.188 59.9991 552.055 60.1313 551.942 60.2824C551.866 60.4713 551.772 60.6412 551.659 60.7923C551.545 60.9812 551.394 61.1134 551.206 61.1889H551.036C550.847 61.2267 550.677 61.2078 550.526 61.1323C550.412 61.0945 550.299 61.0756 550.186 61.0756C550.11 61.0756 549.959 61.1134 549.732 61.1889C549.43 60.8112 549.223 60.358 549.109 59.8292C548.996 59.3381 548.939 58.8471 548.939 58.3561C548.939 57.8273 549.015 57.3552 549.166 56.9397C548.75 56.5998 548.486 56.0899 548.373 55.41C548.297 54.7301 548.203 54.1636 548.089 53.7103C547.787 52.3128 547.428 50.9531 547.013 49.6311C546.635 48.3091 546.409 46.9494 546.333 45.5519C546.295 45.0231 546.276 44.5132 546.276 44.0221V41.076C546.276 40.585 546.295 40.1129 546.333 39.6596C546.333 39.3197 546.352 38.9986 546.39 38.6965C546.465 38.3565 546.503 38.0166 546.503 37.6767C546.503 37.2234 546.352 36.7891 546.05 36.3736C543.368 36.4869 540.819 36.9779 538.401 37.8466C536.022 38.6776 533.642 39.6785 531.263 40.8494C531.112 41.7181 531.017 42.568 530.979 43.3989C530.942 44.2299 530.923 45.0797 530.923 45.9484V48.4413C530.923 49.3856 530.96 50.1788 531.036 50.8209C531.225 51.9162 531.773 52.7661 532.679 53.3704C533.623 53.9369 534.568 54.3713 535.512 54.6735C535.474 55.24 535.361 55.731 535.172 56.1465C534.983 56.5242 534.738 56.8831 534.435 57.223C534.171 57.5252 533.869 57.8273 533.529 58.1295C533.189 58.4316 532.849 58.7716 532.509 59.1493C532.207 58.9604 531.905 58.8282 531.603 58.7527C531.3 58.6772 530.979 58.6394 530.639 58.6394C530.299 58.6016 529.96 58.5638 529.62 58.5261C529.28 58.4883 528.94 58.4128 528.6 58.2995L527.353 56.5998C526.938 56.0332 526.485 55.4667 525.994 54.9001V54.3902C525.994 53.3704 525.805 52.3883 525.427 51.4441C525.049 50.4998 524.766 49.5367 524.577 48.5546C524.691 48.2147 524.766 47.8748 524.804 47.5348C524.842 47.1949 524.86 46.8361 524.86 46.4584C524.86 45.7029 524.823 44.9664 524.747 44.2488C524.709 43.5311 524.728 42.8135 524.804 42.0958H524.521C524.181 42.0958 523.822 42.1903 523.444 42.3791C523.066 42.5302 522.689 42.7191 522.311 42.9457C521.971 43.1345 521.631 43.3234 521.291 43.5122C520.989 43.6633 520.725 43.7389 520.498 43.7389C520.385 43.7389 520.271 43.72 520.158 43.6822C520.045 43.6444 519.913 43.6256 519.761 43.6256C519.573 43.6256 519.346 43.7011 519.082 43.8522C518.817 44.0033 518.534 44.1732 518.232 44.3621C517.892 44.5132 517.552 44.6642 517.212 44.8153C516.872 44.9664 516.532 45.042 516.192 45.042C515.663 45.042 515.135 44.8153 514.606 44.3621C514.53 44.0599 514.511 43.7766 514.549 43.5122C514.549 43.2478 514.549 42.9646 514.549 42.6624C514.549 42.3602 514.492 42.0392 514.379 41.6993C514.644 41.2082 515.002 40.8305 515.456 40.5661C515.871 40.264 516.324 39.9996 516.815 39.7729C517.269 39.5086 517.741 39.263 518.232 39.0364C518.723 38.772 519.138 38.4321 519.478 38.0166H519.818C520.347 38.0166 520.819 37.9033 521.234 37.6767C521.688 37.4501 522.198 37.3556 522.764 37.3934C522.953 37.3179 523.085 37.0346 523.161 36.5436L523.387 36.6002C524.218 36.6002 524.955 36.3169 525.597 35.7504C526.012 33.4086 526.352 31.0479 526.617 28.6684C526.881 26.2888 527.013 23.9093 527.013 21.5297C527.013 21.3031 526.938 21.0765 526.787 20.8499C526.711 20.5477 526.673 20.2644 526.673 20V19.1502C526.673 18.7347 526.692 18.3003 526.73 17.8471C526.768 17.3938 526.862 16.9406 527.013 16.4873C527.391 16.2607 527.788 16.1474 528.203 16.1474C528.694 16.1474 529.166 16.2229 529.62 16.374C530.111 16.4873 530.583 16.5818 531.036 16.6573C531.376 16.9972 531.621 17.375 531.773 17.7904C531.961 18.2059 532.075 18.6403 532.112 19.0935C532.15 19.509 532.15 19.9434 532.112 20.3966C532.112 20.8121 532.112 21.2276 532.112 21.643C532.112 22.474 532.207 23.2861 532.396 24.0792C532.585 24.8724 532.679 25.6467 532.679 26.4021C532.679 26.591 532.603 26.7421 532.452 26.8554C532.339 26.9309 532.282 27.1764 532.282 27.5919C532.282 28.0074 532.32 28.4418 532.396 28.895C532.471 29.3482 532.509 29.8015 532.509 30.2547C532.509 30.7835 532.433 31.3312 532.282 31.8978C532.131 32.4643 531.999 33.012 531.886 33.5408C534.152 33.3519 536.475 33.0687 538.855 32.691C541.234 32.3132 543.5 31.7089 545.653 30.878C545.691 30.8024 545.71 30.6891 545.71 30.538C545.71 30.3114 545.691 30.0848 545.653 29.8582C545.615 29.6315 545.597 29.386 545.597 29.1216C545.597 28.6684 545.748 28.3096 546.05 28.0452C545.861 26.9876 545.729 25.93 545.653 24.8724C545.578 23.8148 545.54 22.7573 545.54 21.6997V18.4703C545.54 17.4127 545.521 16.3551 545.483 15.2976C545.785 15.1087 546.106 15.0143 546.446 15.0143C546.862 15.0143 547.24 15.1276 547.58 15.3542C547.957 15.5431 548.392 15.6375 548.883 15.6375C549.223 15.6375 549.506 15.5808 549.732 15.4675C550.148 15.8452 550.431 16.3363 550.582 16.9406C550.733 17.5449 550.866 18.1681 550.979 18.8102C551.092 19.4523 551.206 20.0944 551.319 20.7365C551.47 21.3409 551.753 21.8319 552.169 22.2096L552.225 22.3796C552.225 22.5306 552.15 22.644 551.999 22.7195C551.848 22.795 551.772 22.9461 551.772 23.1727V23.3994C551.923 24.0037 552.036 24.6269 552.112 25.269C552.188 25.9111 552.244 26.5721 552.282 27.252C552.358 27.8941 552.452 28.5362 552.565 29.1783C552.679 29.7826 552.886 30.3492 553.188 30.878C553.377 30.8402 553.623 30.8213 553.925 30.8213C554.68 30.8213 555.266 31.0857 555.681 31.6145C556.135 32.1055 556.531 32.6154 556.871 33.1442ZM609.278 23.1727C609.127 23.6638 608.881 24.117 608.541 24.5325L607.578 25.7223C607.276 26.1 607.012 26.5154 606.785 26.9687C606.596 27.3842 606.54 27.8752 606.615 28.4418C606.54 28.4418 606.445 28.4418 606.332 28.4418C606.219 28.404 606.124 28.3851 606.049 28.3851C605.444 28.3851 604.972 28.5362 604.632 28.8383C604.33 29.1027 603.915 29.3294 603.386 29.5182C603.31 29.2916 603.216 29.0839 603.102 28.895C602.989 28.6684 602.819 28.5173 602.593 28.4418C601.686 28.6306 600.78 28.7817 599.873 28.895C598.967 28.9705 598.06 29.0839 597.154 29.2349C596.738 29.3105 596.323 29.4238 595.907 29.5749C595.492 29.6882 595.057 29.8015 594.604 29.9148C594.377 29.9903 594.132 30.0281 593.868 30.0281C593.603 29.9903 593.339 29.9903 593.074 30.0281C592.168 30.0659 591.186 30.1414 590.128 30.2547C589.071 30.3303 588.126 30.6136 587.295 31.1046C586.918 31.029 586.521 30.9724 586.106 30.9346C585.69 30.8968 585.275 30.878 584.859 30.878C583.953 30.878 582.952 30.9724 581.856 31.1612C580.799 31.3123 579.855 31.6334 579.024 32.1244C578.835 32.0488 578.627 31.9922 578.4 31.9544C578.212 31.9167 577.985 31.8978 577.721 31.8978C577.645 31.8978 577.588 31.9167 577.551 31.9544C577.513 31.9544 577.456 31.9544 577.381 31.9544C577.343 32.2944 577.381 32.6343 577.494 32.9742C577.645 33.2764 577.891 33.5219 578.23 33.7108C578.079 34.1262 578.004 34.5795 578.004 35.0705C578.004 35.7126 578.042 36.3547 578.117 36.9968C578.23 37.6389 578.287 38.281 578.287 38.9231C578.287 39.6407 578.193 40.2073 578.004 40.6228C578.382 41.7559 578.57 42.9646 578.57 44.2488C578.57 44.702 578.533 45.1553 578.457 45.6085C578.419 46.024 578.4 46.4772 578.4 46.9683C578.4 47.3837 578.552 47.7237 578.854 47.9881C579.156 48.2147 579.307 48.5357 579.307 48.9512C579.307 49.1023 579.269 49.2534 579.194 49.4045C579.722 49.2912 580.232 49.1401 580.723 48.9512C581.214 48.7246 581.724 48.6113 582.253 48.6113C582.555 48.6113 582.838 48.6679 583.103 48.7812C583.405 48.8946 583.669 49.0456 583.896 49.2345C583.858 49.4233 583.821 49.6311 583.783 49.8577C583.783 50.0843 583.783 50.311 583.783 50.5376C583.783 50.9531 583.783 51.3497 583.783 51.7274C583.821 52.0673 583.858 52.445 583.896 52.8605C583.594 53.3893 583.235 53.8614 582.82 54.2769C582.442 54.6924 582.178 55.2211 582.026 55.8632C581.46 55.8632 580.95 55.9954 580.497 56.2598C580.081 56.4865 579.685 56.7509 579.307 57.053C578.929 57.3174 578.552 57.5818 578.174 57.8462C577.796 58.0728 577.381 58.1861 576.927 58.1861C576.361 58.1861 575.964 58.1106 575.738 57.9595C575.511 57.7707 575.341 57.5818 575.228 57.393C575.114 57.2041 575.001 57.0341 574.888 56.8831C574.812 56.732 574.623 56.6753 574.321 56.7131C574.246 56.2221 574.095 55.7688 573.868 55.3533C573.641 54.9001 573.396 54.4657 573.131 54.0503C572.905 53.6348 572.659 53.2193 572.395 52.8038C572.168 52.3506 571.998 51.8973 571.885 51.4441C571.658 50.462 571.564 49.4422 571.602 48.3847C571.639 47.3271 571.47 46.3073 571.092 45.3252C571.167 44.7964 571.224 44.2677 571.262 43.7389C571.3 43.1723 571.318 42.6246 571.318 42.0958C571.318 41.0383 571.281 39.9996 571.205 38.9798C571.167 37.9222 571.13 36.8457 571.092 35.7504C570.827 35.4104 570.657 35.0327 570.582 34.6173C570.544 34.164 570.506 33.7296 570.469 33.3142C570.355 33.2009 570.223 33.0875 570.072 32.9742C569.959 32.8609 569.883 32.7098 569.845 32.521C569.543 32.4454 569.317 32.4077 569.166 32.4077C568.637 32.4077 568.183 32.5399 567.806 32.8043C567.466 33.0309 567.145 33.1442 566.843 33.1442C566.54 33.1442 566.257 33.1064 565.993 33.0309C565.728 32.9553 565.464 32.9176 565.2 32.9176C564.973 32.9176 564.841 32.9742 564.803 33.0875C564.803 33.1631 564.727 33.2386 564.576 33.3142C564.463 33.3897 564.199 33.4652 563.783 33.5408C563.368 33.6163 562.896 33.6919 562.367 33.7674C561.876 33.8052 561.385 33.843 560.894 33.8807C560.44 33.9185 560.138 33.9374 559.987 33.9374C559.383 33.9374 558.93 33.8241 558.628 33.5974C558.288 33.3331 557.891 33.0498 557.438 32.7476C557.513 32.521 557.551 32.3699 557.551 32.2944C557.551 31.9167 557.438 31.6145 557.211 31.3879C556.984 31.1235 556.871 30.8968 556.871 30.708C556.871 30.2925 557.041 29.9715 557.381 29.7448C557.683 29.5182 557.853 29.1594 557.891 28.6684C558.76 28.2907 559.647 28.0074 560.554 27.8185C561.46 27.6297 562.386 27.4786 563.33 27.3653C564.274 27.252 565.2 27.1198 566.106 26.9687C567.05 26.8176 567.976 26.5721 568.882 26.2322C569.147 26.2699 569.392 26.3077 569.619 26.3455C569.883 26.3455 570.148 26.3455 570.412 26.3455C571.545 26.3455 572.659 26.2322 573.755 26.0055C574.888 25.7412 576.04 25.609 577.211 25.609C577.513 25.609 577.815 25.6278 578.117 25.6656C578.419 25.7034 578.721 25.76 579.024 25.8356C580.534 25.609 582.026 25.3634 583.499 25.099C585.01 24.8347 586.559 24.608 588.145 24.4192C588.901 24.3436 589.637 24.287 590.355 24.2492C591.11 24.1737 591.866 24.0792 592.621 23.9659C592.885 23.9282 593.074 23.8715 593.188 23.796C593.339 23.6826 593.414 23.4749 593.414 23.1727C593.754 23.3238 594.132 23.3994 594.547 23.3994C595.189 23.3994 595.813 23.2861 596.417 23.0594C597.021 22.8328 597.645 22.7195 598.287 22.7195C598.438 22.7195 598.57 22.7384 598.683 22.7762C598.797 22.7762 598.91 22.7762 599.023 22.7762C599.288 22.7762 599.42 22.6628 599.42 22.4362C599.458 22.1718 599.646 22.0019 599.986 21.9263C600.251 21.8508 600.628 21.7941 601.119 21.7563C601.611 21.7186 602.12 21.6808 602.649 21.643C603.216 21.5675 603.726 21.492 604.179 21.4164C604.67 21.3031 605.029 21.152 605.255 20.9632L605.652 20.3399C606.332 20.3777 606.823 20.6799 607.125 21.2464C607.465 21.7752 607.654 22.3607 607.692 23.0028C607.843 23.1539 608.05 23.2294 608.315 23.2294C608.617 23.1916 608.881 23.1727 609.108 23.1727H609.278Z" fill="#07080E"/>
</svg>
