<svg width="880" height="114" viewBox="0 0 880 114" fill="none" xmlns="http://www.w3.org/2000/svg">
<path d="M73.704 23.5268C72.9938 30.6456 68.994 37.7644 61.717 44.8956C55.1628 51.3695 48.2098 55.7226 40.883 57.9798C38.5529 58.6867 36.9829 59.0464 36.148 59.0464C34.9019 59.0464 34.2665 58.3395 34.2665 56.9132C34.2665 57.0868 34.4783 55.9955 34.8895 53.6143C35.4253 50.5881 36.472 48.393 38.0171 47.0287C38.7273 46.6691 40.8456 45.4537 44.3719 43.3825C48.9574 40.4804 52.4464 37.8388 54.8388 35.4576C58.1782 32.0718 60.446 28.2768 61.6422 24.0601V22.8199C61.6422 19.2605 59.2623 17.4746 54.4899 17.4746C51.3249 17.4746 47.9606 18.3923 44.3844 20.2402C36.0359 24.5686 28.0736 32.5183 20.4976 44.1019C18.2298 47.5496 16.1115 51.3075 14.1427 55.4126C12.6474 58.4387 11.8749 62.1469 11.8126 66.5372C11.688 75.1443 15.6006 80.1299 23.5255 81.4942C23.9367 81.4942 24.5597 81.581 25.3572 81.7546C26.1671 81.9282 26.7777 82.015 27.1889 82.015C31.7245 82.015 36.1605 80.564 40.5092 77.6495C44.5589 74.921 47.6989 71.4485 49.9044 67.2317C50.976 67.2317 52.6208 67.765 54.8263 68.8316C57.3932 70.0842 58.8511 71.3864 59.2124 72.7507C57.306 78.6913 52.8327 83.5777 45.7925 87.4347C39.4127 90.9941 32.8833 92.78 26.2045 92.78C21.1331 92.78 16.5725 91.7383 12.5228 89.6671C8.11181 87.4099 4.92191 84.5079 2.95315 80.9361C0.984382 77.3767 0 73.2468 0 68.5588C0 58.9472 3.60109 48.7402 10.8157 37.938C25.083 16.6436 40.1104 5.99023 55.9104 5.99023H56.2718C61.3432 5.99023 65.5175 7.45368 68.7946 10.393C72.0717 13.3323 73.7165 17.2885 73.7165 22.2742V23.5144L73.704 23.5268Z" fill="#F0997B"/>
<path d="M106.65 65.7433C105.778 66.6115 104.806 67.0083 103.734 66.9339C102.663 66.8595 101.566 66.6363 100.457 66.2766C99.348 65.917 98.1892 65.6069 97.0055 65.3341C95.8093 65.0612 94.6255 65.1976 93.4293 65.7433C91.8343 66.5371 90.9621 67.6036 90.8126 68.9431C90.6506 70.2825 90.8126 71.8079 91.2861 73.507C91.7596 75.2061 92.4325 76.9672 93.3047 78.7779C94.1769 80.601 94.8747 82.3497 95.3856 84.0488C95.8965 85.7479 96.0834 87.3106 95.9214 88.7368C95.7594 90.163 94.9246 91.2668 93.4168 92.0606C91.1116 93.3256 88.794 94.1937 86.4514 94.665C84.1088 95.1363 82.0279 94.4666 80.1962 92.6435C76.6948 89.0841 74.2401 85.3882 72.8071 81.556C71.3742 77.7237 70.7387 74.0155 70.9007 70.4065C71.0626 66.8099 71.9723 63.4737 73.642 60.3856C75.3117 57.2975 77.4923 54.6931 80.1962 52.5599C81.2304 51.7662 82.3768 51.0965 83.6478 50.5508C84.9188 49.9927 86.1897 49.6826 87.4607 49.5958C88.7317 49.5214 89.903 49.695 90.9746 50.1291C92.0462 50.5632 92.8561 51.3693 93.4168 52.5599C93.6536 53.118 93.7159 53.6885 93.5913 54.2838C93.4667 54.8791 93.3172 55.4496 93.1178 56.0077C92.9184 56.5658 92.8063 57.0991 92.7564 57.6076C92.719 58.1284 92.9309 58.6121 93.4168 59.0958C94.2891 59.9639 95.3856 60.398 96.6939 60.398C98.0023 60.398 99.0988 59.9639 99.9711 59.0958C100.445 58.6245 100.631 58.1036 100.507 57.5579C100.382 56.9998 100.233 56.4294 100.033 55.8341C99.834 55.2388 99.672 54.6683 99.5599 54.1102C99.4353 53.5645 99.5723 53.0436 99.9711 52.5723C100.843 51.6297 101.878 51.2329 103.074 51.3817C104.27 51.5429 105.454 51.9398 106.65 52.5723C107.759 53.1304 108.556 53.9613 109.03 55.0651C109.503 56.1689 109.728 57.3719 109.69 58.6865C109.653 60.0012 109.354 61.2786 108.793 62.5436C108.232 63.8086 107.522 64.8752 106.65 65.7433Z" fill="#F0997B"/>
<path d="M133.103 80.2042H121.179V44.6598H133.103V56.5286H156.891V68.3354H133.103V80.2042H168.815V92.073H133.103V80.2042ZM168.815 44.6598H133.103V32.791H168.815V44.6598H180.74V56.5286H168.815V44.6598ZM168.815 68.3354H180.74V80.2042H168.815V68.3354Z" fill="#F0997B"/>
<path d="M221.224 32.7295H221.511C226.819 32.7295 230.507 35.8176 232.563 41.9939C233.809 39.253 235.205 36.4501 236.75 33.5976C237.684 33.5976 238.856 33.6845 240.264 33.8581C241.672 34.0317 243.08 34.5526 244.475 35.4207C245.871 36.2889 247.055 37.7275 248.027 39.7367C247.017 41.3986 245.721 43.879 244.126 47.2027C242.531 50.5265 241.011 54.1727 239.528 58.1414C238.282 61.4651 237.124 65.0617 236.039 68.9436C234.955 72.8254 234.407 76.05 234.407 78.642C234.407 79.8822 234.594 80.8744 234.955 81.6185C235.317 82.3751 235.915 82.7719 236.725 82.8091H236.787C238.257 82.8091 239.902 81.9534 241.734 80.2295C243.553 78.518 245.285 76.4717 246.918 74.1277C248.55 71.7713 249.846 69.5389 250.818 67.4181C251.366 67.4181 251.815 67.5298 252.188 67.7406C252.562 67.9514 252.836 68.2119 253.036 68.5219C253.235 68.832 253.36 69.142 253.447 69.4521C253.534 69.7621 253.584 70.1218 253.621 70.5559C251.491 75.1446 249.397 78.8777 247.341 81.7301C245.285 84.5826 243.279 86.7654 241.323 88.266C239.366 89.7667 237.522 90.7837 235.803 91.3046C234.083 91.8254 232.513 92.0859 231.118 92.0859C228.526 92.0859 226.432 91.0565 224.862 88.9854C223.292 86.9142 222.395 83.9749 222.158 80.1551C217.772 85.674 213.025 89.3574 207.904 91.2177C206.159 91.8006 204.489 92.0859 202.907 92.0859C199.219 91.9743 196.303 90.4116 194.147 87.3979C191.992 84.3842 190.92 80.3411 190.92 75.2439C190.92 73.4331 191.069 71.4984 191.381 69.4521C192.777 61.2295 195.854 53.751 200.602 47.0167C205.349 40.2824 210.695 35.8176 216.626 33.61C218.258 33.0271 219.791 32.7419 221.224 32.7419V32.7295ZM225.124 42.0559C224.85 41.8574 224.327 41.7706 223.554 41.7706C223.093 41.7706 222.57 41.845 221.984 42.0063C217.174 44.2386 212.651 49.8444 208.427 58.7987C207.106 61.7752 206.159 64.2928 205.573 66.3888C204.452 70.4815 203.891 73.9292 203.891 76.7569C203.891 80.1551 204.701 82.375 206.334 83.4168C206.882 83.6897 207.418 83.8261 207.966 83.8261C208.552 83.8261 209.075 83.7145 209.536 83.4788C214.308 81.2465 218.807 75.6407 223.031 66.6864C223.616 65.409 224.102 64.2804 224.489 63.2758C224.875 62.2713 225.074 61.7504 225.074 61.7132L225.012 61.8248C225.361 60.6714 225.735 59.5428 226.121 58.4638C227.13 54.7556 227.629 51.5559 227.629 48.8522C227.629 45.454 226.794 43.1969 225.124 42.0807V42.0559Z" fill="#F0997B"/>
<path d="M286.106 26.3915C286.418 26.3171 286.879 26.1931 287.477 26.0318C288.075 25.8706 288.711 25.697 289.384 25.4985C290.056 25.3001 290.692 25.1389 291.29 25.0273C291.888 24.9032 292.299 24.8536 292.536 24.8536C294.119 24.8536 295.527 25.3745 296.76 26.3915C297.994 27.4209 298.604 28.7603 298.604 30.4222C298.604 32.0841 298.069 33.3739 296.997 34.2792C295.925 35.1846 294.629 35.9163 293.122 36.4744C291.614 37.0325 290.069 37.5286 288.474 37.9626C286.879 38.3967 285.62 39.0168 284.661 39.7982C284.262 45.4163 283.664 51.0469 282.879 56.6898C282.082 62.3452 281.284 68.0129 280.499 73.7055C279.702 79.398 278.991 85.103 278.356 90.8328C277.72 96.5625 277.409 102.28 277.409 107.96C277.409 109.535 276.848 110.937 275.739 112.164C274.63 113.392 273.272 114 271.69 114C269.31 114 267.515 113.032 266.332 111.098C265.135 109.163 264.325 106.893 263.889 104.277C263.453 101.672 263.254 99.0057 263.291 96.2773C263.329 93.5488 263.353 91.3536 263.353 89.6918C263.353 82.821 263.69 75.9999 264.363 69.2407C265.036 62.4816 265.372 55.6604 265.372 48.7897L265.247 47.3634C264.774 47.5247 264.151 47.7231 263.403 47.9587C262.643 48.1944 261.896 48.43 261.135 48.6656C260.375 48.9013 259.665 49.0997 258.992 49.2609C258.319 49.4222 257.746 49.4966 257.26 49.4966C255.591 49.4966 254.145 48.8889 252.912 47.6611C251.678 46.4333 251.067 45.0318 251.067 43.4568C251.067 41.3236 251.902 39.6989 253.572 38.5952C255.242 37.4914 257.061 36.5364 259.055 35.7551C261.036 34.9613 262.868 34.18 264.537 33.3863C266.207 32.5925 267.042 31.4143 267.042 29.8269C267.042 28.4006 267.154 26.6519 267.403 24.556C267.64 22.46 268.113 20.4633 268.836 18.5658C269.546 16.6683 270.518 15.0436 271.752 13.7042C272.985 12.3647 274.555 11.6826 276.462 11.6826C278.368 11.6826 279.801 12.1167 280.985 12.9848C282.169 13.853 283.103 14.9444 283.789 16.2466C284.462 17.5488 284.935 18.9874 285.222 20.5749C285.496 22.1624 285.633 23.663 285.633 25.0769C285.633 25.4737 285.795 25.9078 286.106 26.3791V26.3915Z" fill="#F0997B"/>
<path d="M302.393 90.1508C306.28 89.7539 308.71 89.0222 309.682 87.968C310.654 86.9138 311.14 84.3962 311.14 80.4151V21.6044C312.274 23.6136 313.358 25.3623 314.38 26.8629C316.872 30.3975 318.853 32.295 320.311 32.5555V80.4275C320.311 84.7311 320.921 87.3727 322.13 88.3649C323.264 89.2082 325.569 89.8035 329.058 90.1756V92.0855H302.393V90.1756V90.1508ZM314.317 12.5757L308 6.28786L314.317 0L320.635 6.28786L314.317 12.5757Z" fill="#F0997B"/>
<path d="M333.307 38.0121H351.81L352.384 38.6446V42.8985H356.732L357.368 43.531V47.847H367.262V38.6322L367.835 37.9997H386.339L386.974 38.6322V42.8861H391.31L391.884 43.5186V61.9357L391.31 62.5682H386.974V71.783L386.339 72.4155H382.065V76.6694L381.429 77.3019H377.093V86.5167L376.52 87.1492H372.183V91.4031L371.548 92.0356H357.954L357.38 91.4031V87.1492H353.032L352.396 86.5167V82.1883H348.122L347.487 81.6179V77.3019H343.15L342.577 76.6694V67.4547H338.229L337.593 66.8842V57.6074H333.319L332.684 57.0369V38.6198L333.319 37.9873L333.307 38.0121ZM337.581 42.8985V52.7458H341.929L342.565 53.3783V62.593H346.839L347.474 63.1635V72.4403H351.81L352.384 73.0108V77.3267H356.732L357.368 77.9592V82.2132H362.277V77.9592L362.913 77.3267H367.262V73.0108L367.835 72.4403H372.183V63.1635L372.819 62.593H377.093V53.3783L377.728 52.7458H382.077V42.8985H372.183V52.1133L371.548 52.7458H367.274V61.9605L366.639 62.593H362.302V71.8078L361.729 72.4403H357.954L357.38 71.8078V62.593H353.032L352.396 61.9605V52.7458H348.122L347.487 52.1133V42.8985H337.593H337.581Z" fill="#F0997B"/>
<path d="M410.799 64.9246C410.326 66.7477 409.94 68.3847 409.665 69.8482C409.391 71.3116 409.329 72.8371 409.491 74.4122C409.802 76.781 410.7 78.6413 412.17 79.9807C413.64 81.3201 415.285 82.1759 417.117 82.5355C418.948 82.8952 420.793 82.7588 422.662 82.1263C424.531 81.4938 425.976 80.39 427.01 78.8025C427.97 78.0956 428.992 77.5623 430.113 77.2026C431.222 76.843 432.256 76.7686 433.216 76.967C434.163 77.1654 434.998 77.6243 435.72 78.3312C436.431 79.0381 436.917 80.1047 437.153 81.531C437.39 83.1928 436.879 84.8051 435.608 86.3926C434.337 87.98 432.792 89.3939 430.96 90.6589C429.129 91.9239 427.185 92.9905 425.129 93.8586C423.06 94.7268 421.353 95.2353 420.008 95.3965C416.83 95.7934 413.877 95.6073 411.136 94.8632C408.394 94.1067 405.952 92.9037 403.809 91.2418C401.666 89.5799 399.896 87.5088 398.513 85.0159C397.118 82.5231 396.233 79.7451 395.834 76.6569C395.361 72.7875 395.573 68.732 396.495 64.5029C397.404 60.2738 398.974 56.3795 401.205 52.8201C403.423 49.2607 406.189 46.2842 409.478 43.8658C412.768 41.4598 416.568 40.0584 420.855 39.6615C424.506 39.3515 427.309 39.9592 429.253 41.497C431.197 43.0349 432.393 45.0192 432.83 47.4252C433.266 49.8436 433.041 52.386 432.169 55.0773C431.297 57.7686 429.889 60.1002 427.945 62.0721C426.001 64.044 423.559 65.4082 420.618 66.1648C417.677 66.9213 414.425 66.4996 410.849 64.9246H410.799ZM412.706 58.5127C413.503 58.5127 414.45 58.4383 415.559 58.277C416.668 58.1158 417.727 57.7686 418.712 57.2105C419.709 56.6524 420.494 55.809 421.092 54.6556C421.69 53.5146 421.864 51.9148 421.627 49.856C420.755 50.0173 419.858 50.4141 418.948 51.0466C418.039 51.6791 417.142 52.4481 416.269 53.3534C415.397 54.2588 414.637 55.1765 414.002 56.0819C413.366 56.9872 412.93 57.8058 412.693 58.5127H412.706Z" fill="#F0997B"/>
<path d="M533.161 100.927C532.314 100.779 531.816 100.369 531.666 99.6997C531.517 99.03 531.816 98.4967 532.563 98.0998C532.763 94.4288 533.261 90.8198 534.058 87.2976C534.856 83.7754 535.479 80.1664 535.928 76.4954C536.376 72.8244 536.488 69.1657 536.264 65.5443C536.04 61.9229 535.803 58.2891 535.554 54.6677C535.454 52.7826 535.379 50.9347 535.329 49.1116C535.28 47.3009 535.255 45.4529 535.255 43.5554C535.255 43.0097 535.23 42.6377 535.18 42.4392C534.333 43.1338 533.647 44.0267 533.124 45.1181C532.601 46.2095 532.14 47.2512 531.741 48.2434C531.093 49.6821 530.557 51.1827 530.133 52.7578C529.71 54.3204 529.149 55.8211 528.451 57.2721C527.853 58.4627 527.168 59.6161 526.395 60.7323C525.623 61.8485 525.112 63.0763 524.863 64.4157C524.763 64.6142 524.613 64.8622 524.414 65.1599C524.364 65.5071 524.202 65.8048 523.928 66.0528C523.654 66.3009 523.293 66.4249 522.844 66.4249C522.744 66.5241 522.582 66.5241 522.358 66.4249C522.134 66.3257 521.922 66.2761 521.723 66.2761H516.178C515.181 66.2761 514.234 66.2016 513.337 66.0528C512.938 66.3505 512.464 66.4745 511.916 66.4249C511.418 66.3257 511.019 66.0776 510.72 65.6808C510.421 65.2839 510.097 64.9118 509.748 64.5646C509.05 63.7212 508.427 62.9027 507.879 62.1089C507.331 61.3152 506.807 60.4471 506.309 59.5045C506.01 58.9092 505.649 58.0907 505.225 57.0489C504.801 56.0071 504.328 54.8909 503.804 53.7003C503.281 52.5097 502.72 51.3191 502.122 50.1161C501.524 48.9255 500.901 47.8838 500.253 46.9908C500.452 48.8759 500.59 50.7486 500.664 52.6213C500.739 54.4817 500.851 56.3544 501.001 58.2519C501.25 61.9725 501.561 65.7056 501.935 69.4262C502.309 73.1468 502.621 76.9046 502.87 80.6749C502.87 80.9229 502.932 81.7663 503.057 83.2049C503.181 84.6435 503.293 86.2682 503.393 88.0913C503.493 89.902 503.555 91.7003 503.58 93.4986C503.605 95.2845 503.543 96.6736 503.393 97.6781C503.692 98.075 503.754 98.5339 503.58 99.0548C503.406 99.5757 502.994 99.8857 502.346 99.9849C501.051 99.9849 499.643 99.9353 498.11 99.8361C496.59 99.7369 495.069 99.6873 493.549 99.6873C492.029 99.6873 490.521 99.7865 489.051 99.9849C487.581 100.183 486.223 100.58 484.964 101.176C484.814 101.424 484.603 101.61 484.329 101.734C484.054 101.858 483.793 101.87 483.543 101.771C482.896 101.82 482.397 101.572 482.048 101.027C481.699 100.481 481.799 99.9353 482.347 99.3896C482.397 85.3257 482.472 71.3361 482.572 57.4334C482.671 43.5306 482.746 29.5287 482.796 15.4771C482.696 15.1794 482.646 14.919 482.646 14.6958C482.646 14.4725 482.746 14.1873 482.945 13.84C483.244 13.4928 483.606 13.2571 484.029 13.1331C484.453 13.0091 484.914 12.9471 485.413 12.9471C485.911 12.9471 486.397 12.9843 486.87 13.0587C487.344 13.1331 487.755 13.1703 488.104 13.1703C490.995 13.1207 493.861 13.0339 496.677 12.9099C499.493 12.7858 502.334 12.699 505.175 12.6494C505.873 12.8975 506.284 13.2819 506.409 13.8028C506.533 14.3237 506.396 14.7826 505.997 15.1794C507.542 17.511 508.639 19.7434 509.287 21.8518C509.935 23.9601 510.408 26.0933 510.707 28.2264C511.007 30.3596 511.256 32.5672 511.455 34.8244C511.654 37.0815 512.103 39.5123 512.801 42.092C513.1 43.1338 513.337 43.9275 513.511 44.4732C513.686 45.0189 513.897 45.5026 514.147 45.9242C514.396 46.3459 514.695 46.78 515.044 47.2264C515.393 47.6729 515.866 48.3426 516.464 49.2356C516.564 49.434 516.639 49.6076 516.689 49.7565C516.788 49.5084 516.85 49.2976 516.875 49.124C516.9 48.9503 516.938 48.8139 516.988 48.7147C517.386 47.4249 517.897 46.2467 518.52 45.1801C519.143 44.1135 519.804 43.0097 520.501 41.8687C521.698 39.8348 522.782 37.7016 523.754 35.4941C524.726 33.2865 525.673 31.0665 526.595 28.8589C527.517 26.6514 528.489 24.4562 529.51 22.2982C530.532 20.1403 531.716 18.0939 533.074 16.1468C532.675 15.7995 532.513 15.3655 532.588 14.8446C532.663 14.3237 533.049 13.9392 533.747 13.6912C535.242 13.3439 536.887 13.1331 538.694 13.0587C540.488 12.9843 542.32 12.9843 544.201 13.0587C546.083 13.1331 547.915 13.2323 549.746 13.3563C551.566 13.4804 553.273 13.5672 554.88 13.6168C555.229 13.7656 555.528 13.964 555.777 14.2121C555.827 14.2617 555.877 14.2989 555.927 14.3237C555.977 14.3485 556.026 14.3857 556.076 14.4353C557.023 16.7669 557.671 19.1977 558.02 21.7029C558.369 24.2082 558.556 26.7506 558.581 29.3054C558.606 31.8603 558.543 34.4275 558.394 36.9823C558.244 39.5371 558.12 42.0424 558.02 44.4732C557.472 57.1977 556.799 69.8106 556.002 82.3368C555.902 84.0731 555.79 85.4993 555.665 86.6155C555.54 87.7317 555.428 88.7362 555.329 89.6292C555.229 90.5221 555.142 91.4151 555.067 92.308C554.992 93.201 554.93 94.2924 554.88 95.5822C554.83 95.9791 554.718 96.4255 554.544 96.9216C554.369 97.4177 554.182 97.9386 553.983 98.4843C554.631 98.5835 555.079 99.0052 555.329 99.7493C555.329 100.196 555.204 100.717 554.955 101.312C554.706 101.907 554.369 102.391 553.945 102.763C553.522 103.135 553.061 103.333 552.562 103.358C552.064 103.383 551.59 103.048 551.142 102.354C551.042 102.205 550.955 102.044 550.88 101.87C550.805 101.696 550.743 101.51 550.693 101.312C548.102 101.114 545.46 100.865 542.793 100.568C540.127 100.27 537.485 100.295 534.893 100.642C534.445 100.89 534.021 100.94 533.622 100.791C533.523 100.841 533.448 100.865 533.398 100.865C533.348 100.865 533.273 100.89 533.174 100.94L533.161 100.927ZM513.698 50.327C513.698 50.327 513.723 50.4014 513.773 50.4014L513.698 50.327Z" fill="#F0997B"/>
<path d="M591.813 13.481C592.835 13.2825 593.707 13.1709 594.417 13.1709C597.183 13.1709 599.675 13.6794 601.931 14.6964C605.706 16.5319 607.6 19.5332 607.6 23.7003C607.6 25.8334 608.111 27.5697 609.133 28.8843C610.354 30.509 610.977 35.8047 610.977 44.759V47.3511C610.977 56.2061 611.588 61.3902 612.821 62.9157C615.986 66.7851 617.569 69.5756 617.569 71.3119C617.569 72.4281 616.597 72.9862 614.653 72.9862C613.531 72.9862 612.148 72.8373 610.516 72.5273C606.329 71.6095 604.223 70.2329 604.223 68.4098C604.223 67.7029 603.912 67.2936 603.301 67.1944C602.691 67.0952 602.13 67.4052 601.619 68.1122C600.897 68.9307 599.364 69.6624 597.021 70.3197C594.666 70.977 592.212 71.3119 589.657 71.3119C586.38 71.3119 583.626 70.7538 581.371 69.6376C578.405 68.1121 576.412 66.4131 575.39 64.5279C574.368 62.6428 573.857 59.6663 573.857 55.5984C573.857 51.9398 574.368 49.6454 575.39 48.7277C579.165 45.1683 585.209 43.3824 593.483 43.3824H595.626C599.513 43.5932 602.018 43.8413 603.139 44.1389L604.984 44.7466L604.523 41.088C604.012 37.5286 603.501 35.0358 602.99 33.6095C602.479 32.1833 601.557 31.0671 600.224 30.2486C598.791 29.3308 596.598 28.8719 593.632 28.8719H590.106C585.508 28.9712 582.567 29.3556 581.284 30.0129C580 30.6826 578.393 32.6298 576.449 35.8915C574.817 38.744 573.434 40.1702 572.312 40.1702C571.702 40.1702 571.315 39.9966 571.166 39.637C571.016 39.2773 570.941 38.5456 570.941 37.417C571.041 35.4823 571.726 32.915 573.01 29.7153C574.281 26.5155 575.44 24.5064 576.461 23.6879C578.816 21.8524 581.807 19.7192 585.433 17.276C589.059 14.8328 591.19 13.5678 591.8 13.4561L591.813 13.481ZM583.066 64.6148C582.854 64.1063 582.343 63.8582 581.533 63.8582C580.922 63.8582 580.71 64.1063 580.922 64.6148C581.122 65.024 581.633 65.2225 582.455 65.2225C583.065 65.2225 583.277 65.024 583.066 64.6148ZM602.853 51.791C602.853 51.3817 599.987 51.1833 594.268 51.1833C589.458 51.1833 586.392 51.4065 585.072 51.8654C583.738 52.3243 582.717 53.5273 582.006 55.4496C581.807 55.8589 581.695 56.4666 581.695 57.2851C581.695 59.5299 584.76 61.1546 590.891 62.1715C591.302 62.2708 591.813 62.3204 592.423 62.3204C593.445 62.3204 594.616 61.7127 595.95 60.4849C597.271 59.4679 598.766 57.8928 600.398 55.7473C602.03 53.6141 602.853 52.2871 602.853 51.7786V51.791ZM602.853 20.5005C601.831 18.3674 599.326 17.3008 595.339 17.3008C593.196 17.3008 591.551 17.7101 590.43 18.5286L588.436 20.0541L594.417 20.5129C598.193 20.7238 600.759 21.0214 602.08 21.4307C602.903 21.6415 603.326 21.7159 603.389 21.6539C603.438 21.6043 603.264 21.2199 602.853 20.5129V20.5005ZM602.541 62.4072C603.663 61.4398 604.223 60.5965 604.223 59.8896C604.223 59.1826 604.074 58.823 603.762 58.823C603.252 58.823 602.329 59.6415 600.996 61.2662C599.563 63.0025 599.102 63.8582 599.613 63.8582C600.435 63.8582 601.395 63.3746 602.529 62.4072H602.541Z" fill="#F0997B"/>
<path d="M668.795 66.4503C667.673 67.5664 666.415 68.0749 665.044 67.9757C663.661 67.8765 662.253 67.5912 660.832 67.1324C659.399 66.6735 657.917 66.2642 656.384 65.917C654.851 65.5573 653.319 65.7433 651.786 66.4503C649.742 67.4672 648.621 68.8439 648.409 70.5678C648.21 72.304 648.409 74.2512 649.02 76.4463C649.63 78.6415 650.502 80.8987 651.624 83.2427C652.745 85.5867 653.643 87.8439 654.303 90.039C654.963 92.2342 655.2 94.2309 654.988 96.0664C654.776 97.902 653.705 99.3282 651.773 100.345C648.808 101.97 645.817 103.098 642.802 103.706C639.786 104.314 637.107 103.446 634.752 101.114C630.254 96.5377 627.089 91.7753 625.245 86.8393C623.401 81.9033 622.591 77.1285 622.79 72.4901C623.002 67.8641 624.173 63.5606 626.317 59.5919C628.46 55.6232 631.276 52.2623 634.752 49.5214C636.073 48.5044 637.568 47.6363 639.201 46.9294C640.833 46.2224 642.478 45.8132 644.11 45.7016C645.743 45.6023 647.25 45.8256 648.633 46.3837C650.017 46.9418 651.063 47.9835 651.773 49.509C652.085 50.2159 652.16 50.96 651.998 51.7166C651.848 52.4855 651.636 53.2172 651.387 53.9365C651.138 54.6435 650.976 55.338 650.926 55.9953C650.876 56.6526 651.15 57.2975 651.773 57.9052C652.895 59.0214 654.303 59.5795 655.985 59.5795C657.667 59.5795 659.075 59.0214 660.197 57.9052C660.807 57.2975 661.044 56.6402 660.882 55.9209C660.733 55.214 660.521 54.4698 660.272 53.7133C660.01 52.9444 659.811 52.2127 659.661 51.4933C659.511 50.7864 659.686 50.1167 660.197 49.509C661.318 48.2936 662.652 47.7851 664.184 47.9835C665.717 48.182 667.249 48.6905 668.782 49.509C670.215 50.2159 671.237 51.2949 671.847 52.7087C672.458 54.135 672.745 55.6852 672.695 57.3595C672.645 59.0338 672.259 60.6957 671.548 62.3204C670.838 63.945 669.916 65.3217 668.782 66.4379L668.795 66.4503Z" fill="#F0997B"/>
<path d="M748.828 85.0531H733.476V69.7738H702.848V100.333H687.497V24.0225H702.848V54.5812H733.476V69.7862H748.828V85.0655H764.179V100.345H748.828V85.0655V85.0531ZM733.476 39.2894H748.828V54.5688H733.476V39.2894ZM748.828 24.0225H764.179V39.3018H748.828V24.0225Z" fill="#F0997B"/>
<path d="M798.595 65.3838C797.985 67.7278 797.499 69.8361 797.137 71.7213C796.776 73.6064 796.701 75.5659 796.913 77.5999C797.324 80.6508 798.471 83.0444 800.365 84.7683C802.259 86.5046 804.377 87.5959 806.732 88.0548C809.087 88.5137 811.455 88.3401 813.86 87.5215C816.264 86.703 818.134 85.2891 819.454 83.2428C820.688 82.3251 822.009 81.6429 823.442 81.1841C824.875 80.7252 826.208 80.626 827.429 80.874C828.65 81.1221 829.734 81.7173 830.644 82.6227C831.566 83.5405 832.177 84.9171 832.488 86.7402C832.8 88.8734 832.127 90.9569 830.494 93.0033C828.862 95.0372 826.868 96.8727 824.513 98.4974C822.158 100.122 819.654 101.499 817 102.615C814.345 103.731 812.14 104.388 810.408 104.599C806.321 105.108 802.508 104.884 798.982 103.917C795.455 102.95 792.315 101.399 789.549 99.2663C786.783 97.1332 784.515 94.4543 782.721 91.2546C780.926 88.0548 779.78 84.4582 779.269 80.4895C778.659 75.5039 778.933 70.295 780.116 64.8505C781.288 59.406 783.306 54.3955 786.172 49.8192C789.038 45.2428 792.589 41.3982 796.826 38.2976C801.063 35.1971 805.947 33.3864 811.467 32.8779C816.165 32.4687 819.778 33.2624 822.283 35.2467C824.787 37.2311 826.32 39.7735 826.881 42.874C827.442 45.9745 827.167 49.2611 826.033 52.7213C824.912 56.1814 823.093 59.1828 820.588 61.7252C818.084 64.2676 814.944 66.0287 811.156 66.9961C807.368 67.9634 803.181 67.4301 798.583 65.3962L798.595 65.3838ZM801.05 57.1364C802.072 57.1364 803.293 57.0372 804.726 56.8264C806.159 56.6279 807.505 56.169 808.788 55.4497C810.059 54.7428 811.093 53.639 811.853 52.1632C812.614 50.6873 812.85 48.6286 812.539 45.9869C811.417 46.1978 810.258 46.7063 809.087 47.5124C807.916 48.3309 806.757 49.3231 805.636 50.4889C804.514 51.6547 803.542 52.8329 802.72 53.9987C801.897 55.1645 801.337 56.2063 801.038 57.124L801.05 57.1364Z" fill="#F0997B"/>
<path d="M844.463 46.644H835.853V44.4984C841.721 43.4566 847.466 38.6198 853.085 29.9755C857.982 22.4351 860.823 15.4899 861.609 9.11523H864.736V37.0819H878.829V46.6316H864.736V78.7902C865.197 82.8829 866.954 84.9292 870.019 84.9292C872.437 84.9292 875.365 83.6022 878.829 80.9357L880 83.1805C874.842 87.1492 870.767 90.4233 867.764 93.0278L857.384 102.094C855.428 98.9064 852.649 95.9175 849.061 93.127C844.949 89.9396 841.298 88.3522 838.095 88.3522V86.2066C842.332 86.2066 844.463 84.0611 844.463 79.7699V46.6316V46.644Z" fill="#F0997B"/>
</svg>
