<svg width="1254" height="343" viewBox="0 0 1254 343" fill="none" xmlns="http://www.w3.org/2000/svg">
<g filter="url(#filter0_d_694_702)">
<path d="M214.943 66.636C212.924 86.7988 201.552 106.962 180.864 127.159C162.23 145.496 142.462 157.825 121.632 164.218C115.007 166.22 110.544 167.239 108.17 167.239C104.628 167.239 102.821 165.237 102.821 161.197C102.821 161.689 103.423 158.598 104.592 151.854C106.116 143.283 109.091 137.065 113.484 133.201C115.503 132.183 121.526 128.74 131.551 122.874C144.588 114.654 154.507 107.172 161.309 100.428C170.803 90.8384 177.25 80.0896 180.651 68.1465V64.6338C180.651 54.5524 173.885 49.4942 160.317 49.4942C151.319 49.4942 141.754 52.0936 131.587 57.3274C107.852 69.5867 85.2145 92.1029 63.6757 124.911C57.2282 134.677 51.2058 145.32 45.6086 156.947C41.3575 165.518 39.1611 176.021 38.984 188.456C38.6297 212.834 49.7534 226.955 72.2841 230.818C73.4532 230.818 75.2244 231.064 77.4917 231.556C79.7944 232.048 81.5302 232.294 82.6993 232.294C95.5942 232.294 108.206 228.184 120.569 219.929C132.083 212.201 141.01 202.366 147.28 190.423C150.327 190.423 155.003 191.933 161.273 194.954C168.571 198.502 172.716 202.19 173.743 206.054C168.323 222.88 155.605 236.72 135.59 247.644C117.452 257.726 98.8888 262.784 79.9006 262.784C65.4824 262.784 52.5166 259.833 41.0032 253.967C28.4625 247.574 19.3935 239.354 13.7963 229.238C8.19902 219.156 5.40039 207.459 5.40039 194.181C5.40039 166.958 15.6384 138.049 36.1499 107.453C76.7123 47.1407 119.436 16.9668 164.356 16.9668H165.383C179.801 16.9668 191.669 21.1118 200.986 29.4368C210.303 37.7618 214.979 48.9673 214.979 63.0882V66.6009L214.943 66.636Z" fill="white"/>
<path d="M308.607 186.207C306.127 188.666 303.364 189.79 300.317 189.579C297.271 189.369 294.153 188.736 291 187.718C287.847 186.699 284.553 185.821 281.187 185.048C277.787 184.275 274.421 184.662 271.02 186.207C266.486 188.455 264.006 191.476 263.581 195.27C263.12 199.064 263.581 203.384 264.927 208.196C266.273 213.009 268.186 217.997 270.666 223.125C273.146 228.289 275.13 233.242 276.582 238.054C278.035 242.867 278.566 247.293 278.105 251.332C277.645 255.372 275.271 258.498 270.985 260.746C264.431 264.329 257.842 266.788 251.182 268.123C244.522 269.458 238.606 267.561 233.398 262.397C223.443 252.316 216.465 241.848 212.391 230.994C208.317 220.14 206.51 209.637 206.971 199.415C207.431 189.228 210.017 179.779 214.764 171.032C219.511 162.286 225.711 154.909 233.398 148.867C236.338 146.619 239.598 144.722 243.211 143.177C246.824 141.596 250.438 140.718 254.051 140.472C257.665 140.261 260.995 140.753 264.041 141.983C267.088 143.212 269.391 145.495 270.985 148.867C271.658 150.448 271.835 152.064 271.481 153.75C271.126 155.436 270.701 157.052 270.135 158.633C269.568 160.213 269.249 161.724 269.107 163.164C269.001 164.639 269.603 166.009 270.985 167.379C273.465 169.838 276.582 171.068 280.302 171.068C284.021 171.068 287.139 169.838 289.619 167.379C290.965 166.044 291.496 164.569 291.142 163.023C290.788 161.443 290.363 159.827 289.796 158.141C289.229 156.455 288.768 154.839 288.45 153.258C288.095 151.713 288.485 150.237 289.619 148.903C292.099 146.233 295.039 145.109 298.44 145.53C301.841 145.987 305.206 147.111 308.607 148.903C311.76 150.483 314.027 152.837 315.373 155.963C316.719 159.089 317.357 162.497 317.251 166.22C317.144 169.943 316.294 173.562 314.7 177.144C313.106 180.727 311.087 183.748 308.607 186.207Z" fill="white"/>
<path d="M383.816 227.165H349.914V126.491H383.816V160.108H451.444V193.548H383.816V227.165H485.347V260.781H383.816V227.165ZM485.347 126.491H383.816V92.875H485.347V126.491H519.249V160.108H485.347V126.491ZM485.347 193.548H519.249V227.165H485.347V193.548Z" fill="white"/>
<path d="M634.352 92.6992H635.166C650.258 92.6992 660.744 101.446 666.589 118.939C670.132 111.176 674.099 103.237 678.492 95.1581C681.149 95.1581 684.479 95.404 688.482 95.8958C692.485 96.3875 696.488 97.8629 700.456 100.322C704.424 102.781 707.789 106.855 710.552 112.546C707.683 117.253 703.999 124.278 699.464 133.692C694.93 143.106 690.608 153.433 686.392 164.674C682.849 174.088 679.555 184.275 676.473 195.269C673.391 206.264 671.832 215.397 671.832 222.739C671.832 226.251 672.363 229.061 673.391 231.169C674.418 233.312 676.118 234.436 678.421 234.541H678.598C682.779 234.541 687.455 232.117 692.662 227.235C697.834 222.387 702.759 216.591 707.399 209.952C712.04 203.278 715.724 196.956 718.488 190.949C720.046 190.949 721.322 191.265 722.384 191.862C723.447 192.459 724.227 193.197 724.793 194.075C725.36 194.953 725.714 195.831 725.962 196.71C726.21 197.588 726.352 198.607 726.458 199.836C720.401 212.833 714.449 223.406 708.604 231.485C702.759 239.564 697.055 245.747 691.493 249.997C685.931 254.247 680.688 257.128 675.8 258.603C670.911 260.078 666.447 260.816 662.48 260.816C655.111 260.816 649.159 257.901 644.696 252.034C640.232 246.168 637.682 237.843 637.008 227.024C624.539 242.656 611.041 253.088 596.481 258.357C591.522 260.008 586.775 260.816 582.276 260.816C571.79 260.5 563.5 256.074 557.372 247.538C551.243 239.002 548.196 227.551 548.196 213.114C548.196 207.985 548.621 202.506 549.507 196.71C553.475 173.421 562.225 152.239 575.722 133.165C589.219 114.091 604.417 101.446 621.279 95.1932C625.92 93.5423 630.278 92.7343 634.352 92.7343V92.6992ZM645.44 119.115C644.66 118.553 643.173 118.307 640.976 118.307C639.665 118.307 638.178 118.517 636.513 118.974C622.838 125.297 609.979 141.174 597.969 166.536C594.214 174.966 591.522 182.097 589.857 188.033C586.669 199.625 585.074 209.39 585.074 217.399C585.074 227.024 587.377 233.312 592.018 236.262C593.577 237.035 595.1 237.422 596.659 237.422C598.324 237.422 599.811 237.105 601.122 236.438C614.69 230.115 627.479 214.238 639.488 188.876C641.153 185.258 642.535 182.062 643.633 179.217C644.731 176.371 645.298 174.896 645.298 174.791L645.121 175.107C646.113 171.84 647.176 168.643 648.274 165.587C651.143 155.084 652.56 146.022 652.56 138.364C652.56 128.739 650.187 122.346 645.44 119.185V119.115Z" fill="white"/>
<path d="M818.81 74.7492C819.696 74.5384 821.007 74.1871 822.707 73.7305C824.408 73.2738 826.214 72.7821 828.127 72.22C830.04 71.658 831.847 71.2014 833.548 70.8852C835.248 70.534 836.417 70.3934 837.09 70.3934C841.589 70.3934 845.592 71.8688 849.099 74.7492C852.607 77.6647 854.342 81.4584 854.342 86.1653C854.342 90.8723 852.819 94.5255 849.772 97.0897C846.726 99.654 843.042 101.726 838.755 103.307C834.469 104.888 830.076 106.293 825.541 107.522C821.007 108.752 817.429 110.508 814.701 112.721C813.567 128.634 811.867 144.581 809.635 160.564C807.368 176.582 805.101 192.634 802.869 208.758C800.602 224.881 798.582 241.039 796.776 257.268C794.969 273.496 794.083 289.69 794.083 305.778C794.083 310.239 792.489 314.208 789.336 317.686C786.183 321.163 782.322 322.884 777.823 322.884C771.057 322.884 765.955 320.144 762.59 314.665C759.189 309.185 756.886 302.757 755.646 295.345C754.407 287.968 753.84 280.416 753.946 272.688C754.052 264.96 754.123 258.743 754.123 254.036C754.123 234.576 755.08 215.256 756.993 196.112C758.906 176.968 759.862 157.648 759.862 138.188L759.508 134.148C758.162 134.605 756.39 135.167 754.265 135.835C752.104 136.502 749.978 137.169 747.817 137.837C745.656 138.504 743.637 139.066 741.724 139.523C739.811 139.979 738.182 140.19 736.8 140.19C732.053 140.19 727.944 138.469 724.436 134.991C720.929 131.514 719.193 127.545 719.193 123.084C719.193 117.042 721.567 112.44 726.314 109.314C731.061 106.188 736.233 103.483 741.901 101.27C747.534 99.0217 752.741 96.8087 757.489 94.5606C762.236 92.3125 764.609 88.9755 764.609 84.4793C764.609 80.4397 764.928 75.4868 765.636 69.5504C766.31 63.614 767.656 57.9586 769.71 52.5842C771.73 47.2098 774.493 42.6082 778 38.8145C781.507 35.0208 785.971 33.0889 791.391 33.0889C796.811 33.0889 800.885 34.3183 804.251 36.7772C807.616 39.236 810.273 42.3272 812.221 46.0155C814.134 49.7038 815.48 53.7785 816.295 58.2747C817.075 62.7709 817.464 67.0213 817.464 71.0257C817.464 72.1498 817.925 73.3792 818.81 74.714V74.7492Z" fill="white"/>
<path d="M865.106 255.337C876.159 254.213 883.067 252.14 885.831 249.154C888.594 246.169 889.975 239.038 889.975 227.762V61.1909C893.199 66.8814 896.281 71.8343 899.186 76.0846C906.271 86.0958 911.904 91.4702 916.049 92.2078V227.797C916.049 239.986 917.785 247.468 921.221 250.278C924.445 252.667 930.998 254.353 940.917 255.407V260.816H865.106V255.407V255.337ZM899.009 35.6186L881.048 17.8093L899.009 0L916.97 17.8093L899.009 35.6186Z" fill="white"/>
<path d="M953.006 107.663H1005.61L1007.24 109.454V121.503H1019.61L1021.41 123.294V135.519H1049.54V109.419L1051.17 107.628H1103.78L1105.58 109.419V121.468H1117.91L1119.54 123.259V175.423L1117.91 177.214H1105.58V203.313L1103.78 205.105H1091.63V217.153L1089.82 218.945H1077.49V245.044L1075.86 246.835H1063.53V258.884L1061.73 260.675H1023.08L1021.45 258.884V246.835H1009.08L1007.28 245.044V232.784H995.127L993.32 231.169V218.945H980.992L979.362 217.153V191.054H966.999L965.192 189.438V163.163H953.041L951.234 161.547V109.384L953.041 107.593L953.006 107.663ZM965.157 121.503V149.394H977.52L979.327 151.185V177.284H991.478L993.285 178.9V205.175H1005.61L1007.24 206.791V219.015H1019.61L1021.41 220.806V232.855H1035.37V220.806L1037.18 219.015H1049.54V206.791L1051.17 205.175H1063.53V178.9L1065.34 177.284H1077.49V151.185L1079.3 149.394H1091.66V121.503H1063.53V147.602L1061.73 149.394H1049.58V175.493L1047.77 177.284H1035.44V203.383L1033.81 205.175H1023.08L1021.45 203.383V177.284H1009.08L1007.28 175.493V149.394H995.127L993.32 147.602V121.503H965.192H965.157Z" fill="white"/>
<path d="M1173.32 183.889C1171.97 189.052 1170.87 193.689 1170.09 197.834C1169.31 201.979 1169.14 206.3 1169.6 210.761C1170.48 217.47 1173.03 222.739 1177.21 226.533C1181.39 230.326 1186.07 232.75 1191.28 233.769C1196.48 234.787 1201.73 234.401 1207.04 232.61C1212.36 230.818 1216.46 227.692 1219.4 223.196C1222.13 221.193 1225.04 219.683 1228.23 218.664C1231.38 217.646 1234.32 217.435 1237.05 217.997C1239.74 218.559 1242.11 219.859 1244.17 221.861C1246.19 223.863 1247.57 226.884 1248.24 230.924C1248.91 235.631 1247.46 240.197 1243.85 244.693C1240.24 249.189 1235.84 253.194 1230.63 256.777C1225.43 260.36 1219.9 263.381 1214.06 265.84C1208.18 268.298 1203.32 269.739 1199.5 270.195C1190.46 271.319 1182.07 270.792 1174.27 268.685C1166.48 266.542 1159.54 263.135 1153.44 258.428C1147.35 253.721 1142.32 247.855 1138.39 240.794C1134.42 233.734 1131.9 225.865 1130.77 217.119C1129.42 206.159 1130.03 194.673 1132.65 182.695C1135.23 170.716 1139.7 159.686 1146.04 149.605C1152.34 139.524 1160.21 131.093 1169.56 124.244C1178.91 117.429 1189.72 113.46 1201.9 112.336C1212.28 111.457 1220.26 113.179 1225.78 117.534C1231.31 121.89 1234.71 127.51 1235.95 134.325C1237.19 141.175 1236.55 148.376 1234.07 155.998C1231.59 163.621 1227.59 170.225 1222.06 175.81C1216.54 181.395 1209.59 185.259 1201.23 187.402C1192.87 189.544 1183.62 188.35 1173.46 183.889H1173.32ZM1178.74 165.728C1181 165.728 1183.7 165.518 1186.85 165.061C1190 164.604 1193.01 163.621 1195.81 162.04C1198.65 160.459 1200.88 158.071 1202.58 154.804C1204.28 151.572 1204.77 147.041 1204.1 141.21C1201.62 141.666 1199.07 142.791 1196.48 144.582C1193.9 146.373 1191.35 148.551 1188.87 151.116C1186.39 153.68 1184.23 156.279 1182.42 158.843C1180.61 161.408 1179.37 163.726 1178.7 165.728H1178.74Z" fill="white"/>
</g>
<defs>
<filter id="filter0_d_694_702" x="0.00039053" y="0" width="1253.8" height="342.285" filterUnits="userSpaceOnUse" color-interpolation-filters="sRGB">
<feFlood flood-opacity="0" result="BackgroundImageFix"/>
<feColorMatrix in="SourceAlpha" type="matrix" values="0 0 0 0 0 0 0 0 0 0 0 0 0 0 0 0 0 0 127 0" result="hardAlpha"/>
<feOffset dy="14"/>
<feGaussianBlur stdDeviation="2.7"/>
<feComposite in2="hardAlpha" operator="out"/>
<feColorMatrix type="matrix" values="0 0 0 0 0 0 0 0 0 0 0 0 0 0 0 0 0 0 0.45 0"/>
<feBlend mode="normal" in2="BackgroundImageFix" result="effect1_dropShadow_694_702"/>
<feBlend mode="normal" in="SourceGraphic" in2="effect1_dropShadow_694_702" result="shape"/>
</filter>
</defs>
</svg>
