<svg width="191" height="4" viewBox="0 0 191 4" fill="none" xmlns="http://www.w3.org/2000/svg">
<path d="M1.77059 0.101216C2.84558 -0.00755 4.24095 -0.0144007 5.30923 0.015764C5.63985 0.0251747 5.4826 0.138099 5.70903 0.149505C5.79461 0.153733 5.88034 0.154537 5.96662 0.15327C6.31676 0.148504 6.66777 0.107333 7.02376 0.132774C7.17479 0.143538 6.99376 0.31883 7.1529 0.326261C7.99714 0.366992 8.80293 0.296083 9.66342 0.305402C13.8935 0.354979 18.0549 0.357559 22.3072 0.379664C23.7419 0.386913 25.407 0.521027 26.8859 0.439741C27.0517 0.430165 26.9514 0.283753 26.9828 0.271292C27.479 0.0804207 27.3165 0.379605 27.6464 0.415957C28.9801 0.559236 30.4315 0.560182 31.6804 0.493233C32.2221 0.464251 31.6747 0.175839 32.2252 0.335801C32.2636 0.346602 32.1258 0.504222 32.2762 0.51973C32.6293 0.554484 33.2306 0.521902 33.4949 0.532334C33.9938 0.553303 34.0774 0.551117 34.5591 0.549422C35.203 0.548589 35.9516 0.621223 36.66 0.581071C36.8107 0.57204 36.6099 0.412901 36.8504 0.384011C37.0975 0.355113 37.6968 0.364866 37.9102 0.401358C38.1195 0.437885 38.0314 0.564562 38.0686 0.593236C38.3736 0.835303 39.1025 0.492926 39.1985 0.484006C40.8694 0.331594 42.3405 0.516103 43.9249 0.507567C45.149 0.500597 46.3581 0.433089 47.536 0.434594C47.5512 0.434619 47.5665 0.434657 47.5817 0.434708C48.9056 0.439908 50.137 0.52186 51.4242 0.502002C51.5633 0.50008 51.3995 0.312038 51.5695 0.30931C53.4034 0.280409 55.1789 0.294885 57.0198 0.416442C57.1985 0.428819 56.9687 0.595187 57.1474 0.617457C58.2317 0.750142 60.0326 1.07191 60.6742 0.348932C61.4167 0.375006 62.3306 0.401638 63.0121 0.545242C63.4517 0.637667 63.0248 0.819224 63.5657 0.74083C63.6879 0.723361 63.5285 0.565737 63.7119 0.551491C64.4585 0.491728 65.2838 0.541064 66.0388 0.457615C66.1924 0.44027 66.1502 0.298768 66.1937 0.273165C66.5589 0.0657889 67.1737 0.405734 67.3082 0.430234C68.3004 0.612938 69.0315 0.53854 69.9741 0.541052C70.193 0.541715 69.9338 0.352059 70.1445 0.345867C71.2559 0.316261 72.3404 0.330432 73.4135 0.412769C73.6508 0.431545 73.4329 0.593982 73.5463 0.611245C74.047 0.68539 74.1578 0.379168 74.641 0.444388C74.743 0.457745 74.6858 0.596552 74.7044 0.611751C74.9989 0.850328 75.2379 0.511073 75.3127 0.503457C76.2385 0.399568 76.8358 0.752231 77.7439 0.700599C77.8527 0.694065 77.6071 0.518983 77.9129 0.511348C79.9391 0.459472 82.0907 0.504366 84.0804 0.641918C84.3904 0.663067 84.1693 0.795217 84.1888 0.811441C84.5073 1.06493 84.7133 0.724396 84.8148 0.711442C85.6152 0.618091 86.3695 0.902416 86.9194 0.49644C90.2897 0.632655 93.6894 0.401255 97.0482 0.761006C97.0909 0.76517 97.0146 0.932815 97.0997 0.940399C98.1254 1.03349 97.9286 0.773247 98.61 0.454084C98.7816 0.37394 99.306 0.758009 99.3526 0.786155C99.5218 0.889874 99.3466 1.13933 99.4033 1.1594C99.8702 1.31694 99.8022 0.492551 100.423 0.491728C100.442 0.493085 100.36 0.644908 100.413 0.659949C100.575 0.707174 100.737 0.646731 100.896 0.698827C101.261 0.819379 101.391 1.21987 101.95 0.986242C102.021 0.955922 101.912 0.488352 102.473 0.50997C102.696 0.518983 103.689 0.510149 103.969 0.540233C104.247 0.570279 104.056 0.721136 104.076 0.727646C104.829 0.926325 104.542 1.00915 104.915 1.30388C105.286 1.59751 105.183 0.89657 105.334 0.818208C105.486 0.740067 106.031 0.90407 106.165 0.961128C106.299 1.01821 106.132 1.1141 106.252 1.14636C107.043 1.35719 106.599 0.798142 106.859 0.686685C107.475 0.422779 107.956 0.942315 108.523 0.992859C108.677 1.00651 108.551 0.88819 108.688 0.877021C109.232 0.834353 109.548 0.996354 110.158 0.847208C110.258 0.822903 110.75 0.510009 111.07 0.739185C111.116 0.772233 110.987 0.901869 111.216 0.930741C111.558 0.974071 112.175 1.002 112.545 0.958463C112.818 0.926255 112.505 0.712974 112.848 0.779077C113.001 0.808594 112.718 0.933651 113.005 0.978688C113.29 1.02371 114.022 1.01779 114.294 1.01332C114.568 1.00875 114.418 0.846906 114.44 0.835985C114.574 0.773415 115.101 0.695028 115.148 0.695195C117.506 0.674083 119.683 0.945927 121.982 0.854535C122.162 0.847598 122.042 0.676895 122.069 0.674076C122.689 0.602252 122.201 1.05648 122.634 1.20824C122.571 0.861756 122.826 0.924383 123.264 0.886189C123.475 0.867503 123.36 0.733379 123.379 0.719636C123.688 0.515707 123.903 0.778843 123.959 0.832667C124.164 1.03066 124.387 0.79652 124.526 0.928863C124.666 1.06022 124.345 1.25516 124.76 1.25249C124.877 1.1284 124.568 0.804379 124.884 0.751713C126.071 0.552494 128.323 0.805974 129.27 0.832067C130.226 0.858129 130.536 0.835142 131.095 0.879785C132.105 0.96051 131.735 0.720131 132.363 0.609847C132.994 0.499579 132.688 1.09142 132.779 1.2186C132.868 1.34573 132.965 1.21481 133.076 1.28467C133.186 1.35452 132.948 1.44109 133.207 1.46725C133.464 1.49339 134.168 1.26697 134.26 1.13393C134.453 0.852079 134.135 0.556415 134.818 0.660138C134.857 0.666294 134.73 0.821928 134.88 0.83761C136.074 0.957056 137.326 0.96415 138.521 1.0698C138.685 1.08457 138.538 1.25771 138.634 1.26826C139.627 1.37874 139.272 1.08696 139.817 0.762609C139.695 1.19411 139.996 1.45801 140.752 1.46039C141.207 1.46197 141.129 1.27355 141.423 1.14067C141.511 1.10061 141.834 1.22993 141.892 1.1413C142.085 0.851562 141.781 0.527328 142.563 0.656297C142.598 0.662427 142.488 0.821025 142.607 0.830604C143.376 0.893308 143.462 0.590273 144.287 0.553419C144.933 0.524501 146.084 0.709071 146.823 0.739C146.807 1.2241 147.505 1.1129 147.789 0.778393C148.271 0.792009 148.783 0.773022 149.245 0.819184C149.404 0.834922 149.3 0.975386 149.32 0.990559C149.627 1.22857 149.834 0.903144 149.937 0.890372C151.055 0.766204 151.968 1.01271 153.04 0.771554C153.078 0.762869 153.14 0.425896 153.426 0.671899C153.445 0.688857 153.093 0.842211 153.594 0.854008C154.094 0.865831 155.04 1.04636 155.738 0.890148C155.906 0.85254 156.334 0.57895 156.677 0.792642C156.722 0.82166 156.672 0.918307 156.738 0.972079C156.952 1.14342 157.068 0.802817 157.319 1.09214C157.569 1.38145 158.094 1.59809 158.797 1.3984C158.819 1.3926 158.985 1.12264 159.206 1.12689C159.558 1.1339 160.059 1.1901 160.427 1.18831C160.604 1.18736 160.491 1.01974 160.522 1.01667C161.708 0.922655 162.555 1.07203 163.83 1.13681C164.062 1.14902 164.731 0.9204 165.182 1.10109C165.677 1.2989 165.168 2.12186 166.307 1.92574C166.767 1.8473 167.348 0.80323 168.176 1.34412C169.781 1.21001 171.255 1.48681 172.864 1.29538C172.937 1.2869 173.165 0.995508 173.335 0.999469C173.588 1.00591 173.727 1.1421 173.907 1.15107C174.662 1.19207 175.35 1.07554 176.077 1.09365C176.353 1.10023 176.256 1.24105 176.586 1.24892C176.915 1.25665 177.134 1.07122 177.58 1.16077C177.917 1.22903 178.254 1.60804 178.702 1.65221C178.719 1.27835 179.027 1.28605 179.573 1.18736C179.678 1.16821 179.565 1.03809 179.615 1.02232C179.816 0.955252 180.003 1.06309 180.195 0.990087C180.241 0.972554 180.243 0.84488 180.281 0.823339C180.605 0.635313 181.139 0.922499 181.231 0.972502C181.583 1.1624 181.747 0.996348 182.017 1.07113C182.286 1.1459 181.883 1.23938 182.198 1.28475C182.85 1.3786 183.688 1.35798 184.351 1.36384C184.616 1.3654 184.435 1.19497 184.473 1.19124C185.02 1.14801 185.571 1.32929 185.874 0.989818C186.253 1.86757 186.204 0.904681 186.984 1.08039C187.046 1.0946 187.124 1.50969 186.888 1.57063C186.652 1.63151 186.294 1.50176 185.966 1.59675C185.889 1.61904 185.445 2.008 185.384 2.03156C184.909 2.2157 184.842 1.59542 184.817 1.56135C184.532 1.19369 183.988 1.61272 183.845 1.64168C183.19 1.77435 182.633 1.68712 182.086 1.78182C181.728 1.84303 181.693 2.24934 181.412 2.2369C180.478 2.1958 180.153 1.629 179.273 2.12046C179.083 2.22528 179.271 2.66937 178.594 2.32018C178.551 2.29816 178.048 1.97872 177.758 2.18078C177.721 2.20626 177.723 2.33568 177.675 2.34655C177.352 2.41689 177.137 2.31378 176.786 2.36317C176.435 2.41256 176.014 2.48618 175.613 2.44229C175.372 2.41604 175.063 2.17492 174.947 2.11589C174.621 1.94583 174.273 2.22467 174.07 2.01874C173.865 1.81177 174.265 1.49744 173.729 1.36372C173.709 1.69997 173.664 2.04509 173.632 2.38325C172.458 2.37144 171.305 2.26274 170.13 2.27763C169.985 2.27982 170.134 2.46058 169.978 2.46758C169.32 2.49632 168.745 2.36748 168.059 2.41882C167.529 2.45926 166.948 2.65068 166.395 2.69893C166.057 2.31418 165.236 2.44484 164.641 2.40971C164.432 2.39757 164.446 2.29481 164.298 2.26129C163.738 2.13734 164 2.47733 163.847 2.53085C163.187 2.75926 163.13 1.98966 162.351 2.00873C162.31 2.00948 161.806 2.41974 161.737 2.44529C161.296 2.61191 161.664 2.30251 161.388 2.27222C160.884 2.21687 160.534 2.11892 159.945 2.23913C159.773 2.27473 159.36 2.53046 159.027 2.33271C158.983 2.30681 159.007 2.17122 158.972 2.16328C158.333 2.03097 158.314 2.45703 157.947 2.60136C157.58 2.74565 157.013 2.45159 156.897 2.36683C156.596 2.14758 157.129 2.2731 157.145 2.25158C157.337 1.99547 156.923 2.0396 156.608 2.01799C156.562 1.60024 156.121 1.62535 156.281 1.99727C156.299 2.03789 156.544 1.99891 156.608 2.01799C156.331 2.42789 155.846 2.48043 155.311 2.09746C155.061 1.91797 155.297 1.70864 154.537 1.78529C154.193 1.8199 154.326 2.10753 154.022 2.18599C153.33 2.36499 152.418 2.09678 151.7 2.13915C151.439 2.15453 151.693 2.31196 151.515 2.32789C151.042 2.37069 150.625 2.2526 150.151 2.31319C150.108 2.31888 150.213 2.48369 150.065 2.48581C148.948 2.50511 147.976 2.39969 146.803 2.39696C146.238 2.39571 145.228 2.4868 144.645 2.46863C143.636 2.43811 142.386 2.19869 141.518 2.2571C140.952 2.29449 141.076 2.45932 140.834 2.5717C140.367 2.78953 139.542 2.39972 139.431 2.33935C139.428 2.33736 139.913 2.29838 139.654 2.21381C139.503 2.03752 139.436 2.33859 139.431 2.33935C139.358 2.30036 138.39 2.26317 138.199 2.29473C138.095 2.31198 138.153 2.46816 138.098 2.4742C136.793 2.6143 135.492 2.65435 134.179 2.5817C134.156 2.57855 134.191 2.40383 134.137 2.39861C133.378 2.32115 132.89 2.53503 132.258 2.66212C131.627 2.78916 131.128 2.74684 130.756 2.44703C130.282 2.48495 129.602 2.35259 129.212 2.27227C128.822 2.19195 128.768 2.53206 128.734 2.5388C127.665 2.75437 127.032 2.55995 125.919 2.5301C125.388 2.51532 124.339 2.56508 123.769 2.60252C123.32 2.63267 123.042 2.55309 122.623 2.60424C122.566 2.61107 122.623 2.76247 122.606 2.76831C122.138 2.94969 122.363 2.57941 122.266 2.51334C121.916 2.27307 121.699 2.14512 121.101 2.2585C120.964 2.28447 120.563 2.81767 120.312 2.84897C119.986 2.88867 120.109 2.69756 119.769 2.74401C119.739 2.74781 119.745 2.86567 119.535 2.86058C118.567 2.83848 117.484 2.77046 116.468 2.78283C116.328 2.78407 116.507 2.97092 116.306 2.97579C115.361 2.99847 114.341 2.99214 113.418 2.90519C113.191 2.8832 113.333 2.75221 113.284 2.71338C112.981 2.47839 112.552 2.82035 112.481 2.82691C110.79 2.99216 109.533 2.68377 107.8 2.83223C107.706 2.84094 106.987 3.20777 106.667 2.89385C106.645 2.87297 106.328 2.55179 106.049 2.77176C106.032 2.78552 106.229 2.95084 105.885 2.93423C105.541 2.91767 104.991 3.02859 104.52 2.84716C104.368 2.79001 104.011 2.46967 103.561 2.72562C103.532 2.74348 102.839 3.32195 102.592 2.92344C102.552 2.85784 102.593 2.43586 102.06 2.65265C101.958 2.69467 102.143 2.78863 101.875 2.84763C101.464 2.93856 100.92 2.82602 100.418 3.01443C100.331 3.04778 99.9583 3.33451 99.6526 3.11742C99.605 3.08342 99.6952 2.94247 99.5348 2.92685C98.7723 2.85193 97.9779 2.94691 97.2114 2.8502C96.94 2.81622 97.0784 2.58835 96.7958 2.52761C96.5131 2.46688 95.9453 2.40877 95.6516 2.51314C95.3523 2.61755 95.6797 2.98016 95.231 3.00966C93.2752 3.13783 91.3949 2.92703 89.4413 2.89827C89.1546 2.89397 89.3922 3.02355 88.9702 3.02653C87.4322 3.03807 84.7137 3.16349 83.3825 2.8895C82.311 2.67003 83.6598 2.49979 82.839 2.41104C82.435 2.36873 82.0008 2.79134 81.904 2.80477C80.9576 2.94114 80.3047 2.75525 79.4648 2.81395C79.2915 2.82613 79.4617 2.99688 79.3143 3.00536C78.8174 3.03583 78.2673 2.9604 77.7806 2.97519C77.5614 2.98222 77.602 3.11277 77.4006 3.10304C76.919 3.08124 76.495 3.02708 76.0295 2.90548C75.9871 2.8944 76.2727 2.73141 75.9197 2.72599C75.3503 2.71769 74.6414 2.59821 73.971 2.7242C73.7737 2.7621 73.7661 3.06064 73.3426 2.85529C73.2539 2.8124 73.3657 2.45371 72.8751 2.76439C72.7921 2.81602 71.9706 3.23542 71.5702 2.96694C71.4634 2.89628 71.1974 2.60348 70.9593 2.65007C70.9268 2.6575 71.0571 2.81758 70.8589 2.83363C70.1607 2.88741 69.4349 2.87184 68.73 2.92362C68.5418 2.93776 68.8224 3.10308 68.5421 3.11886C67.7767 3.16249 66.8071 3.12246 66.0422 3.07235C65.7617 3.05356 65.9552 2.91564 65.9347 2.90073C65.6062 2.65822 65.4142 2.98709 65.306 3.0065C64.631 3.12281 64.1327 2.96979 63.5075 3.01222C63.3334 3.02352 63.4573 3.17978 63.4226 3.19384C63.064 3.33118 63.3306 3.04929 63.1036 3.01888C62.4679 2.93276 61.7666 2.94723 61.1369 2.96898C60.9057 2.9772 61.166 3.15804 60.9586 3.16332C59.7434 3.19799 58.4083 3.18455 57.2258 3.08816C57.0015 3.06969 57.1421 2.92944 57.0953 2.89765C56.7794 2.67523 56.2805 2.98157 56.1724 3.01095C55.6659 3.14514 55.4701 3.02215 55.0279 3.04672C52.8915 3.16874 50.1876 3.09706 48.1553 3.05528C47.9482 3.05103 47.7458 3.04635 47.5474 3.04136C45.1365 2.98354 43.2425 2.88258 40.8862 2.92759C40.7245 2.93052 40.8885 3.11559 40.7493 3.1205C38.9883 3.17532 37.1948 3.11379 35.3934 3.18005C35.2477 3.18515 35.4587 3.36 35.2254 3.3741C34.7615 3.40416 34.1147 3.39925 33.6281 3.34659C33.3888 3.32126 33.7082 3.16756 33.4676 3.14515C32.9123 3.0926 32.3142 3.08468 31.7278 3.11768C31.4816 3.13209 31.8544 3.3094 31.5347 3.31408C29.362 3.34967 27.246 3.40015 25.0447 3.19042C24.8941 3.17602 24.7503 2.81105 24.4283 2.88492C24.4051 2.9869 24.4078 3.10653 24.3984 3.21536C21.2547 3.3093 18.1016 3.22431 14.943 3.26568C14.8112 3.26747 15.0421 3.45718 14.788 3.46162C13.3054 3.488 11.8377 3.57493 10.3134 3.42584C10.16 3.41147 10.2272 3.06752 9.78719 3.13252C9.70208 3.14437 9.03646 3.21112 8.86518 3.29131C8.8427 3.30327 8.96714 3.4586 8.75659 3.47039C7.88771 3.51655 6.99615 3.53987 6.1113 3.5369C5.70882 3.53559 5.31047 3.52844 4.91801 3.51545C4.71622 3.50832 4.92225 3.32924 4.77939 3.32266C3.74573 3.27829 2.64067 3.45839 1.65616 3.35727C0.999159 3.28958 1.22415 2.9833 0.8591 2.71518C0.807528 2.67727 0.401685 2.69575 0.37019 2.52939C0.289689 2.11087 0.458113 1.63659 0.349089 1.19193C0.325479 1.09608 -0.213388 1.23484 0.0948063 0.980392C0.115911 0.963281 0.508695 0.860704 0.602184 0.775456C0.666946 0.716432 0.533188 0.553229 0.669108 0.474491C0.804491 0.395902 0.967958 0.529784 1.19426 0.434193C1.42192 0.337702 1.30844 0.148798 1.77059 0.101216ZM127.45 1.91329C127.086 1.75011 127.032 2.34832 127.426 2.20505C127.445 2.19742 127.469 1.9213 127.45 1.91329ZM171.312 1.81153C170.838 1.5477 170.514 1.93567 170.848 2.13943C171.182 2.34297 171.456 1.89151 171.312 1.81153ZM176.227 1.61879C175.673 1.41078 175.586 2.25903 176.179 2.08754C176.214 2.07785 176.259 1.63087 176.227 1.61879ZM2.46916 2.54556C2.4639 2.53782 2.17163 2.54481 2.16539 2.55306C2.02007 2.75063 2.60289 2.73655 2.46916 2.54556ZM181.104 1.40902C180.931 1.29428 180.434 1.42674 180.649 1.56943C180.821 1.68421 181.32 1.55176 181.104 1.40902ZM108.539 1.28484C108.533 1.27593 108.322 1.26805 108.326 1.31844C108.34 1.48071 108.634 1.43471 108.539 1.28484ZM189.394 1.39924C188.168 1.36731 187.426 0.66661 188.76 0.745677C189.002 0.759982 188.239 0.969125 188.547 1.0323C189.11 1.14739 189.483 0.707432 190.058 0.943186C190.162 0.986336 189.464 1.40262 189.392 1.40022C189.393 1.39989 189.393 1.39956 189.394 1.39924ZM127.24 1.19487C127.233 1.18696 126.941 1.17957 126.934 1.18742C126.776 1.37739 127.364 1.39238 127.24 1.19487ZM96.2739 0.925351C96.2572 0.90851 95.5897 0.893425 95.5653 0.908982C95.2159 1.21989 96.5718 1.2513 96.2739 0.925351ZM146.834 0.751938C147.152 0.560836 147.533 0.53828 147.787 0.778149C147.471 0.765464 147.152 0.76364 146.834 0.751938Z" fill="black"/>
</svg>
