<svg width="211" height="29" viewBox="0 0 211 29" fill="none" xmlns="http://www.w3.org/2000/svg">
<path d="M18.8477 25.1953C18.8086 25.4167 18.7174 25.5729 18.5742 25.6641C18.444 25.7682 18.3203 25.9115 18.2031 26.0938H18.125C17.9948 26.0938 17.8646 26.1068 17.7344 26.1328C17.6172 26.1589 17.4935 26.1914 17.3633 26.2305C17.2982 26.2044 17.2201 26.1849 17.1289 26.1719C17.0378 26.1589 16.9792 26.1133 16.9531 26.0352C16.849 26.0872 16.7057 26.1133 16.5234 26.1133C16.224 26.1133 15.9375 26.0286 15.6641 25.8594C15.4036 25.6901 15.1302 25.5599 14.8438 25.4688C14.7656 25.3125 14.668 25.1693 14.5508 25.0391C14.4466 24.9219 14.3359 24.8047 14.2188 24.6875C14.1146 24.5703 14.0104 24.4466 13.9062 24.3164C13.8021 24.1862 13.7174 24.0299 13.6523 23.8477C13.6263 23.7695 13.5938 23.724 13.5547 23.7109C13.5156 23.6979 13.457 23.6979 13.3789 23.7109C13.3919 23.5677 13.3724 23.444 13.3203 23.3398C13.2812 23.2357 13.1836 23.1706 13.0273 23.1445C13.0273 22.9753 13.0013 22.832 12.9492 22.7148C12.8971 22.5977 12.832 22.4935 12.7539 22.4023C12.6888 22.3242 12.6107 22.2396 12.5195 22.1484C12.4414 22.0573 12.3763 21.9466 12.3242 21.8164C12.207 21.7904 12.0898 21.7708 11.9727 21.7578C11.8685 21.7578 11.7513 21.7578 11.6211 21.7578C10.9961 21.7578 10.3906 21.875 9.80469 22.1094C9.73958 22.1354 9.66797 22.168 9.58984 22.207C9.52474 22.2461 9.45964 22.2786 9.39453 22.3047C9.36849 22.3047 9.34245 22.3047 9.31641 22.3047C9.30339 22.3177 9.28385 22.3242 9.25781 22.3242C9.16667 22.3242 9.08203 22.3047 9.00391 22.2656C8.92578 22.2396 8.84115 22.2266 8.75 22.2266C8.71094 22.2266 8.66536 22.2331 8.61328 22.2461C8.57422 22.2721 8.53516 22.2917 8.49609 22.3047C8.30078 22.3698 8.11849 22.4089 7.94922 22.4219C7.41536 22.526 6.84896 22.6042 6.25 22.6562C5.66406 22.7083 5.1237 22.8451 4.62891 23.0664C4.52474 23.1185 4.45964 23.1966 4.43359 23.3008C4.40755 23.418 4.40104 23.5286 4.41406 23.6328C4.27083 23.737 4.16016 23.8737 4.08203 24.043C4.01693 24.2122 3.95182 24.388 3.88672 24.5703C3.83464 24.7656 3.77604 24.9544 3.71094 25.1367C3.64583 25.319 3.55469 25.4753 3.4375 25.6055C3.47656 25.6836 3.49609 25.7682 3.49609 25.8594C3.49609 26.0547 3.43099 26.25 3.30078 26.4453C3.17057 26.6406 3.07292 26.8294 3.00781 27.0117C2.94271 27.194 2.89062 27.3698 2.85156 27.5391C2.8125 27.7214 2.75391 27.8841 2.67578 28.0273C2.59766 28.1706 2.49349 28.2878 2.36328 28.3789C2.22005 28.4701 2.02474 28.5156 1.77734 28.5156C1.54297 28.5156 1.34115 28.4701 1.17188 28.3789C1.0026 28.2878 0.865885 28.1706 0.761719 28.0273C0.657552 27.8841 0.572917 27.7148 0.507812 27.5195C0.442708 27.3242 0.390625 27.1289 0.351562 26.9336C0.494792 26.6471 0.63151 26.3997 0.761719 26.1914C0.891927 25.9831 0.989583 25.7161 1.05469 25.3906C1.28906 25.2214 1.46484 25.013 1.58203 24.7656C1.6862 24.5312 1.74479 24.2708 1.75781 23.9844C1.90104 23.8932 2.00521 23.7695 2.07031 23.6133C2.1224 23.4701 2.15495 23.3138 2.16797 23.1445C1.85547 23.1185 1.52995 23.0924 1.19141 23.0664C0.839844 23.0404 0.514323 22.9753 0.214844 22.8711C0.214844 22.8451 0.221354 22.819 0.234375 22.793C0.234375 22.7669 0.234375 22.7409 0.234375 22.7148C0.234375 22.5456 0.195312 22.3893 0.117188 22.2461C0.0390625 22.1159 0 21.9727 0 21.8164V21.6602C0.104167 21.556 0.201823 21.4453 0.292969 21.3281C0.371094 21.224 0.455729 21.1263 0.546875 21.0352C0.638021 20.944 0.742188 20.8659 0.859375 20.8008C0.976562 20.7487 1.1263 20.7227 1.30859 20.7227C1.55599 20.7227 1.79688 20.7357 2.03125 20.7617C2.26562 20.8008 2.50651 20.8203 2.75391 20.8203C2.92318 20.8203 3.09896 20.8008 3.28125 20.7617C3.56771 20.1758 3.82161 19.5833 4.04297 18.9844C4.26432 18.3724 4.43359 17.7539 4.55078 17.1289C4.64193 16.9987 4.72656 16.849 4.80469 16.6797C4.88281 16.4974 4.94141 16.3086 4.98047 16.1133C5.03255 15.918 5.0651 15.7292 5.07812 15.5469C5.10417 15.3516 5.11719 15.1758 5.11719 15.0195C5.26042 14.8503 5.35807 14.6419 5.41016 14.3945C5.47526 14.1471 5.52734 13.8932 5.56641 13.6328C5.60547 13.3594 5.64453 13.0924 5.68359 12.832C5.73568 12.5716 5.82682 12.3438 5.95703 12.1484V11.9727C5.97005 11.7773 5.95052 11.6016 5.89844 11.4453C5.96354 11.4193 6.0026 11.3607 6.01562 11.2695C6.02865 11.1784 6.05469 11.1003 6.09375 11.0352C6.10677 10.4362 6.17188 9.85026 6.28906 9.27734C6.40625 8.69141 6.50391 8.10547 6.58203 7.51953V7.46094C6.58203 7.39583 6.55599 7.36328 6.50391 7.36328C6.46484 7.35026 6.44531 7.3112 6.44531 7.24609C6.44531 7.12891 6.45833 6.97266 6.48438 6.77734C6.52344 6.58203 6.54948 6.41927 6.5625 6.28906C6.64062 5.58594 6.67969 4.88932 6.67969 4.19922C6.67969 3.61328 6.66016 3.03385 6.62109 2.46094C6.58203 1.88802 6.54297 1.30859 6.50391 0.722656L6.66016 0.488281C6.71224 0.410156 6.75781 0.332031 6.79688 0.253906C6.92708 0.201823 7.03125 0.14974 7.10938 0.0976562C7.20052 0.0325521 7.31771 0 7.46094 0C7.5 0 7.53255 0.00651042 7.55859 0.0195312C7.58464 0.0195312 7.61068 0.0195312 7.63672 0.0195312C7.71484 0.0716146 7.77344 0.143229 7.8125 0.234375C7.86458 0.325521 7.91016 0.410156 7.94922 0.488281C8.0013 0.566406 8.06641 0.63151 8.14453 0.683594C8.22266 0.735677 8.33333 0.748698 8.47656 0.722656C8.54167 1.08724 8.72396 1.27604 9.02344 1.28906C9.08854 1.47135 9.16667 1.65365 9.25781 1.83594C9.36198 2.01823 9.4987 2.16146 9.66797 2.26562C9.65495 2.31771 9.64844 2.38932 9.64844 2.48047C9.64844 2.66276 9.6875 2.83854 9.76562 3.00781C9.85677 3.17708 9.96745 3.33333 10.0977 3.47656V3.51562C10.0977 3.65885 10.0456 3.75651 9.94141 3.80859C10.0586 3.9388 10.1432 4.09505 10.1953 4.27734C10.2474 4.45964 10.293 4.64844 10.332 4.84375C10.3711 5.02604 10.4167 5.20182 10.4688 5.37109C10.5339 5.54036 10.638 5.67057 10.7812 5.76172V5.82031C10.7812 5.88542 10.7552 5.92448 10.7031 5.9375C10.6641 5.95052 10.6445 5.98958 10.6445 6.05469C10.8789 6.48438 11.0417 6.95312 11.1328 7.46094C11.224 7.96875 11.3411 8.45703 11.4844 8.92578C11.5365 8.97786 11.5951 9.01042 11.6602 9.02344C11.7383 9.03646 11.7969 9.06901 11.8359 9.12109C11.7578 9.17318 11.7188 9.26432 11.7188 9.39453C11.7188 9.52474 11.6862 9.6224 11.6211 9.6875C11.7253 9.77865 11.7708 9.91536 11.7578 10.0977C11.7578 10.2669 11.8099 10.3906 11.9141 10.4688V10.5469C11.9141 10.599 11.901 10.6445 11.875 10.6836C11.849 10.7096 11.8359 10.7487 11.8359 10.8008V10.8789C11.9401 11.3346 12.0182 11.7904 12.0703 12.2461C12.1354 12.7018 12.2005 13.1576 12.2656 13.6133C12.3307 14.069 12.4023 14.5247 12.4805 14.9805C12.5586 15.4232 12.6693 15.8594 12.8125 16.2891C12.8255 16.3021 12.832 16.3216 12.832 16.3477C12.832 16.4128 12.806 16.4518 12.7539 16.4648C12.7018 16.4648 12.6758 16.4974 12.6758 16.5625C12.6758 16.6276 12.6953 16.7057 12.7344 16.7969C12.7865 16.875 12.8385 16.9401 12.8906 16.9922C12.8776 17.0443 12.8711 17.1224 12.8711 17.2266C12.8711 17.4219 12.9036 17.6107 12.9688 17.793C13.0469 17.9753 13.125 18.1576 13.2031 18.3398C13.2943 18.5091 13.3724 18.6914 13.4375 18.8867C13.5026 19.082 13.5286 19.2904 13.5156 19.5117C13.5938 19.6289 13.6914 19.7266 13.8086 19.8047C13.9388 19.8828 14.069 19.9544 14.1992 20.0195C14.3294 20.0846 14.4466 20.1628 14.5508 20.2539C14.668 20.3451 14.7461 20.4688 14.7852 20.625C14.681 20.7161 14.6094 20.8268 14.5703 20.957C14.5312 21.1003 14.4596 21.224 14.3555 21.3281C14.4466 21.5495 14.5508 21.7513 14.668 21.9336C14.7982 22.1289 14.9284 22.3177 15.0586 22.5L15.4688 23.0469C15.612 23.2292 15.7357 23.4245 15.8398 23.6328C15.9831 23.6328 16.0872 23.6719 16.1523 23.75C16.2174 23.8281 16.3216 23.8607 16.4648 23.8477C16.5169 23.9518 16.5365 24.069 16.5234 24.1992C16.7839 24.1081 17.0443 24.0625 17.3047 24.0625C17.4479 24.0625 17.5781 24.069 17.6953 24.082C17.8255 24.0951 17.9557 24.1016 18.0859 24.1016C18.2422 24.1016 18.3789 24.082 18.4961 24.043C18.5482 24.1211 18.5872 24.2057 18.6133 24.2969C18.6393 24.401 18.6589 24.5052 18.6719 24.6094L18.7305 24.9219C18.7565 25.026 18.7956 25.1172 18.8477 25.1953ZM11.4844 19.7852C11.3021 18.8867 11.1133 17.9948 10.918 17.1094C10.7357 16.2109 10.5729 15.306 10.4297 14.3945C10.3516 13.9128 10.293 13.431 10.2539 12.9492C10.2148 12.4674 10.1628 11.9922 10.0977 11.5234C10.0456 11.0417 9.96745 10.5664 9.86328 10.0977C9.77214 9.62891 9.63542 9.16667 9.45312 8.71094V8.67188C9.45312 8.63281 9.46615 8.60026 9.49219 8.57422C9.51823 8.54818 9.53125 8.5026 9.53125 8.4375V8.35938C9.36198 8.24219 9.24479 8.07943 9.17969 7.87109C9.11458 7.64974 9.05599 7.42188 9.00391 7.1875C8.96484 6.9401 8.90625 6.70573 8.82812 6.48438C8.76302 6.25 8.64583 6.05469 8.47656 5.89844C8.41146 6.65365 8.33984 7.40885 8.26172 8.16406C8.19661 8.90625 8.15104 9.65495 8.125 10.4102C7.99479 10.4883 7.91016 10.6185 7.87109 10.8008C7.83203 10.9831 7.8125 11.1458 7.8125 11.2891C7.8125 11.3932 7.81901 11.5039 7.83203 11.6211C7.84505 11.7253 7.87109 11.8359 7.91016 11.9531C7.67578 12.5391 7.50651 13.1445 7.40234 13.7695C7.29818 14.3815 7.18099 14.9935 7.05078 15.6055C7.03776 15.6445 7.01172 15.7357 6.97266 15.8789C6.94661 16.0091 6.91406 16.1458 6.875 16.2891C6.83594 16.4323 6.80339 16.5625 6.77734 16.6797C6.7513 16.7839 6.73828 16.8424 6.73828 16.8555C6.72526 16.9466 6.71875 17.0378 6.71875 17.1289C6.73177 17.2201 6.73828 17.3112 6.73828 17.4023L6.44531 17.6953C6.39323 18.1901 6.29557 18.6719 6.15234 19.1406C6.02214 19.5964 5.88542 20.0651 5.74219 20.5469C5.83333 20.5599 5.91797 20.5664 5.99609 20.5664C6.08724 20.5794 6.17839 20.5859 6.26953 20.5859C6.6862 20.5859 7.10286 20.5599 7.51953 20.5078C7.94922 20.4427 8.3724 20.3841 8.78906 20.332C8.93229 20.306 9.08203 20.2865 9.23828 20.2734C9.39453 20.2474 9.54427 20.2344 9.6875 20.2344C9.7526 20.2214 9.83073 20.2214 9.92188 20.2344C10.013 20.2344 10.0911 20.2279 10.1562 20.2148C10.2604 20.1888 10.3255 20.1497 10.3516 20.0977C10.3906 20.0326 10.4622 19.9935 10.5664 19.9805C10.6445 20.0195 10.7357 20.0391 10.8398 20.0391C10.957 20.0391 11.0677 20.013 11.1719 19.9609C11.276 19.9089 11.3802 19.8503 11.4844 19.7852ZM40.9766 17.1484C40.9505 17.3438 40.8789 17.4935 40.7617 17.5977C40.6576 17.7018 40.5339 17.7995 40.3906 17.8906C40.3255 17.8776 40.2604 17.8711 40.1953 17.8711C40.1432 17.8581 40.0846 17.8516 40.0195 17.8516C39.6159 17.8385 39.2318 17.8906 38.8672 18.0078C38.5156 18.125 38.151 18.2096 37.7734 18.2617C37.6432 18.2878 37.5195 18.3008 37.4023 18.3008C37.2982 18.2878 37.1875 18.2943 37.0703 18.3203C36.6536 18.3854 36.2109 18.4375 35.7422 18.4766C35.2734 18.5156 34.8047 18.5677 34.3359 18.6328C33.8672 18.6849 33.4049 18.7565 32.9492 18.8477C32.5065 18.9258 32.0898 19.043 31.6992 19.1992C31.6602 19.1732 31.6211 19.1471 31.582 19.1211C31.543 19.082 31.4974 19.0625 31.4453 19.0625C31.3151 19.0625 31.1914 19.082 31.0742 19.1211C30.957 19.1602 30.8398 19.1732 30.7227 19.1602C30.5924 19.2383 30.4492 19.2969 30.293 19.3359C30.1497 19.362 30 19.388 29.8438 19.4141C29.7005 19.4271 29.5573 19.4531 29.4141 19.4922C29.2708 19.5312 29.1341 19.6029 29.0039 19.707C28.8997 19.6549 28.7695 19.6289 28.6133 19.6289C28.4701 19.6159 28.3724 19.5638 28.3203 19.4727C28.0208 19.6159 27.7018 19.707 27.3633 19.7461C27.0378 19.7852 26.7057 19.7982 26.3672 19.7852C26.1458 19.7721 25.8919 19.7396 25.6055 19.6875C25.319 19.6354 25.0326 19.5638 24.7461 19.4727C24.4596 19.3685 24.1927 19.2513 23.9453 19.1211C23.6979 18.9779 23.5091 18.8086 23.3789 18.6133C23.2878 18.4831 23.2227 18.3398 23.1836 18.1836C23.1445 18.0273 23.0534 17.9102 22.9102 17.832C22.9492 17.5326 22.9948 17.2396 23.0469 16.9531C23.099 16.6667 23.151 16.3737 23.2031 16.0742C23.4635 15.8529 23.7109 15.6185 23.9453 15.3711C24.1797 15.1237 24.401 14.8633 24.6094 14.5898C24.8568 14.4727 25.0846 14.3294 25.293 14.1602C25.5143 13.9909 25.7292 13.8216 25.9375 13.6523C26.1589 13.4701 26.3737 13.2943 26.582 13.125C26.8034 12.9557 27.0378 12.806 27.2852 12.6758C27.3242 12.5846 27.3763 12.513 27.4414 12.4609C27.5195 12.3958 27.5977 12.3372 27.6758 12.2852C27.7539 12.2201 27.8255 12.1549 27.8906 12.0898C27.9557 12.0117 28.0013 11.9206 28.0273 11.8164C28.4831 11.543 28.8802 11.1979 29.2188 10.7812C29.5573 10.3646 29.7786 9.89583 29.8828 9.375C29.6615 9.19271 29.4076 9.07552 29.1211 9.02344C28.8477 8.95833 28.5612 8.91276 28.2617 8.88672C28.0013 8.8737 27.7279 8.8737 27.4414 8.88672C27.168 8.89974 26.888 8.89323 26.6016 8.86719C26.3151 8.95833 26.0156 9.01693 25.7031 9.04297C25.4036 9.06901 25.1042 9.09505 24.8047 9.12109C24.5052 9.13411 24.2057 9.17318 23.9062 9.23828C23.6198 9.29036 23.3398 9.39453 23.0664 9.55078C23.0143 9.55078 22.9622 9.54427 22.9102 9.53125C22.8711 9.51823 22.8255 9.51172 22.7734 9.51172C22.3568 9.4987 21.9661 9.58333 21.6016 9.76562C21.237 9.9349 20.8789 10.1042 20.5273 10.2734C20.5013 10.3255 20.4883 10.3646 20.4883 10.3906C20.4883 10.4688 20.5013 10.5469 20.5273 10.625C20.5664 10.6901 20.5859 10.7617 20.5859 10.8398C20.5729 10.8529 20.5664 10.8659 20.5664 10.8789C20.5664 10.8919 20.5599 10.9049 20.5469 10.918C20.5339 10.9831 20.5143 11.0417 20.4883 11.0938C20.4753 11.1458 20.4557 11.2044 20.4297 11.2695C20.2865 11.6862 20.2083 12.0964 20.1953 12.5C20.1823 12.8385 20.1823 13.1706 20.1953 13.4961C20.2083 13.8216 20.2083 14.1536 20.1953 14.4922C20.1693 14.9089 20.1042 15.2995 20 15.6641C20.0651 15.9766 20.1237 16.3086 20.1758 16.6602C20.2279 16.9987 20.293 17.3372 20.3711 17.6758C20.4492 18.0143 20.5404 18.3464 20.6445 18.6719C20.7617 18.9844 20.9115 19.2839 21.0938 19.5703C21.0807 19.5964 21.0872 19.6159 21.1133 19.6289C21.1393 19.6419 21.1654 19.6484 21.1914 19.6484H21.3477C21.4128 19.6484 21.4388 19.6745 21.4258 19.7266C21.4518 19.7656 21.4714 19.8047 21.4844 19.8438C21.4974 19.8698 21.5234 19.8958 21.5625 19.9219C21.5885 19.9609 21.5885 20.013 21.5625 20.0781C21.5495 20.3385 21.4844 20.5794 21.3672 20.8008C21.25 21.0221 21.1784 21.263 21.1523 21.5234C20.9961 21.5625 20.8529 21.582 20.7227 21.582C20.5013 21.569 20.306 21.5039 20.1367 21.3867C19.9674 21.2826 19.8112 21.1523 19.668 20.9961C19.5247 20.8398 19.388 20.6836 19.2578 20.5273C19.1276 20.3581 18.9844 20.2148 18.8281 20.0977C18.737 19.7331 18.6458 19.3294 18.5547 18.8867C18.4766 18.444 18.3398 18.0664 18.1445 17.7539C18.1966 17.6367 18.2227 17.4935 18.2227 17.3242C18.2357 17.0638 18.2096 16.8099 18.1445 16.5625C18.0924 16.3021 18.0794 16.0417 18.1055 15.7812C18.1055 15.638 18.1185 15.4948 18.1445 15.3516C18.1836 15.2083 18.2096 15.0651 18.2227 14.9219C18.2357 14.7005 18.2096 14.4857 18.1445 14.2773C18.0924 14.069 18.0729 13.8542 18.0859 13.6328C18.099 13.5286 18.1185 13.431 18.1445 13.3398C18.1836 13.2357 18.2357 13.1445 18.3008 13.0664C18.2357 12.9102 18.2161 12.7604 18.2422 12.6172C18.2552 12.3958 18.2812 12.1875 18.3203 11.9922C18.3594 11.7969 18.3854 11.6016 18.3984 11.4062C18.3984 11.3021 18.3919 11.2044 18.3789 11.1133C18.3659 11.0091 18.3464 10.9115 18.3203 10.8203L18.1445 10.7617C18.0664 10.7617 17.9883 10.7812 17.9102 10.8203C17.8451 10.8594 17.7865 10.9049 17.7344 10.957C17.6823 11.0091 17.6367 11.0547 17.5977 11.0938C17.5586 11.1198 17.5195 11.1328 17.4805 11.1328C17.4544 11.1328 17.4219 11.1328 17.3828 11.1328C17.3568 11.1198 17.3307 11.1133 17.3047 11.1133C17.2786 11.1133 17.2266 11.1393 17.1484 11.1914C17.0833 11.2435 16.9987 11.3021 16.8945 11.3672C16.8034 11.4193 16.7122 11.4779 16.6211 11.543C16.5299 11.5951 16.4583 11.6276 16.4062 11.6406C16.263 11.6146 16.1458 11.569 16.0547 11.5039C15.9766 11.4258 15.8984 11.3542 15.8203 11.2891C15.7552 11.2109 15.6836 11.1458 15.6055 11.0938C15.5273 11.0286 15.4297 11.0026 15.3125 11.0156C15.2734 10.9375 15.2539 10.8529 15.2539 10.7617C15.2409 10.6706 15.2409 10.5794 15.2539 10.4883V10.1758C15.3451 10.0065 15.4688 9.86979 15.625 9.76562C15.7682 9.64844 15.9245 9.55078 16.0938 9.47266L16.6016 9.23828C16.7708 9.16016 16.9271 9.0625 17.0703 8.94531H17.2461C17.4805 8.95833 17.6823 8.91276 17.8516 8.80859C18.0339 8.70443 18.2031 8.58724 18.3594 8.45703C18.5156 8.3138 18.6719 8.17057 18.8281 8.02734C18.9974 7.88411 19.1797 7.77344 19.375 7.69531C19.5182 7.76042 19.668 7.81901 19.8242 7.87109C19.9805 7.91016 20.1432 7.9362 20.3125 7.94922C20.4818 7.94922 20.6576 7.92318 20.8398 7.87109C21.0221 7.81901 21.1654 7.72135 21.2695 7.57812C21.3346 7.60417 21.3867 7.6237 21.4258 7.63672C21.4779 7.63672 21.5365 7.63672 21.6016 7.63672C21.7969 7.64974 21.9922 7.6237 22.1875 7.55859C22.3828 7.48047 22.5716 7.38932 22.7539 7.28516C23.0143 7.29818 23.2682 7.28516 23.5156 7.24609C23.776 7.19401 24.0299 7.14193 24.2773 7.08984C24.5378 7.03776 24.7917 6.99219 25.0391 6.95312C25.2995 6.90104 25.5599 6.88151 25.8203 6.89453C26.25 6.90755 26.6732 6.86849 27.0898 6.77734C27.5065 6.6862 27.9297 6.65365 28.3594 6.67969C28.6589 6.69271 28.9518 6.71875 29.2383 6.75781C29.5378 6.78385 29.8372 6.79036 30.1367 6.77734C30.306 6.85547 30.4557 6.92708 30.5859 6.99219C30.7292 7.04427 30.9049 7.05729 31.1133 7.03125C31.5299 7.38281 31.9076 7.79297 32.2461 8.26172V8.59375C32.2331 8.89323 32.181 9.1862 32.0898 9.47266C31.9987 9.75911 31.888 10.0456 31.7578 10.332C31.6406 10.6055 31.5104 10.8789 31.3672 11.1523C31.224 11.4128 31.0872 11.6732 30.957 11.9336C30.1107 12.7018 29.2643 13.4635 28.418 14.2188C27.5716 14.974 26.6992 15.7031 25.8008 16.4062C25.7747 16.5365 25.7357 16.6536 25.6836 16.7578C25.6445 16.862 25.6185 16.9727 25.6055 17.0898C25.6055 17.1549 25.612 17.207 25.625 17.2461C25.7161 17.2721 25.7943 17.3242 25.8594 17.4023C25.9375 17.4674 25.9635 17.5586 25.9375 17.6758H26.1133C26.1784 17.6758 26.2109 17.7018 26.2109 17.7539L26.5234 17.7734C27.0182 17.7995 27.513 17.7865 28.0078 17.7344C28.5026 17.6823 28.9974 17.6237 29.4922 17.5586C30 17.4935 30.5013 17.4349 30.9961 17.3828C31.4909 17.3177 31.9857 17.2786 32.4805 17.2656C32.5977 17.2266 32.7214 17.194 32.8516 17.168C32.9818 17.1419 33.099 17.0898 33.2031 17.0117H33.2617C33.3529 17.0117 33.418 17.0378 33.457 17.0898C33.5091 17.1419 33.5807 17.1745 33.6719 17.1875C33.737 17.1875 33.8021 17.1745 33.8672 17.1484C33.9453 17.1224 34.0234 17.1029 34.1016 17.0898C34.2839 17.0378 34.4727 17.0052 34.668 16.9922C34.8763 16.9792 35.0781 16.9596 35.2734 16.9336C36.0286 16.8685 36.7773 16.8294 37.5195 16.8164C38.2617 16.7904 39.0039 16.6927 39.7461 16.5234C39.8112 16.6146 39.9023 16.6797 40.0195 16.7188C40.1367 16.7448 40.2604 16.7773 40.3906 16.8164C40.5208 16.8424 40.638 16.875 40.7422 16.9141C40.8594 16.9531 40.9375 17.0312 40.9766 17.1484ZM51.8555 7.98828C51.8034 8.15755 51.7188 8.3138 51.6016 8.45703L51.2695 8.86719C51.1654 8.9974 51.0742 9.14062 50.9961 9.29688C50.931 9.4401 50.9115 9.60938 50.9375 9.80469C50.9115 9.80469 50.8789 9.80469 50.8398 9.80469C50.8008 9.79167 50.7682 9.78516 50.7422 9.78516C50.5339 9.78516 50.3711 9.83724 50.2539 9.94141C50.1497 10.0326 50.0065 10.1107 49.8242 10.1758C49.7982 10.0977 49.7656 10.026 49.7266 9.96094C49.6875 9.88281 49.6289 9.83073 49.5508 9.80469C49.2383 9.86979 48.9258 9.92188 48.6133 9.96094C48.3008 9.98698 47.9883 10.026 47.6758 10.0781C47.5326 10.1042 47.3893 10.1432 47.2461 10.1953C47.1029 10.2344 46.9531 10.2734 46.7969 10.3125C46.7188 10.3385 46.6341 10.3516 46.543 10.3516C46.4518 10.3385 46.3607 10.3385 46.2695 10.3516C45.957 10.3646 45.6185 10.3906 45.2539 10.4297C44.8893 10.4557 44.5638 10.5534 44.2773 10.7227C44.1471 10.6966 44.0104 10.6771 43.8672 10.6641C43.724 10.651 43.5807 10.6445 43.4375 10.6445C43.125 10.6445 42.7799 10.6771 42.4023 10.7422C42.0378 10.7943 41.7122 10.9049 41.4258 11.0742C41.3607 11.0482 41.2891 11.0286 41.2109 11.0156C41.1458 11.0026 41.0677 10.9961 40.9766 10.9961C40.9505 10.9961 40.931 11.0026 40.918 11.0156C40.9049 11.0156 40.8854 11.0156 40.8594 11.0156C40.8464 11.1328 40.8594 11.25 40.8984 11.3672C40.9505 11.4714 41.0352 11.556 41.1523 11.6211C41.1003 11.7643 41.0742 11.9206 41.0742 12.0898C41.0742 12.3112 41.0872 12.5326 41.1133 12.7539C41.1523 12.9753 41.1719 13.1966 41.1719 13.418C41.1719 13.6654 41.1393 13.8607 41.0742 14.0039C41.2044 14.3945 41.2695 14.8112 41.2695 15.2539C41.2695 15.4102 41.2565 15.5664 41.2305 15.7227C41.2174 15.8659 41.2109 16.0221 41.2109 16.1914C41.2109 16.3346 41.263 16.4518 41.3672 16.543C41.4714 16.6211 41.5234 16.7318 41.5234 16.875C41.5234 16.9271 41.5104 16.9792 41.4844 17.0312C41.6667 16.9922 41.8424 16.9401 42.0117 16.875C42.181 16.7969 42.3568 16.7578 42.5391 16.7578C42.6432 16.7578 42.7409 16.7773 42.832 16.8164C42.9362 16.8555 43.0273 16.9076 43.1055 16.9727C43.0924 17.0378 43.0794 17.1094 43.0664 17.1875C43.0664 17.2656 43.0664 17.3438 43.0664 17.4219C43.0664 17.5651 43.0664 17.7018 43.0664 17.832C43.0794 17.9492 43.0924 18.0794 43.1055 18.2227C43.0013 18.4049 42.8776 18.5677 42.7344 18.7109C42.6042 18.8542 42.513 19.0365 42.4609 19.2578C42.2656 19.2578 42.0898 19.3034 41.9336 19.3945C41.7904 19.4727 41.6536 19.5638 41.5234 19.668C41.3932 19.7591 41.263 19.8503 41.1328 19.9414C41.0026 20.0195 40.8594 20.0586 40.7031 20.0586C40.5078 20.0586 40.3711 20.0326 40.293 19.9805C40.2148 19.9154 40.1562 19.8503 40.1172 19.7852C40.0781 19.7201 40.0391 19.6615 40 19.6094C39.974 19.5573 39.9089 19.5378 39.8047 19.5508C39.7786 19.3815 39.7266 19.2253 39.6484 19.082C39.5703 18.9258 39.4857 18.776 39.3945 18.6328C39.3164 18.4896 39.2318 18.3464 39.1406 18.2031C39.0625 18.0469 39.0039 17.8906 38.9648 17.7344C38.8867 17.3958 38.8542 17.0443 38.8672 16.6797C38.8802 16.3151 38.8216 15.9635 38.6914 15.625C38.7174 15.4427 38.737 15.2604 38.75 15.0781C38.763 14.8828 38.7695 14.694 38.7695 14.5117C38.7695 14.1471 38.7565 13.7891 38.7305 13.4375C38.7174 13.0729 38.7044 12.7018 38.6914 12.3242C38.6003 12.207 38.5417 12.0768 38.5156 11.9336C38.5026 11.7773 38.4896 11.6276 38.4766 11.4844C38.4375 11.4453 38.3919 11.4062 38.3398 11.3672C38.3008 11.3281 38.2747 11.276 38.2617 11.2109C38.1576 11.1849 38.0794 11.1719 38.0273 11.1719C37.8451 11.1719 37.6888 11.2174 37.5586 11.3086C37.4414 11.3867 37.3307 11.4258 37.2266 11.4258C37.1224 11.4258 37.0247 11.4128 36.9336 11.3867C36.8424 11.3607 36.7513 11.3477 36.6602 11.3477C36.582 11.3477 36.5365 11.3672 36.5234 11.4062C36.5234 11.4323 36.4974 11.4583 36.4453 11.4844C36.4062 11.5104 36.3151 11.5365 36.1719 11.5625C36.0286 11.5885 35.8659 11.6146 35.6836 11.6406C35.5143 11.6536 35.3451 11.6667 35.1758 11.6797C35.0195 11.6927 34.9154 11.6992 34.8633 11.6992C34.6549 11.6992 34.4987 11.6602 34.3945 11.582C34.2773 11.4909 34.1406 11.3932 33.9844 11.2891C34.0104 11.2109 34.0234 11.1589 34.0234 11.1328C34.0234 11.0026 33.9844 10.8984 33.9062 10.8203C33.8281 10.7292 33.7891 10.651 33.7891 10.5859C33.7891 10.4427 33.8477 10.332 33.9648 10.2539C34.069 10.1758 34.1276 10.0521 34.1406 9.88281C34.4401 9.7526 34.7461 9.65495 35.0586 9.58984C35.3711 9.52474 35.6901 9.47266 36.0156 9.43359C36.3411 9.39453 36.6602 9.34896 36.9727 9.29688C37.2982 9.24479 37.6172 9.16016 37.9297 9.04297C38.0208 9.05599 38.1055 9.06901 38.1836 9.08203C38.2747 9.08203 38.3659 9.08203 38.457 9.08203C38.8477 9.08203 39.2318 9.04297 39.6094 8.96484C40 8.8737 40.3971 8.82812 40.8008 8.82812C40.9049 8.82812 41.0091 8.83464 41.1133 8.84766C41.2174 8.86068 41.3216 8.88021 41.4258 8.90625C41.9466 8.82812 42.4609 8.74349 42.9688 8.65234C43.4896 8.5612 44.0234 8.48307 44.5703 8.41797C44.8307 8.39193 45.0846 8.3724 45.332 8.35938C45.5924 8.33333 45.8529 8.30078 46.1133 8.26172C46.2044 8.2487 46.2695 8.22917 46.3086 8.20312C46.3607 8.16406 46.3867 8.09245 46.3867 7.98828C46.5039 8.04036 46.6341 8.06641 46.7773 8.06641C46.9987 8.06641 47.2135 8.02734 47.4219 7.94922C47.6302 7.87109 47.8451 7.83203 48.0664 7.83203C48.1185 7.83203 48.1641 7.83854 48.2031 7.85156C48.2422 7.85156 48.2812 7.85156 48.3203 7.85156C48.4115 7.85156 48.457 7.8125 48.457 7.73438C48.4701 7.64323 48.5352 7.58464 48.6523 7.55859C48.7435 7.53255 48.8737 7.51302 49.043 7.5C49.2122 7.48698 49.388 7.47396 49.5703 7.46094C49.7656 7.4349 49.9414 7.40885 50.0977 7.38281C50.2669 7.34375 50.3906 7.29167 50.4688 7.22656L50.6055 7.01172C50.8398 7.02474 51.0091 7.12891 51.1133 7.32422C51.2305 7.50651 51.2956 7.70833 51.3086 7.92969C51.3607 7.98177 51.4323 8.00781 51.5234 8.00781C51.6276 7.99479 51.7188 7.98828 51.7969 7.98828H51.8555ZM53.3398 17.8711C53.2747 17.9753 53.1966 18.0729 53.1055 18.1641C53.0143 18.2422 52.9297 18.3268 52.8516 18.418C52.7604 18.457 52.6562 18.4766 52.5391 18.4766C52.4349 18.4766 52.3307 18.4766 52.2266 18.4766C52.1354 18.4635 52.0443 18.4635 51.9531 18.4766C51.875 18.4766 51.8099 18.5026 51.7578 18.5547C51.6536 18.5286 51.5755 18.4831 51.5234 18.418C51.4714 18.3398 51.3802 18.2943 51.25 18.2812C51.1979 18.2682 51.1458 18.2682 51.0938 18.2812C50.8984 18.0599 50.7161 17.8255 50.5469 17.5781C50.3906 17.3307 50.2409 17.0964 50.0977 16.875C50.0846 16.3932 50.0456 15.9049 49.9805 15.4102C49.9674 15.293 49.9479 15.1758 49.9219 15.0586C49.8958 14.9414 49.8763 14.8307 49.8633 14.7266C49.8633 14.5964 49.8698 14.4727 49.8828 14.3555C49.9089 14.2253 49.9284 14.1081 49.9414 14.0039C49.9935 13.6263 50.0521 13.2552 50.1172 12.8906C50.1823 12.526 50.2409 12.1549 50.293 11.7773C50.3451 11.4388 50.3711 11.0872 50.3711 10.7227C50.3711 10.3451 50.3125 9.99349 50.1953 9.66797L50.1758 9.57031C50.2018 9.46615 50.2279 9.38151 50.2539 9.31641C50.293 9.23828 50.319 9.15365 50.332 9.0625C50.3581 8.91927 50.3255 8.8151 50.2344 8.75C50.2734 8.64583 50.3385 8.58073 50.4297 8.55469C50.5208 8.51562 50.5729 8.4375 50.5859 8.32031C50.599 8.26823 50.599 8.21615 50.5859 8.16406C50.6901 8.125 50.7943 8.09245 50.8984 8.06641C51.0156 8.02734 51.1263 8.02083 51.2305 8.04688C51.3997 8.07292 51.5495 8.13151 51.6797 8.22266C51.8099 8.30078 51.9336 8.39193 52.0508 8.49609C52.2591 9.12109 52.3438 9.78516 52.3047 10.4883C52.2656 11.1784 52.2005 11.875 52.1094 12.5781C52.0182 13.2812 51.9596 13.9714 51.9336 14.6484C51.9076 15.3125 52.0117 15.931 52.2461 16.5039L52.2852 16.5234C52.3503 16.5365 52.4023 16.5169 52.4414 16.4648C52.4805 16.3997 52.5326 16.3737 52.5977 16.3867C52.6497 16.4128 52.6823 16.4258 52.6953 16.4258C52.7474 16.6862 52.832 16.9336 52.9492 17.168C53.0664 17.4023 53.1966 17.6367 53.3398 17.8711ZM65.5273 18.0859C65.5273 18.3073 65.4688 18.5026 65.3516 18.6719C65.2474 18.8281 65.2083 19.0234 65.2344 19.2578C65.0521 19.362 64.9023 19.4987 64.7852 19.668C64.668 19.8372 64.5573 20.013 64.4531 20.1953C63.5938 20.7552 62.6693 21.2044 61.6797 21.543C60.7031 21.8945 59.694 22.0703 58.6523 22.0703C58.5872 22.0703 58.5286 22.0378 58.4766 21.9727C58.4245 21.9206 58.3724 21.862 58.3203 21.7969C58.2682 21.7318 58.2096 21.6667 58.1445 21.6016C58.0924 21.5495 58.0273 21.5234 57.9492 21.5234C57.8581 21.5234 57.7865 21.543 57.7344 21.582C57.7344 21.556 57.7344 21.5299 57.7344 21.5039C57.7474 21.4909 57.7539 21.4714 57.7539 21.4453C57.7539 21.2891 57.7344 21.1263 57.6953 20.957C57.6562 20.8008 57.6367 20.6445 57.6367 20.4883C57.6367 20.306 57.6693 20.1562 57.7344 20.0391H57.9688C58.099 20.0391 58.2227 20.0326 58.3398 20.0195C58.4701 19.9935 58.6068 19.9805 58.75 19.9805C58.8932 19.9805 59.0234 20.0195 59.1406 20.0977C59.8568 20.0716 60.5339 19.9414 61.1719 19.707C61.8229 19.4596 62.4805 19.2188 63.1445 18.9844C63.2487 18.8411 63.3073 18.6849 63.3203 18.5156C63.3464 18.3333 63.3984 18.1641 63.4766 18.0078C63.138 17.7214 62.793 17.5 62.4414 17.3438C62.1029 17.1745 61.7057 17.1159 61.25 17.168C60.9766 16.9987 60.6836 16.901 60.3711 16.875C60.0716 16.849 59.7656 16.8099 59.4531 16.7578C59.375 16.7448 59.2904 16.7318 59.1992 16.7188C59.1211 16.6927 59.0365 16.6797 58.9453 16.6797C58.8802 16.6797 58.8151 16.6992 58.75 16.7383C58.6979 16.7643 58.6849 16.8099 58.7109 16.875C58.6458 16.7708 58.5547 16.7122 58.4375 16.6992C58.3333 16.6732 58.2422 16.6211 58.1641 16.543C57.7474 16.5169 57.3828 16.4453 57.0703 16.3281C56.7578 16.1979 56.4128 16.0547 56.0352 15.8984C55.931 15.8594 55.8268 15.8333 55.7227 15.8203C55.6315 15.7943 55.5404 15.7552 55.4492 15.7031C55.2148 15.5859 55.026 15.4297 54.8828 15.2344C54.7396 15.0391 54.6289 14.8242 54.5508 14.5898C54.4596 14.3424 54.3945 14.0885 54.3555 13.8281C54.3164 13.5677 54.2773 13.3268 54.2383 13.1055C54.3555 12.8971 54.4661 12.6823 54.5703 12.4609C54.6615 12.2396 54.7396 12.0052 54.8047 11.7578C54.8828 11.7188 54.9609 11.6862 55.0391 11.6602C55.1172 11.6341 55.2018 11.6016 55.293 11.5625C55.2799 11.5365 55.2734 11.5039 55.2734 11.4648C55.2734 11.3997 55.293 11.3346 55.332 11.2695C55.3841 11.2044 55.3971 11.1393 55.3711 11.0742C55.6576 10.8138 55.931 10.5469 56.1914 10.2734C56.4648 9.98698 56.6992 9.67448 56.8945 9.33594C57.0898 9.27083 57.2461 9.17318 57.3633 9.04297C57.4805 8.91276 57.5977 8.78255 57.7148 8.65234C57.832 8.50911 57.9622 8.38542 58.1055 8.28125C58.2487 8.16406 58.431 8.09245 58.6523 8.06641C58.7044 7.97526 58.776 7.90365 58.8672 7.85156C58.9583 7.78646 59.0495 7.72786 59.1406 7.67578C59.2318 7.6237 59.3164 7.5651 59.3945 7.5C59.4727 7.4349 59.5312 7.34375 59.5703 7.22656C59.7786 7.22656 59.9674 7.1875 60.1367 7.10938C60.319 7.03125 60.4948 6.94661 60.6641 6.85547C60.8333 6.76432 61.0026 6.67969 61.1719 6.60156C61.3542 6.52344 61.5495 6.48438 61.7578 6.48438C61.8099 6.48438 61.862 6.49089 61.9141 6.50391C61.9661 6.50391 62.0247 6.51042 62.0898 6.52344C62.181 6.61458 62.2396 6.72526 62.2656 6.85547C62.3047 6.97266 62.3307 7.10286 62.3438 7.24609C62.3568 7.38932 62.3633 7.53255 62.3633 7.67578C62.3763 7.81901 62.4023 7.94922 62.4414 8.06641C62.3242 8.28776 62.194 8.50911 62.0508 8.73047C61.9206 8.95182 61.7448 9.12109 61.5234 9.23828H61.4844C61.3932 9.2513 61.3086 9.23177 61.2305 9.17969C61.1523 9.1276 61.0612 9.10156 60.957 9.10156C60.8919 9.10156 60.8398 9.12109 60.8008 9.16016L60.7031 9.25781C60.6771 9.28385 60.638 9.3099 60.5859 9.33594C60.5469 9.36198 60.4883 9.36198 60.4102 9.33594C60.2279 9.40104 60.1562 9.51172 60.1953 9.66797C59.9479 9.69401 59.7396 9.77214 59.5703 9.90234C59.401 10.0195 59.2448 10.1562 59.1016 10.3125C58.9583 10.4557 58.8151 10.5924 58.6719 10.7227C58.5286 10.8398 58.3594 10.9049 58.1641 10.918C57.9427 11.3086 57.6693 11.6536 57.3438 11.9531C57.0312 12.2526 56.7708 12.5911 56.5625 12.9688C56.6016 13.0729 56.6276 13.1836 56.6406 13.3008C56.6536 13.418 56.6732 13.5417 56.6992 13.6719C56.8164 13.8281 56.9531 13.9648 57.1094 14.082C57.2786 14.1992 57.4414 14.3164 57.5977 14.4336H57.6562C57.9167 14.4336 58.1576 14.4857 58.3789 14.5898C58.6003 14.681 58.8346 14.7266 59.082 14.7266C59.2122 14.7266 59.3229 14.7005 59.4141 14.6484C59.7526 14.7266 60.0846 14.7917 60.4102 14.8438C60.7487 14.8958 61.0872 14.9349 61.4258 14.9609C61.5951 14.987 61.7643 15 61.9336 15C62.1159 15 62.2852 15.0195 62.4414 15.0586C62.5846 15.0977 62.7279 15.1497 62.8711 15.2148C63.0143 15.2669 63.1576 15.3255 63.3008 15.3906C63.6003 15.5208 63.8802 15.6641 64.1406 15.8203C64.4141 15.9766 64.6549 16.1654 64.8633 16.3867C65.0716 16.5951 65.2344 16.8424 65.3516 17.1289C65.4688 17.4023 65.5273 17.7214 65.5273 18.0859ZM82.5 7.98828C82.4479 8.15755 82.3633 8.3138 82.2461 8.45703L81.9141 8.86719C81.8099 8.9974 81.7188 9.14062 81.6406 9.29688C81.5755 9.4401 81.556 9.60938 81.582 9.80469C81.556 9.80469 81.5234 9.80469 81.4844 9.80469C81.4453 9.79167 81.4128 9.78516 81.3867 9.78516C81.1784 9.78516 81.0156 9.83724 80.8984 9.94141C80.7943 10.0326 80.651 10.1107 80.4688 10.1758C80.4427 10.0977 80.4102 10.026 80.3711 9.96094C80.332 9.88281 80.2734 9.83073 80.1953 9.80469C79.8828 9.86979 79.5703 9.92188 79.2578 9.96094C78.9453 9.98698 78.6328 10.026 78.3203 10.0781C78.1771 10.1042 78.0339 10.1432 77.8906 10.1953C77.7474 10.2344 77.5977 10.2734 77.4414 10.3125C77.3633 10.3385 77.2786 10.3516 77.1875 10.3516C77.0964 10.3385 77.0052 10.3385 76.9141 10.3516C76.6016 10.3646 76.263 10.3906 75.8984 10.4297C75.5339 10.4557 75.2083 10.5534 74.9219 10.7227C74.7917 10.6966 74.6549 10.6771 74.5117 10.6641C74.3685 10.651 74.2253 10.6445 74.082 10.6445C73.7695 10.6445 73.4245 10.6771 73.0469 10.7422C72.6823 10.7943 72.3568 10.9049 72.0703 11.0742C72.0052 11.0482 71.9336 11.0286 71.8555 11.0156C71.7904 11.0026 71.7122 10.9961 71.6211 10.9961C71.5951 10.9961 71.5755 11.0026 71.5625 11.0156C71.5495 11.0156 71.5299 11.0156 71.5039 11.0156C71.4909 11.1328 71.5039 11.25 71.543 11.3672C71.5951 11.4714 71.6797 11.556 71.7969 11.6211C71.7448 11.7643 71.7188 11.9206 71.7188 12.0898C71.7188 12.3112 71.7318 12.5326 71.7578 12.7539C71.7969 12.9753 71.8164 13.1966 71.8164 13.418C71.8164 13.6654 71.7839 13.8607 71.7188 14.0039C71.849 14.3945 71.9141 14.8112 71.9141 15.2539C71.9141 15.4102 71.901 15.5664 71.875 15.7227C71.862 15.8659 71.8555 16.0221 71.8555 16.1914C71.8555 16.3346 71.9076 16.4518 72.0117 16.543C72.1159 16.6211 72.168 16.7318 72.168 16.875C72.168 16.9271 72.1549 16.9792 72.1289 17.0312C72.3112 16.9922 72.487 16.9401 72.6562 16.875C72.8255 16.7969 73.0013 16.7578 73.1836 16.7578C73.2878 16.7578 73.3854 16.7773 73.4766 16.8164C73.5807 16.8555 73.6719 16.9076 73.75 16.9727C73.737 17.0378 73.724 17.1094 73.7109 17.1875C73.7109 17.2656 73.7109 17.3438 73.7109 17.4219C73.7109 17.5651 73.7109 17.7018 73.7109 17.832C73.724 17.9492 73.737 18.0794 73.75 18.2227C73.6458 18.4049 73.5221 18.5677 73.3789 18.7109C73.2487 18.8542 73.1576 19.0365 73.1055 19.2578C72.9102 19.2578 72.7344 19.3034 72.5781 19.3945C72.4349 19.4727 72.2982 19.5638 72.168 19.668C72.0378 19.7591 71.9076 19.8503 71.7773 19.9414C71.6471 20.0195 71.5039 20.0586 71.3477 20.0586C71.1523 20.0586 71.0156 20.0326 70.9375 19.9805C70.8594 19.9154 70.8008 19.8503 70.7617 19.7852C70.7227 19.7201 70.6836 19.6615 70.6445 19.6094C70.6185 19.5573 70.5534 19.5378 70.4492 19.5508C70.4232 19.3815 70.3711 19.2253 70.293 19.082C70.2148 18.9258 70.1302 18.776 70.0391 18.6328C69.9609 18.4896 69.8763 18.3464 69.7852 18.2031C69.707 18.0469 69.6484 17.8906 69.6094 17.7344C69.5312 17.3958 69.4987 17.0443 69.5117 16.6797C69.5247 16.3151 69.4661 15.9635 69.3359 15.625C69.362 15.4427 69.3815 15.2604 69.3945 15.0781C69.4076 14.8828 69.4141 14.694 69.4141 14.5117C69.4141 14.1471 69.401 13.7891 69.375 13.4375C69.362 13.0729 69.349 12.7018 69.3359 12.3242C69.2448 12.207 69.1862 12.0768 69.1602 11.9336C69.1471 11.7773 69.1341 11.6276 69.1211 11.4844C69.082 11.4453 69.0365 11.4062 68.9844 11.3672C68.9453 11.3281 68.9193 11.276 68.9062 11.2109C68.8021 11.1849 68.724 11.1719 68.6719 11.1719C68.4896 11.1719 68.3333 11.2174 68.2031 11.3086C68.0859 11.3867 67.9753 11.4258 67.8711 11.4258C67.7669 11.4258 67.6693 11.4128 67.5781 11.3867C67.487 11.3607 67.3958 11.3477 67.3047 11.3477C67.2266 11.3477 67.181 11.3672 67.168 11.4062C67.168 11.4323 67.1419 11.4583 67.0898 11.4844C67.0508 11.5104 66.9596 11.5365 66.8164 11.5625C66.6732 11.5885 66.5104 11.6146 66.3281 11.6406C66.1589 11.6536 65.9896 11.6667 65.8203 11.6797C65.6641 11.6927 65.5599 11.6992 65.5078 11.6992C65.2995 11.6992 65.1432 11.6602 65.0391 11.582C64.9219 11.4909 64.7852 11.3932 64.6289 11.2891C64.6549 11.2109 64.668 11.1589 64.668 11.1328C64.668 11.0026 64.6289 10.8984 64.5508 10.8203C64.4727 10.7292 64.4336 10.651 64.4336 10.5859C64.4336 10.4427 64.4922 10.332 64.6094 10.2539C64.7135 10.1758 64.7721 10.0521 64.7852 9.88281C65.0846 9.7526 65.3906 9.65495 65.7031 9.58984C66.0156 9.52474 66.3346 9.47266 66.6602 9.43359C66.9857 9.39453 67.3047 9.34896 67.6172 9.29688C67.9427 9.24479 68.2617 9.16016 68.5742 9.04297C68.6654 9.05599 68.75 9.06901 68.8281 9.08203C68.9193 9.08203 69.0104 9.08203 69.1016 9.08203C69.4922 9.08203 69.8763 9.04297 70.2539 8.96484C70.6445 8.8737 71.0417 8.82812 71.4453 8.82812C71.5495 8.82812 71.6536 8.83464 71.7578 8.84766C71.862 8.86068 71.9661 8.88021 72.0703 8.90625C72.5911 8.82812 73.1055 8.74349 73.6133 8.65234C74.1341 8.5612 74.668 8.48307 75.2148 8.41797C75.4753 8.39193 75.7292 8.3724 75.9766 8.35938C76.237 8.33333 76.4974 8.30078 76.7578 8.26172C76.849 8.2487 76.9141 8.22917 76.9531 8.20312C77.0052 8.16406 77.0312 8.09245 77.0312 7.98828C77.1484 8.04036 77.2786 8.06641 77.4219 8.06641C77.6432 8.06641 77.8581 8.02734 78.0664 7.94922C78.2747 7.87109 78.4896 7.83203 78.7109 7.83203C78.763 7.83203 78.8086 7.83854 78.8477 7.85156C78.8867 7.85156 78.9258 7.85156 78.9648 7.85156C79.056 7.85156 79.1016 7.8125 79.1016 7.73438C79.1146 7.64323 79.1797 7.58464 79.2969 7.55859C79.388 7.53255 79.5182 7.51302 79.6875 7.5C79.8568 7.48698 80.0326 7.47396 80.2148 7.46094C80.4102 7.4349 80.5859 7.40885 80.7422 7.38281C80.9115 7.34375 81.0352 7.29167 81.1133 7.22656L81.25 7.01172C81.4844 7.02474 81.6536 7.12891 81.7578 7.32422C81.875 7.50651 81.9401 7.70833 81.9531 7.92969C82.0052 7.98177 82.0768 8.00781 82.168 8.00781C82.2721 7.99479 82.3633 7.98828 82.4414 7.98828H82.5ZM103.75 19.8242C103.75 19.9544 103.743 20.0521 103.73 20.1172C103.665 20.1432 103.613 20.1823 103.574 20.2344C103.535 20.2734 103.47 20.2865 103.379 20.2734C103.353 20.4688 103.288 20.6315 103.184 20.7617C103.079 20.8919 102.969 21.0091 102.852 21.1133C102.747 21.2305 102.643 21.3477 102.539 21.4648C102.435 21.5951 102.37 21.7578 102.344 21.9531C102.148 22.0573 101.953 22.194 101.758 22.3633C101.576 22.5456 101.413 22.6693 101.27 22.7344C101.165 22.7865 101.055 22.8255 100.938 22.8516C100.82 22.8906 100.703 22.9362 100.586 22.9883C100.208 23.1576 99.8177 23.3333 99.4141 23.5156C99.0234 23.6979 98.6133 23.7891 98.1836 23.7891H98.0469C97.9948 23.8411 97.9297 23.8737 97.8516 23.8867C97.7734 23.9128 97.6953 23.9323 97.6172 23.9453C97.5391 23.9583 97.4609 23.9779 97.3828 24.0039C97.3047 24.0299 97.2461 24.069 97.207 24.1211C97.0638 24.069 96.9076 24.043 96.7383 24.043H96.6016C96.3802 24.0951 96.1719 24.1341 95.9766 24.1602C95.7812 24.1862 95.5729 24.1992 95.3516 24.1992C94.9609 24.1992 94.5703 24.1732 94.1797 24.1211C93.7891 24.069 93.3984 24.0234 93.0078 23.9844C92.7604 23.7891 92.5586 23.5417 92.4023 23.2422C92.2461 22.9557 92.168 22.6497 92.168 22.3242C92.168 22.0768 92.2201 21.8424 92.3242 21.6211C92.4284 21.4128 92.5651 21.224 92.7344 21.0547H92.793C92.9102 21.0547 93.0273 21.0286 93.1445 20.9766C93.2747 20.9245 93.3984 20.8984 93.5156 20.8984C93.6458 20.8984 93.75 20.9505 93.8281 21.0547C93.9193 21.1589 93.9844 21.2826 94.0234 21.4258C94.0755 21.569 94.1081 21.7122 94.1211 21.8555C94.1341 22.0117 94.1406 22.1354 94.1406 22.2266C94.2839 22.2917 94.4336 22.3307 94.5898 22.3438C94.7591 22.3568 94.9284 22.3633 95.0977 22.3633C95.2669 22.3633 95.4557 22.3503 95.6641 22.3242C95.8724 22.3112 96.0807 22.2786 96.2891 22.2266C96.5104 22.1875 96.7188 22.1354 96.9141 22.0703C97.1224 22.0052 97.2982 21.9206 97.4414 21.8164C98.1576 21.7513 98.7891 21.5885 99.3359 21.3281C99.8828 21.0677 100.462 20.7617 101.074 20.4102C101.1 20.2669 101.152 20.1562 101.23 20.0781C101.322 19.987 101.367 19.8568 101.367 19.6875C101.367 19.6615 101.361 19.6354 101.348 19.6094C101.348 19.5703 101.348 19.5378 101.348 19.5117C101.087 19.1862 100.814 18.8997 100.527 18.6523C100.254 18.4049 99.8958 18.2422 99.4531 18.1641C99.401 18.0469 99.3164 17.9622 99.1992 17.9102C99.082 17.8451 98.9583 17.7865 98.8281 17.7344C98.6979 17.6823 98.5742 17.6302 98.457 17.5781C98.3398 17.513 98.2552 17.4089 98.2031 17.2656C97.8516 17.2005 97.487 17.1224 97.1094 17.0312C96.7448 16.9271 96.4323 16.7448 96.1719 16.4844C95.9635 16.4714 95.7617 16.4323 95.5664 16.3672C95.3841 16.2891 95.2018 16.2174 95.0195 16.1523C94.8372 16.0742 94.6484 16.0091 94.4531 15.957C94.2578 15.8919 94.056 15.8594 93.8477 15.8594C93.7956 15.7682 93.724 15.6966 93.6328 15.6445C93.5417 15.5924 93.4375 15.5469 93.3203 15.5078C93.2161 15.4688 93.112 15.4297 93.0078 15.3906C92.9167 15.3385 92.8451 15.2669 92.793 15.1758C92.7409 15.1888 92.7018 15.2148 92.6758 15.2539C92.6497 15.293 92.6042 15.3125 92.5391 15.3125H92.4609C92.4349 15.2344 92.3828 15.1823 92.3047 15.1562C92.2266 15.1172 92.181 15.0456 92.168 14.9414C91.9336 14.9284 91.7188 14.8828 91.5234 14.8047C91.3411 14.7266 91.1654 14.6419 90.9961 14.5508C90.8398 14.4466 90.6771 14.349 90.5078 14.2578C90.3385 14.1667 90.1497 14.0951 89.9414 14.043C89.8112 13.9388 89.6875 13.8281 89.5703 13.7109C89.4661 13.5807 89.3294 13.5156 89.1602 13.5156C89.1211 13.5156 89.0495 13.5286 88.9453 13.5547C88.9193 13.3203 88.8216 13.1576 88.6523 13.0664C88.4831 12.9622 88.3008 12.8711 88.1055 12.793C87.9753 12.4544 87.7995 12.1549 87.5781 11.8945C87.3568 11.6341 87.1159 11.3932 86.8555 11.1719C86.8815 11.0938 86.8945 11.0352 86.8945 10.9961C86.8945 10.8659 86.862 10.7552 86.7969 10.6641C86.7318 10.5599 86.6602 10.4753 86.582 10.4102C86.3997 9.82422 86.3086 9.2513 86.3086 8.69141C86.3086 7.91016 86.4844 7.1875 86.8359 6.52344C87.1745 5.84635 87.7148 5.33854 88.457 5C88.4701 4.89583 88.5026 4.80469 88.5547 4.72656C88.6198 4.64844 88.6589 4.55729 88.6719 4.45312C88.7891 4.45312 88.8802 4.42708 88.9453 4.375C89.0104 4.32292 89.069 4.27083 89.1211 4.21875C89.1862 4.15365 89.2513 4.09505 89.3164 4.04297C89.3815 3.99089 89.4661 3.95833 89.5703 3.94531C90.0651 3.51562 90.5924 3.17057 91.1523 2.91016C91.7122 2.63672 92.2852 2.35677 92.8711 2.07031C92.9883 2.01823 93.0859 1.92057 93.1641 1.77734H93.2812C93.4115 1.77734 93.5091 1.7513 93.5742 1.69922C93.6523 1.63411 93.763 1.61458 93.9062 1.64062C93.9583 1.5625 94.0234 1.51042 94.1016 1.48438C94.1927 1.45833 94.2773 1.4388 94.3555 1.42578C94.4466 1.39974 94.5312 1.36719 94.6094 1.32812C94.6875 1.28906 94.7396 1.23047 94.7656 1.15234H94.9023C95.1237 1.15234 95.3385 1.11979 95.5469 1.05469C95.7552 0.976562 95.9635 0.891927 96.1719 0.800781H96.3086C96.569 0.800781 96.8099 0.755208 97.0312 0.664062C97.2656 0.559896 97.513 0.488281 97.7734 0.449219C97.8776 0.423177 97.9818 0.416667 98.0859 0.429688C98.1901 0.442708 98.2943 0.449219 98.3984 0.449219C98.4635 0.449219 98.5417 0.442708 98.6328 0.429688C98.724 0.416667 98.7891 0.377604 98.8281 0.3125H98.8672C98.9453 0.3125 98.9909 0.338542 99.0039 0.390625C99.0169 0.442708 99.056 0.46875 99.1211 0.46875C99.2122 0.46875 99.3034 0.455729 99.3945 0.429688C99.4857 0.403646 99.5768 0.390625 99.668 0.390625C100.059 0.390625 100.443 0.429688 100.82 0.507812C101.211 0.585938 101.595 0.657552 101.973 0.722656C101.999 0.878906 102.064 0.989583 102.168 1.05469C102.285 1.11979 102.409 1.17839 102.539 1.23047V1.30859C102.539 1.41276 102.565 1.4974 102.617 1.5625C102.565 1.74479 102.474 1.88151 102.344 1.97266C102.214 2.0638 102.07 2.14193 101.914 2.20703C101.979 2.25911 102.018 2.33073 102.031 2.42188C102.044 2.51302 102.051 2.59766 102.051 2.67578V2.91016L101.953 2.89062C101.745 2.89062 101.641 2.98828 101.641 3.18359C101.471 3.07943 101.283 3.01432 101.074 2.98828C100.879 2.96224 100.684 2.94922 100.488 2.94922C100.228 2.94922 99.9544 2.96224 99.668 2.98828C99.3815 3.0013 99.1016 2.99479 98.8281 2.96875C98.724 3.09896 98.5938 3.19661 98.4375 3.26172C98.2812 3.3138 98.125 3.33984 97.9688 3.33984C97.7995 3.33984 97.6367 3.30729 97.4805 3.24219C97.3242 3.16406 97.2135 3.05339 97.1484 2.91016C97.0833 2.88411 97.0247 2.87109 96.9727 2.87109H96.7969C96.5885 2.87109 96.3802 2.89714 96.1719 2.94922C95.9766 2.98828 95.7747 3.04036 95.5664 3.10547C95.3581 3.15755 95.1497 3.21615 94.9414 3.28125C94.7461 3.33333 94.5443 3.36589 94.3359 3.37891C94.2578 3.48307 94.1536 3.55469 94.0234 3.59375C93.8932 3.63281 93.7891 3.70443 93.7109 3.80859C93.4375 3.86068 93.1901 3.95182 92.9688 4.08203C92.7474 4.19922 92.5326 4.32943 92.3242 4.47266L91.7188 4.88281C91.5234 5.01302 91.3021 5.1237 91.0547 5.21484C90.8724 5.41016 90.7031 5.56641 90.5469 5.68359C90.3906 5.80078 90.1888 5.90495 89.9414 5.99609C89.7852 6.04818 89.694 6.1263 89.668 6.23047C89.6549 6.33464 89.6029 6.4388 89.5117 6.54297C89.4336 6.63411 89.3359 6.70573 89.2188 6.75781C89.1146 6.79688 89.0234 6.86849 88.9453 6.97266C88.8802 7.0638 88.8281 7.17448 88.7891 7.30469C88.763 7.42188 88.7305 7.53906 88.6914 7.65625C88.6523 7.77344 88.6068 7.89062 88.5547 8.00781C88.5026 8.11198 88.4245 8.20312 88.3203 8.28125C88.3203 8.33333 88.3138 8.38542 88.3008 8.4375C88.3008 8.48958 88.3008 8.53516 88.3008 8.57422C88.3008 8.75651 88.3203 8.94531 88.3594 9.14062C88.4115 9.32292 88.444 9.50521 88.457 9.6875C88.7174 10.1432 89.0234 10.5599 89.375 10.9375C89.7266 11.3021 90.1042 11.6406 90.5078 11.9531C90.9115 12.2656 91.3281 12.5586 91.7578 12.832C92.2005 13.1055 92.6367 13.3724 93.0664 13.6328C93.2227 13.6198 93.3659 13.6393 93.4961 13.6914C93.6263 13.7305 93.763 13.7565 93.9062 13.7695C94.0625 13.8867 94.2448 13.9779 94.4531 14.043L95.0781 14.2383C95.2865 14.3034 95.4883 14.3815 95.6836 14.4727C95.8789 14.5508 96.0417 14.6615 96.1719 14.8047C96.237 14.8177 96.2956 14.8372 96.3477 14.8633C96.3997 14.8763 96.4583 14.8828 96.5234 14.8828C96.6016 14.8828 96.6471 14.8568 96.6602 14.8047C97.2461 15.026 97.819 15.2734 98.3789 15.5469C98.9388 15.8073 99.5312 16.0091 100.156 16.1523C100.404 16.3607 100.677 16.543 100.977 16.6992C101.276 16.8555 101.576 17.0182 101.875 17.1875C102.174 17.3438 102.461 17.5195 102.734 17.7148C103.008 17.8971 103.249 18.1185 103.457 18.3789C103.483 18.6263 103.535 18.8672 103.613 19.1016C103.704 19.3229 103.75 19.5638 103.75 19.8242ZM120.059 9.6875C120.059 9.86979 120.052 10.0521 120.039 10.2344C120.026 10.4167 120.007 10.599 119.98 10.7812C119.889 10.9115 119.798 11.0286 119.707 11.1328C119.629 11.224 119.577 11.3411 119.551 11.4844C119.408 11.5885 119.245 11.7318 119.062 11.9141C118.893 12.0964 118.822 12.2786 118.848 12.4609H118.574C118.418 12.6953 118.236 12.8971 118.027 13.0664C117.819 13.2357 117.598 13.3984 117.363 13.5547L116.68 14.0039C116.458 14.1471 116.25 14.3164 116.055 14.5117C115.951 14.5247 115.866 14.5443 115.801 14.5703C115.736 14.5964 115.651 14.6029 115.547 14.5898C115.143 14.8503 114.72 15.0781 114.277 15.2734C113.848 15.4688 113.411 15.6641 112.969 15.8594C112.539 16.0417 112.109 16.237 111.68 16.4453C111.25 16.6536 110.84 16.8945 110.449 17.168C110.41 17.1549 110.358 17.1484 110.293 17.1484C110.176 17.1484 110.059 17.168 109.941 17.207C109.824 17.2331 109.707 17.2461 109.59 17.2461C109.538 17.2461 109.466 17.2396 109.375 17.2266C109.297 17.2135 109.238 17.194 109.199 17.168C109.134 17.1289 109.076 17.0703 109.023 16.9922C108.971 16.9141 108.932 16.8294 108.906 16.7383C108.88 16.6341 108.861 16.5365 108.848 16.4453C108.835 16.3542 108.828 16.276 108.828 16.2109C108.828 16.1328 108.835 16.0482 108.848 15.957C108.861 15.8659 108.88 15.7812 108.906 15.7031C109.284 15.6771 109.661 15.5794 110.039 15.4102C110.43 15.2409 110.801 15.0781 111.152 14.9219C111.243 14.8828 111.315 14.8372 111.367 14.7852C111.432 14.7201 111.497 14.668 111.562 14.6289C111.628 14.5768 111.699 14.5312 111.777 14.4922C111.855 14.4531 111.953 14.4336 112.07 14.4336H112.129C112.949 14.056 113.75 13.6458 114.531 13.2031C115.326 12.7604 116.113 12.3112 116.895 11.8555C116.934 11.7383 116.992 11.6211 117.07 11.5039C117.161 11.3867 117.246 11.276 117.324 11.1719C117.402 11.0547 117.474 10.9375 117.539 10.8203C117.604 10.7031 117.637 10.5859 117.637 10.4688C117.637 10.2344 117.526 10.0391 117.305 9.88281H117.227C117.07 9.88281 116.934 9.86328 116.816 9.82422C116.699 9.77214 116.589 9.72656 116.484 9.6875C116.38 9.63542 116.263 9.59635 116.133 9.57031C116.003 9.53125 115.853 9.51823 115.684 9.53125C115.618 9.47917 115.514 9.43359 115.371 9.39453C115.228 9.35547 115.111 9.33594 115.02 9.33594C114.551 9.33594 114.089 9.36849 113.633 9.43359C113.177 9.48568 112.721 9.51823 112.266 9.53125C112.148 9.59635 112.038 9.65495 111.934 9.70703C111.829 9.75911 111.706 9.78516 111.562 9.78516C111.497 9.78516 111.439 9.78516 111.387 9.78516C111.335 9.77214 111.276 9.75911 111.211 9.74609C110.964 9.85026 110.684 9.94141 110.371 10.0195C110.059 10.0846 109.746 10.1693 109.434 10.2734C109.134 10.3646 108.854 10.4818 108.594 10.625C108.333 10.7682 108.132 10.9635 107.988 11.2109C107.988 11.276 108.001 11.3346 108.027 11.3867C108.053 11.4258 108.066 11.4779 108.066 11.543V11.6211C107.988 11.6992 107.936 11.7904 107.91 11.8945C107.884 11.9857 107.865 12.0833 107.852 12.1875C107.839 12.2786 107.819 12.3763 107.793 12.4805C107.78 12.5716 107.734 12.6628 107.656 12.7539C107.708 12.9492 107.734 13.1641 107.734 13.3984C107.734 13.6589 107.715 13.9193 107.676 14.1797C107.65 14.4401 107.637 14.7005 107.637 14.9609C107.637 15.2083 107.663 15.4297 107.715 15.625C107.637 15.7031 107.604 15.8203 107.617 15.9766C107.63 16.1328 107.598 16.25 107.52 16.3281C107.52 16.4323 107.546 16.5039 107.598 16.543C107.663 16.582 107.702 16.6471 107.715 16.7383C107.663 16.9596 107.637 17.2005 107.637 17.4609C107.637 17.8385 107.676 18.2227 107.754 18.6133C107.845 19.0039 107.949 19.388 108.066 19.7656C108.275 19.7005 108.496 19.6484 108.73 19.6094C108.978 19.5573 109.212 19.5312 109.434 19.5312C109.473 19.5312 109.512 19.5378 109.551 19.5508C109.59 19.5508 109.629 19.5508 109.668 19.5508C109.694 19.694 109.746 19.8242 109.824 19.9414C109.902 20.0586 109.974 20.1888 110.039 20.332C109.974 20.4232 109.915 20.4948 109.863 20.5469C109.824 20.612 109.805 20.6966 109.805 20.8008C109.622 20.8138 109.473 20.8594 109.355 20.9375C109.238 21.0286 109.108 21.1263 108.965 21.2305H108.887C108.665 21.2305 108.483 21.2695 108.34 21.3477C108.197 21.4388 108.034 21.5365 107.852 21.6406C107.695 21.5755 107.539 21.543 107.383 21.543C107.214 21.543 107.044 21.5755 106.875 21.6406C106.667 21.5495 106.497 21.4062 106.367 21.2109C106.237 21.0286 106.126 20.8203 106.035 20.5859C105.944 20.3646 105.859 20.1367 105.781 19.9023C105.716 19.668 105.638 19.4531 105.547 19.2578V18.9453C105.547 18.6458 105.521 18.3594 105.469 18.0859C105.43 17.7995 105.41 17.5065 105.41 17.207C105.41 17.0898 105.417 16.9661 105.43 16.8359C105.456 16.7057 105.495 16.582 105.547 16.4648C105.521 16.3477 105.508 16.237 105.508 16.1328V15.7617C105.508 15.3711 105.521 14.9805 105.547 14.5898C105.586 14.1992 105.605 13.8086 105.605 13.418C105.605 13.1315 105.586 12.8385 105.547 12.5391C105.482 12.5651 105.423 12.5911 105.371 12.6172C105.319 12.6432 105.26 12.6562 105.195 12.6562C105.13 12.6562 105.065 12.6497 105 12.6367C104.948 12.6237 104.896 12.6107 104.844 12.5977C104.714 12.4805 104.622 12.3372 104.57 12.168C104.518 11.9987 104.447 11.8424 104.355 11.6992C104.355 11.4518 104.395 11.25 104.473 11.0938C104.538 10.9245 104.622 10.7747 104.727 10.6445C104.831 10.5013 104.935 10.3646 105.039 10.2344C105.156 10.1042 105.254 9.94141 105.332 9.74609H105.41C105.618 9.74609 105.827 9.68099 106.035 9.55078C106.243 9.40755 106.478 9.33594 106.738 9.33594C106.829 9.21875 106.953 9.12109 107.109 9.04297C107.266 8.95182 107.428 8.88021 107.598 8.82812C107.78 8.77604 107.956 8.74349 108.125 8.73047C108.307 8.70443 108.477 8.69141 108.633 8.69141C108.685 8.60026 108.763 8.54167 108.867 8.51562C108.971 8.47656 109.076 8.44401 109.18 8.41797C109.297 8.37891 109.401 8.34635 109.492 8.32031C109.596 8.28125 109.681 8.21615 109.746 8.125C109.85 8.15104 109.948 8.16406 110.039 8.16406C110.208 8.16406 110.371 8.14453 110.527 8.10547C110.684 8.05339 110.84 8.0013 110.996 7.94922C111.152 7.88411 111.309 7.82552 111.465 7.77344C111.634 7.72135 111.81 7.69531 111.992 7.69531C112.057 7.69531 112.122 7.70182 112.188 7.71484C112.253 7.71484 112.318 7.71484 112.383 7.71484C112.487 7.71484 112.546 7.67578 112.559 7.59766C112.585 7.51953 112.63 7.46094 112.695 7.42188C112.734 7.4349 112.806 7.44141 112.91 7.44141C113.171 7.44141 113.424 7.42188 113.672 7.38281C113.919 7.33073 114.173 7.30469 114.434 7.30469C114.551 7.30469 114.668 7.3112 114.785 7.32422C114.902 7.33724 115.02 7.36979 115.137 7.42188C115.163 7.38281 115.189 7.35026 115.215 7.32422C115.241 7.29818 115.26 7.26562 115.273 7.22656C115.911 7.26562 116.51 7.39583 117.07 7.61719C117.643 7.83854 118.236 8.03385 118.848 8.20312C118.926 8.32031 119.017 8.42448 119.121 8.51562L119.453 8.78906C119.57 8.88021 119.681 8.97135 119.785 9.0625C119.889 9.15365 119.98 9.26432 120.059 9.39453V9.6875ZM133.066 9.23828C132.988 9.35547 132.943 9.48568 132.93 9.62891C132.917 9.77214 132.91 9.90234 132.91 10.0195C132.91 10.1758 132.91 10.332 132.91 10.4883C132.923 10.6315 132.93 10.7747 132.93 10.918V11.2109C132.904 11.3021 132.865 11.3932 132.812 11.4844C132.76 11.5755 132.721 11.6667 132.695 11.7578C132.513 12.2396 132.422 12.7214 132.422 13.2031V13.2422C132.357 13.3984 132.292 13.5417 132.227 13.6719C132.174 13.8021 132.122 13.9323 132.07 14.0625C132.018 14.1797 131.979 14.3099 131.953 14.4531C131.927 14.5833 131.921 14.7396 131.934 14.9219C131.751 15.3776 131.51 15.7943 131.211 16.1719C130.911 16.5365 130.618 16.9141 130.332 17.3047C130.059 17.4089 129.805 17.5456 129.57 17.7148C129.349 17.8841 129.134 18.0729 128.926 18.2812C128.522 18.4115 128.125 18.5612 127.734 18.7305C127.344 18.8997 126.992 19.1276 126.68 19.4141C126.432 19.4401 126.185 19.4792 125.938 19.5312C125.69 19.5833 125.449 19.6615 125.215 19.7656H124.98C124.863 19.7656 124.779 19.7396 124.727 19.6875C124.557 19.7786 124.382 19.8438 124.199 19.8828C124.017 19.9089 123.835 19.9219 123.652 19.9219C123.418 19.9219 123.184 19.9089 122.949 19.8828C122.728 19.8438 122.5 19.8047 122.266 19.7656C122.135 19.5833 121.953 19.4466 121.719 19.3555C121.484 19.2513 121.276 19.1536 121.094 19.0625C120.716 18.5417 120.443 18.0404 120.273 17.5586C120.104 17.0638 119.928 16.5104 119.746 15.8984C119.772 15.7161 119.818 15.5404 119.883 15.3711C119.948 15.1888 119.974 14.9935 119.961 14.7852C120.195 14.1081 120.501 13.4961 120.879 12.9492C121.27 12.3893 121.712 11.8555 122.207 11.3477C122.207 11.2695 122.22 11.2044 122.246 11.1523C122.285 11.1003 122.292 11.0221 122.266 10.918C122.279 10.931 122.305 10.9375 122.344 10.9375C122.448 10.9375 122.513 10.9115 122.539 10.8594C122.565 10.7943 122.572 10.7227 122.559 10.6445C123.027 10.3451 123.451 10 123.828 9.60938C124.219 9.21875 124.661 8.89323 125.156 8.63281C125.195 8.51562 125.26 8.41797 125.352 8.33984C125.443 8.26172 125.514 8.17057 125.566 8.06641C125.983 7.94922 126.361 7.77344 126.699 7.53906C127.038 7.30469 127.396 7.09635 127.773 6.91406C127.982 6.79688 128.177 6.71875 128.359 6.67969C128.555 6.6276 128.763 6.57552 128.984 6.52344C129.062 6.4974 129.134 6.47786 129.199 6.46484C129.264 6.45182 129.336 6.44531 129.414 6.44531C129.648 6.44531 129.876 6.49089 130.098 6.58203C130.319 6.66016 130.547 6.69922 130.781 6.69922C130.846 6.69922 130.898 6.69922 130.938 6.69922C130.99 6.6862 131.042 6.67318 131.094 6.66016C131.315 6.93359 131.595 7.14193 131.934 7.28516C132.012 7.48047 132.103 7.64974 132.207 7.79297C132.324 7.9362 132.441 8.07943 132.559 8.22266C132.676 8.35286 132.78 8.5026 132.871 8.67188C132.975 8.82812 133.04 9.01693 133.066 9.23828ZM131.113 10.2539C131.113 10.1888 131.107 10.1302 131.094 10.0781C130.964 10.0391 130.84 9.98698 130.723 9.92188C130.605 9.85677 130.475 9.82422 130.332 9.82422C130.241 9.82422 130.15 9.84375 130.059 9.88281C130.046 9.79167 130.007 9.72656 129.941 9.6875C129.889 9.64844 129.824 9.61589 129.746 9.58984C129.681 9.55078 129.609 9.52474 129.531 9.51172C129.466 9.48568 129.408 9.44661 129.355 9.39453C129.316 9.29036 129.271 9.1862 129.219 9.08203C129.18 8.96484 129.102 8.88021 128.984 8.82812C128.867 8.94531 128.73 9.04297 128.574 9.12109C128.418 9.1862 128.255 9.2513 128.086 9.31641C127.93 9.38151 127.773 9.45964 127.617 9.55078C127.474 9.64193 127.35 9.7526 127.246 9.88281H126.895C126.816 10.026 126.706 10.1367 126.562 10.2148C126.419 10.2799 126.296 10.3776 126.191 10.5078C125.983 10.612 125.788 10.7422 125.605 10.8984C125.436 11.0417 125.267 11.1979 125.098 11.3672C124.928 11.5234 124.759 11.6862 124.59 11.8555C124.434 12.0247 124.264 12.181 124.082 12.3242C123.913 12.6888 123.724 13.0078 123.516 13.2812C123.32 13.5417 123.132 13.8086 122.949 14.082C122.78 14.3555 122.63 14.6549 122.5 14.9805C122.383 15.293 122.324 15.6836 122.324 16.1523V16.3477C122.324 16.4128 122.331 16.4779 122.344 16.543C122.513 16.7253 122.65 16.9206 122.754 17.1289C122.871 17.3372 123.06 17.487 123.32 17.5781C123.581 17.6823 123.854 17.7279 124.141 17.7148C124.44 17.7018 124.727 17.7344 125 17.8125C125.625 17.6953 126.224 17.5065 126.797 17.2461C127.383 16.9727 127.936 16.6471 128.457 16.2695C128.535 16.2044 128.626 16.1393 128.73 16.0742C128.835 15.9961 128.919 15.918 128.984 15.8398C129.049 15.7747 129.102 15.7031 129.141 15.625C129.193 15.5469 129.245 15.4753 129.297 15.4102C129.401 15.2409 129.518 15.0716 129.648 14.9023C129.779 14.7331 129.915 14.5768 130.059 14.4336C130.124 14.1471 130.208 13.8737 130.312 13.6133C130.417 13.3398 130.521 13.0729 130.625 12.8125C130.729 12.5521 130.814 12.2852 130.879 12.0117C130.957 11.7383 130.996 11.4518 130.996 11.1523C130.996 11.0872 130.99 11.0156 130.977 10.9375C130.977 10.8594 130.97 10.7878 130.957 10.7227C131.061 10.5794 131.113 10.4232 131.113 10.2539ZM151.23 7.98828C151.178 8.15755 151.094 8.3138 150.977 8.45703L150.645 8.86719C150.54 8.9974 150.449 9.14062 150.371 9.29688C150.306 9.4401 150.286 9.60938 150.312 9.80469C150.286 9.80469 150.254 9.80469 150.215 9.80469C150.176 9.79167 150.143 9.78516 150.117 9.78516C149.909 9.78516 149.746 9.83724 149.629 9.94141C149.525 10.0326 149.382 10.1107 149.199 10.1758C149.173 10.0977 149.141 10.026 149.102 9.96094C149.062 9.88281 149.004 9.83073 148.926 9.80469C148.613 9.86979 148.301 9.92188 147.988 9.96094C147.676 9.98698 147.363 10.026 147.051 10.0781C146.908 10.1042 146.764 10.1432 146.621 10.1953C146.478 10.2344 146.328 10.2734 146.172 10.3125C146.094 10.3385 146.009 10.3516 145.918 10.3516C145.827 10.3385 145.736 10.3385 145.645 10.3516C145.332 10.3646 144.993 10.3906 144.629 10.4297C144.264 10.4557 143.939 10.5534 143.652 10.7227C143.522 10.6966 143.385 10.6771 143.242 10.6641C143.099 10.651 142.956 10.6445 142.812 10.6445C142.5 10.6445 142.155 10.6771 141.777 10.7422C141.413 10.7943 141.087 10.9049 140.801 11.0742C140.736 11.0482 140.664 11.0286 140.586 11.0156C140.521 11.0026 140.443 10.9961 140.352 10.9961C140.326 10.9961 140.306 11.0026 140.293 11.0156C140.28 11.0156 140.26 11.0156 140.234 11.0156C140.221 11.1328 140.234 11.25 140.273 11.3672C140.326 11.4714 140.41 11.556 140.527 11.6211C140.475 11.7643 140.449 11.9206 140.449 12.0898C140.449 12.3112 140.462 12.5326 140.488 12.7539C140.527 12.9753 140.547 13.1966 140.547 13.418C140.547 13.6654 140.514 13.8607 140.449 14.0039C140.579 14.3945 140.645 14.8112 140.645 15.2539C140.645 15.4102 140.632 15.5664 140.605 15.7227C140.592 15.8659 140.586 16.0221 140.586 16.1914C140.586 16.3346 140.638 16.4518 140.742 16.543C140.846 16.6211 140.898 16.7318 140.898 16.875C140.898 16.9271 140.885 16.9792 140.859 17.0312C141.042 16.9922 141.217 16.9401 141.387 16.875C141.556 16.7969 141.732 16.7578 141.914 16.7578C142.018 16.7578 142.116 16.7773 142.207 16.8164C142.311 16.8555 142.402 16.9076 142.48 16.9727C142.467 17.0378 142.454 17.1094 142.441 17.1875C142.441 17.2656 142.441 17.3438 142.441 17.4219C142.441 17.5651 142.441 17.7018 142.441 17.832C142.454 17.9492 142.467 18.0794 142.48 18.2227C142.376 18.4049 142.253 18.5677 142.109 18.7109C141.979 18.8542 141.888 19.0365 141.836 19.2578C141.641 19.2578 141.465 19.3034 141.309 19.3945C141.165 19.4727 141.029 19.5638 140.898 19.668C140.768 19.7591 140.638 19.8503 140.508 19.9414C140.378 20.0195 140.234 20.0586 140.078 20.0586C139.883 20.0586 139.746 20.0326 139.668 19.9805C139.59 19.9154 139.531 19.8503 139.492 19.7852C139.453 19.7201 139.414 19.6615 139.375 19.6094C139.349 19.5573 139.284 19.5378 139.18 19.5508C139.154 19.3815 139.102 19.2253 139.023 19.082C138.945 18.9258 138.861 18.776 138.77 18.6328C138.691 18.4896 138.607 18.3464 138.516 18.2031C138.438 18.0469 138.379 17.8906 138.34 17.7344C138.262 17.3958 138.229 17.0443 138.242 16.6797C138.255 16.3151 138.197 15.9635 138.066 15.625C138.092 15.4427 138.112 15.2604 138.125 15.0781C138.138 14.8828 138.145 14.694 138.145 14.5117C138.145 14.1471 138.132 13.7891 138.105 13.4375C138.092 13.0729 138.079 12.7018 138.066 12.3242C137.975 12.207 137.917 12.0768 137.891 11.9336C137.878 11.7773 137.865 11.6276 137.852 11.4844C137.812 11.4453 137.767 11.4062 137.715 11.3672C137.676 11.3281 137.65 11.276 137.637 11.2109C137.533 11.1849 137.454 11.1719 137.402 11.1719C137.22 11.1719 137.064 11.2174 136.934 11.3086C136.816 11.3867 136.706 11.4258 136.602 11.4258C136.497 11.4258 136.4 11.4128 136.309 11.3867C136.217 11.3607 136.126 11.3477 136.035 11.3477C135.957 11.3477 135.911 11.3672 135.898 11.4062C135.898 11.4323 135.872 11.4583 135.82 11.4844C135.781 11.5104 135.69 11.5365 135.547 11.5625C135.404 11.5885 135.241 11.6146 135.059 11.6406C134.889 11.6536 134.72 11.6667 134.551 11.6797C134.395 11.6927 134.29 11.6992 134.238 11.6992C134.03 11.6992 133.874 11.6602 133.77 11.582C133.652 11.4909 133.516 11.3932 133.359 11.2891C133.385 11.2109 133.398 11.1589 133.398 11.1328C133.398 11.0026 133.359 10.8984 133.281 10.8203C133.203 10.7292 133.164 10.651 133.164 10.5859C133.164 10.4427 133.223 10.332 133.34 10.2539C133.444 10.1758 133.503 10.0521 133.516 9.88281C133.815 9.7526 134.121 9.65495 134.434 9.58984C134.746 9.52474 135.065 9.47266 135.391 9.43359C135.716 9.39453 136.035 9.34896 136.348 9.29688C136.673 9.24479 136.992 9.16016 137.305 9.04297C137.396 9.05599 137.48 9.06901 137.559 9.08203C137.65 9.08203 137.741 9.08203 137.832 9.08203C138.223 9.08203 138.607 9.04297 138.984 8.96484C139.375 8.8737 139.772 8.82812 140.176 8.82812C140.28 8.82812 140.384 8.83464 140.488 8.84766C140.592 8.86068 140.697 8.88021 140.801 8.90625C141.322 8.82812 141.836 8.74349 142.344 8.65234C142.865 8.5612 143.398 8.48307 143.945 8.41797C144.206 8.39193 144.46 8.3724 144.707 8.35938C144.967 8.33333 145.228 8.30078 145.488 8.26172C145.579 8.2487 145.645 8.22917 145.684 8.20312C145.736 8.16406 145.762 8.09245 145.762 7.98828C145.879 8.04036 146.009 8.06641 146.152 8.06641C146.374 8.06641 146.589 8.02734 146.797 7.94922C147.005 7.87109 147.22 7.83203 147.441 7.83203C147.493 7.83203 147.539 7.83854 147.578 7.85156C147.617 7.85156 147.656 7.85156 147.695 7.85156C147.786 7.85156 147.832 7.8125 147.832 7.73438C147.845 7.64323 147.91 7.58464 148.027 7.55859C148.118 7.53255 148.249 7.51302 148.418 7.5C148.587 7.48698 148.763 7.47396 148.945 7.46094C149.141 7.4349 149.316 7.40885 149.473 7.38281C149.642 7.34375 149.766 7.29167 149.844 7.22656L149.98 7.01172C150.215 7.02474 150.384 7.12891 150.488 7.32422C150.605 7.50651 150.671 7.70833 150.684 7.92969C150.736 7.98177 150.807 8.00781 150.898 8.00781C151.003 7.99479 151.094 7.98828 151.172 7.98828H151.23ZM159.141 15.5273C159.141 15.6706 159.089 15.7812 158.984 15.8594C158.88 15.9245 158.828 16.0156 158.828 16.1328C158.828 16.1849 158.854 16.25 158.906 16.3281C158.724 16.3281 158.6 16.3867 158.535 16.5039C158.47 16.6211 158.405 16.7513 158.34 16.8945H158.086C158.021 16.8945 157.969 16.9076 157.93 16.9336C157.891 16.9596 157.852 16.9987 157.812 17.0508C157.786 17.0898 157.747 17.1549 157.695 17.2461C157.448 17.2982 157.207 17.3828 156.973 17.5C156.751 17.6042 156.53 17.7214 156.309 17.8516C156.1 17.9688 155.885 18.0924 155.664 18.2227C155.443 18.3398 155.215 18.4375 154.98 18.5156C154.863 18.7109 154.694 18.8672 154.473 18.9844H154.414C154.349 18.9974 154.29 18.9909 154.238 18.9648C154.199 18.9258 154.147 18.9062 154.082 18.9062C154.043 18.9062 154.017 18.9128 154.004 18.9258C153.613 19.1862 153.177 19.3164 152.695 19.3164C152.565 19.3164 152.441 19.3099 152.324 19.2969C152.207 19.2708 152.083 19.2578 151.953 19.2578C151.914 19.2578 151.888 19.2708 151.875 19.2969L151.836 19.375C151.823 19.401 151.803 19.4271 151.777 19.4531C151.764 19.4792 151.719 19.4922 151.641 19.4922C151.497 19.4922 151.354 19.4727 151.211 19.4336C151.068 19.3945 150.918 19.388 150.762 19.4141C150.462 19.2448 150.228 19.082 150.059 18.9258C149.889 18.7695 149.733 18.5352 149.59 18.2227C149.525 18.0794 149.434 17.9427 149.316 17.8125C149.212 17.6823 149.134 17.5391 149.082 17.3828C149.069 17.3307 149.049 17.2396 149.023 17.1094C148.997 16.9661 148.971 16.8164 148.945 16.6602C148.919 16.5039 148.893 16.3542 148.867 16.2109C148.854 16.0677 148.848 15.9701 148.848 15.918C148.848 15.7617 148.854 15.612 148.867 15.4688C148.893 15.3125 148.919 15.1562 148.945 15C149.023 14.5052 149.076 14.0104 149.102 13.5156C149.141 13.0078 149.251 12.5195 149.434 12.0508C149.408 11.9076 149.395 11.7708 149.395 11.6406V11.2109C149.395 10.9635 149.362 10.7552 149.297 10.5859C149.401 10.4167 149.453 10.2279 149.453 10.0195C149.453 9.78516 149.355 9.64844 149.16 9.60938V9.55078C149.16 9.27734 149.069 9.0625 148.887 8.90625C148.887 8.45052 148.997 8.11198 149.219 7.89062C149.453 7.65625 149.759 7.45443 150.137 7.28516C150.189 7.20703 150.208 7.14193 150.195 7.08984C150.286 7.11589 150.371 7.14193 150.449 7.16797C150.527 7.19401 150.605 7.20703 150.684 7.20703C150.814 7.20703 150.931 7.1875 151.035 7.14844C151.074 7.30469 151.172 7.40234 151.328 7.44141C151.497 7.46745 151.634 7.50651 151.738 7.55859V7.8125C151.738 8.21615 151.836 8.60026 152.031 8.96484C151.979 9.06901 151.947 9.17969 151.934 9.29688C151.921 9.41406 151.914 9.52474 151.914 9.62891C151.914 9.78516 151.921 9.94141 151.934 10.0977C151.947 10.2539 151.953 10.4036 151.953 10.5469C151.953 10.7031 151.934 10.8594 151.895 11.0156C151.868 11.1719 151.797 11.3086 151.68 11.4258C151.667 11.5951 151.654 11.7904 151.641 12.0117C151.641 12.2201 151.628 12.4349 151.602 12.6562C151.589 12.8776 151.556 13.0924 151.504 13.3008C151.452 13.5091 151.374 13.6784 151.27 13.8086C151.257 14.0039 151.243 14.2057 151.23 14.4141C151.23 14.6094 151.23 14.7982 151.23 14.9805C151.23 15.2669 151.243 15.6055 151.27 15.9961C151.309 16.3867 151.4 16.7122 151.543 16.9727C151.608 17.0768 151.732 17.1549 151.914 17.207C152.109 17.2591 152.266 17.2852 152.383 17.2852C152.526 17.2852 152.669 17.2656 152.812 17.2266C152.969 17.1745 153.079 17.0898 153.145 16.9727C153.223 16.9857 153.275 17.0247 153.301 17.0898C153.327 17.1549 153.372 17.207 153.438 17.2461C154.18 16.9336 154.922 16.6341 155.664 16.3477C156.406 16.0612 157.135 15.7292 157.852 15.3516C157.956 15.4036 158.066 15.4297 158.184 15.4297C158.314 15.4297 158.444 15.4167 158.574 15.3906C158.704 15.3646 158.835 15.3516 158.965 15.3516H159.102C159.128 15.4297 159.141 15.4883 159.141 15.5273ZM163.223 17.8711C163.158 17.9753 163.079 18.0729 162.988 18.1641C162.897 18.2422 162.812 18.3268 162.734 18.418C162.643 18.457 162.539 18.4766 162.422 18.4766C162.318 18.4766 162.214 18.4766 162.109 18.4766C162.018 18.4635 161.927 18.4635 161.836 18.4766C161.758 18.4766 161.693 18.5026 161.641 18.5547C161.536 18.5286 161.458 18.4831 161.406 18.418C161.354 18.3398 161.263 18.2943 161.133 18.2812C161.081 18.2682 161.029 18.2682 160.977 18.2812C160.781 18.0599 160.599 17.8255 160.43 17.5781C160.273 17.3307 160.124 17.0964 159.98 16.875C159.967 16.3932 159.928 15.9049 159.863 15.4102C159.85 15.293 159.831 15.1758 159.805 15.0586C159.779 14.9414 159.759 14.8307 159.746 14.7266C159.746 14.5964 159.753 14.4727 159.766 14.3555C159.792 14.2253 159.811 14.1081 159.824 14.0039C159.876 13.6263 159.935 13.2552 160 12.8906C160.065 12.526 160.124 12.1549 160.176 11.7773C160.228 11.4388 160.254 11.0872 160.254 10.7227C160.254 10.3451 160.195 9.99349 160.078 9.66797L160.059 9.57031C160.085 9.46615 160.111 9.38151 160.137 9.31641C160.176 9.23828 160.202 9.15365 160.215 9.0625C160.241 8.91927 160.208 8.8151 160.117 8.75C160.156 8.64583 160.221 8.58073 160.312 8.55469C160.404 8.51562 160.456 8.4375 160.469 8.32031C160.482 8.26823 160.482 8.21615 160.469 8.16406C160.573 8.125 160.677 8.09245 160.781 8.06641C160.898 8.02734 161.009 8.02083 161.113 8.04688C161.283 8.07292 161.432 8.13151 161.562 8.22266C161.693 8.30078 161.816 8.39193 161.934 8.49609C162.142 9.12109 162.227 9.78516 162.188 10.4883C162.148 11.1784 162.083 11.875 161.992 12.5781C161.901 13.2812 161.842 13.9714 161.816 14.6484C161.79 15.3125 161.895 15.931 162.129 16.5039L162.168 16.5234C162.233 16.5365 162.285 16.5169 162.324 16.4648C162.363 16.3997 162.415 16.3737 162.48 16.3867C162.533 16.4128 162.565 16.4258 162.578 16.4258C162.63 16.6862 162.715 16.9336 162.832 17.168C162.949 17.4023 163.079 17.6367 163.223 17.8711ZM185.43 9.74609C185.391 9.86328 185.312 9.94792 185.195 10C185.091 10.0391 184.98 10.0716 184.863 10.0977C184.746 10.1237 184.635 10.1693 184.531 10.2344C184.44 10.2865 184.382 10.3776 184.355 10.5078L184.316 10.5273C184.264 10.5273 184.225 10.5143 184.199 10.4883C184.186 10.4492 184.173 10.4167 184.16 10.3906C184.147 10.3516 184.128 10.319 184.102 10.293C184.089 10.2539 184.062 10.2344 184.023 10.2344C183.88 10.2344 183.737 10.2474 183.594 10.2734C183.464 10.2995 183.333 10.3125 183.203 10.3125C183.008 10.3125 182.832 10.2865 182.676 10.2344C182.585 10.2604 182.533 10.319 182.52 10.4102C182.52 10.5013 182.48 10.5599 182.402 10.5859C182.337 10.612 182.259 10.625 182.168 10.625C182.077 10.612 181.986 10.6185 181.895 10.6445L181.27 10.8008C181.061 10.8529 180.853 10.8789 180.645 10.8789C180.527 10.8789 180.443 10.8724 180.391 10.8594C180.195 11.0156 179.974 11.1328 179.727 11.2109C179.479 11.276 179.219 11.3411 178.945 11.4062C178.685 11.4583 178.424 11.5299 178.164 11.6211C177.917 11.7122 177.695 11.8555 177.5 12.0508C177.396 12.0247 177.305 12.0117 177.227 12.0117C177.057 12.0117 176.908 12.0508 176.777 12.1289C176.647 12.194 176.51 12.2591 176.367 12.3242C176.302 12.3503 176.237 12.3633 176.172 12.3633C176.107 12.3633 176.035 12.3763 175.957 12.4023C175.879 12.4284 175.827 12.474 175.801 12.5391C175.788 12.5911 175.749 12.6432 175.684 12.6953C175.684 13.1641 175.729 13.6328 175.82 14.1016C175.911 14.5573 175.957 15.0195 175.957 15.4883V15.5664C175.983 15.7878 176.055 15.9961 176.172 16.1914C176.289 16.3737 176.348 16.5625 176.348 16.7578C176.348 16.8229 176.335 16.8945 176.309 16.9727C176.647 17.0508 176.868 17.2266 176.973 17.5C177.09 17.7604 177.181 18.0469 177.246 18.3594C177.324 18.6589 177.422 18.9388 177.539 19.1992C177.669 19.4596 177.917 19.6224 178.281 19.6875C178.307 19.8177 178.327 19.9544 178.34 20.0977C178.353 20.2279 178.359 20.3581 178.359 20.4883C178.359 20.6706 178.34 20.8464 178.301 21.0156C178.262 21.1979 178.184 21.3607 178.066 21.5039C177.871 21.5169 177.728 21.5234 177.637 21.5234C177.546 21.5234 177.409 21.5625 177.227 21.6406C176.966 21.4844 176.732 21.3021 176.523 21.0938C176.328 20.8984 176.139 20.6901 175.957 20.4688C175.788 20.2344 175.618 20 175.449 19.7656C175.28 19.5182 175.098 19.2839 174.902 19.0625C174.225 19.2318 173.529 19.349 172.812 19.4141C172.109 19.4661 171.406 19.4922 170.703 19.4922C170.677 19.5182 170.638 19.5312 170.586 19.5312C170.534 19.5312 170.482 19.5378 170.43 19.5508C170.391 19.5508 170.352 19.5638 170.312 19.5898C170.286 19.6029 170.28 19.6354 170.293 19.6875C170.202 19.6354 170.098 19.6029 169.98 19.5898C169.876 19.5638 169.779 19.5508 169.688 19.5508C169.622 19.5508 169.557 19.5573 169.492 19.5703C169.427 19.5703 169.362 19.5898 169.297 19.6289C168.802 19.5378 168.32 19.4141 167.852 19.2578C167.396 19.0885 166.927 18.9518 166.445 18.8477C166.445 18.7435 166.419 18.6719 166.367 18.6328C166.315 18.5807 166.27 18.5091 166.23 18.418C165.684 18.0794 165.221 17.6693 164.844 17.1875C164.479 16.7057 164.329 16.1198 164.395 15.4297L164.258 15.1562C164.258 14.9479 164.303 14.7982 164.395 14.707C164.342 14.6159 164.251 14.5247 164.121 14.4336C164.238 14.2513 164.342 14.0625 164.434 13.8672C164.525 13.6719 164.59 13.4635 164.629 13.2422C164.642 13.1771 164.648 13.1185 164.648 13.0664C164.648 13.0143 164.661 12.9557 164.688 12.8906C164.714 12.8125 164.753 12.7279 164.805 12.6367C164.844 12.5326 164.883 12.4414 164.922 12.3633C165.13 11.9206 165.358 11.4974 165.605 11.0938C165.866 10.6771 166.191 10.319 166.582 10.0195C166.608 9.79818 166.673 9.61589 166.777 9.47266C166.882 9.31641 166.992 9.17969 167.109 9.0625C167.24 8.93229 167.363 8.80208 167.48 8.67188C167.611 8.54167 167.708 8.38542 167.773 8.20312C168.034 7.98177 168.294 7.76693 168.555 7.55859C168.828 7.35026 169.056 7.10286 169.238 6.81641C169.473 6.73828 169.694 6.64062 169.902 6.52344C170.111 6.39323 170.286 6.23047 170.43 6.03516C170.742 6.00911 171.048 5.95052 171.348 5.85938C171.66 5.76823 171.986 5.72266 172.324 5.72266C172.467 5.72266 172.637 5.75521 172.832 5.82031C173.04 5.8724 173.197 5.97005 173.301 6.11328C173.314 6.13932 173.32 6.17188 173.32 6.21094L173.34 6.30859C173.353 6.33464 173.366 6.36068 173.379 6.38672C173.405 6.39974 173.444 6.39974 173.496 6.38672C173.496 6.67318 173.464 6.96615 173.398 7.26562C173.333 7.55208 173.164 7.77344 172.891 7.92969C172.721 7.8776 172.539 7.85156 172.344 7.85156C172.083 7.85156 171.842 7.90365 171.621 8.00781C171.413 8.09896 171.204 8.20964 170.996 8.33984C170.801 8.45703 170.599 8.58073 170.391 8.71094C170.182 8.82812 169.961 8.91276 169.727 8.96484C169.701 9.06901 169.674 9.16667 169.648 9.25781C169.635 9.33594 169.642 9.42708 169.668 9.53125C169.603 9.53125 169.551 9.52474 169.512 9.51172C169.486 9.48568 169.44 9.47266 169.375 9.47266C169.284 9.47266 169.219 9.52474 169.18 9.62891C169.154 9.73307 169.128 9.81771 169.102 9.88281C168.854 9.98698 168.646 10.1367 168.477 10.332C168.32 10.5143 168.171 10.7161 168.027 10.9375C167.897 11.1458 167.754 11.3477 167.598 11.543C167.441 11.7383 167.246 11.888 167.012 11.9922C166.908 12.4089 166.803 12.819 166.699 13.2227C166.608 13.6263 166.497 14.0299 166.367 14.4336C166.406 14.5898 166.426 14.7526 166.426 14.9219C166.426 15.1302 166.406 15.319 166.367 15.4883C166.432 15.5924 166.497 15.7161 166.562 15.8594L166.797 16.3086C166.875 16.4648 166.953 16.6081 167.031 16.7383C167.122 16.8685 167.207 16.9661 167.285 17.0312C167.428 17.1354 167.65 17.2331 167.949 17.3242C168.249 17.4023 168.516 17.5391 168.75 17.7344C168.776 17.7344 168.809 17.7344 168.848 17.7344C168.887 17.7214 168.919 17.7148 168.945 17.7148C169.102 17.7148 169.271 17.7539 169.453 17.832C169.635 17.9102 169.753 17.9492 169.805 17.9492C170.534 17.9492 171.328 17.9036 172.188 17.8125C173.047 17.7083 173.841 17.5846 174.57 17.4414C174.596 17.3112 174.609 17.2005 174.609 17.1094C174.609 16.9401 174.583 16.7773 174.531 16.6211C174.479 16.4518 174.395 16.3086 174.277 16.1914C174.277 15.9961 174.277 15.8008 174.277 15.6055C174.29 15.4102 174.297 15.2148 174.297 15.0195C174.297 14.694 174.284 14.349 174.258 13.9844C174.232 13.6198 174.167 13.2812 174.062 12.9688H174.023C173.854 12.9688 173.698 13.0143 173.555 13.1055C173.424 13.1836 173.288 13.2227 173.145 13.2227C173.066 13.2227 173.001 13.2031 172.949 13.1641C172.793 13.3464 172.604 13.4831 172.383 13.5742C172.161 13.6654 171.927 13.75 171.68 13.8281C171.432 13.8932 171.185 13.9648 170.938 14.043C170.703 14.1211 170.488 14.2318 170.293 14.375C170.189 14.3359 170.091 14.3164 170 14.3164C169.909 14.3164 169.818 14.3229 169.727 14.3359C169.648 14.349 169.557 14.362 169.453 14.375C169.18 14.1406 169.043 13.8477 169.043 13.4961C169.043 13.3138 169.069 13.138 169.121 12.9688C169.186 12.7865 169.271 12.6172 169.375 12.4609C169.44 12.4219 169.518 12.4023 169.609 12.4023C169.701 12.3893 169.792 12.3763 169.883 12.3633C169.974 12.3372 170.046 12.3047 170.098 12.2656C170.163 12.2266 170.202 12.1549 170.215 12.0508C170.254 12.0898 170.286 12.1094 170.312 12.1094C170.339 12.1094 170.365 12.1029 170.391 12.0898C170.417 12.0768 170.443 12.0703 170.469 12.0703C170.495 12.0703 170.514 12.0833 170.527 12.1094C170.553 12.1354 170.566 12.1615 170.566 12.1875C171.126 11.888 171.699 11.6341 172.285 11.4258C172.871 11.2174 173.464 11.0286 174.062 10.8594C174.674 10.6901 175.286 10.5339 175.898 10.3906C176.51 10.2344 177.116 10.0651 177.715 9.88281C177.806 9.80469 177.904 9.74609 178.008 9.70703C178.112 9.66797 178.203 9.60938 178.281 9.53125C178.372 9.58333 178.483 9.60938 178.613 9.60938C178.796 9.60938 178.991 9.57682 179.199 9.51172C179.421 9.43359 179.603 9.34245 179.746 9.23828C179.798 9.2513 179.844 9.25781 179.883 9.25781H180.02C180.28 9.25781 180.521 9.21875 180.742 9.14062C180.977 9.0625 181.204 8.95833 181.426 8.82812H181.523C181.927 8.82812 182.324 8.78255 182.715 8.69141C183.118 8.60026 183.529 8.55469 183.945 8.55469C184.479 8.55469 184.948 8.69141 185.352 8.96484V9.19922C185.352 9.30339 185.352 9.40104 185.352 9.49219C185.365 9.57031 185.391 9.65495 185.43 9.74609ZM191.973 11.4258C191.921 11.556 191.868 11.6797 191.816 11.7969C191.764 11.9141 191.725 12.0443 191.699 12.1875C191.608 12.2526 191.504 12.3047 191.387 12.3438C191.283 12.3698 191.172 12.4023 191.055 12.4414C190.938 12.4674 190.827 12.5065 190.723 12.5586C190.632 12.5977 190.56 12.6628 190.508 12.7539C190.469 12.9492 190.449 13.1315 190.449 13.3008C190.449 13.5221 190.488 13.7109 190.566 13.8672C190.527 13.9844 190.501 14.1081 190.488 14.2383C190.475 14.3685 190.469 14.4922 190.469 14.6094C190.469 15.0391 190.521 15.4688 190.625 15.8984C190.729 16.3151 190.788 16.7383 190.801 17.168C190.801 17.2331 190.794 17.3047 190.781 17.3828C190.768 17.4609 190.762 17.5326 190.762 17.5977C190.762 17.8711 190.866 18.0534 191.074 18.1445C191.035 18.2096 191.016 18.2682 191.016 18.3203C191.016 18.4245 191.029 18.5156 191.055 18.5938C191.081 18.6719 191.087 18.7565 191.074 18.8477C191.139 18.9779 191.204 19.0951 191.27 19.1992C191.335 19.2904 191.38 19.4076 191.406 19.5508C191.315 19.7331 191.204 19.9023 191.074 20.0586C190.944 20.2018 190.853 20.3841 190.801 20.6055C190.749 20.5924 190.69 20.5859 190.625 20.5859C190.534 20.5859 190.462 20.6055 190.41 20.6445C190.358 20.6836 190.312 20.7292 190.273 20.7812C190.247 20.8464 190.215 20.9049 190.176 20.957C190.137 21.0221 190.085 21.0677 190.02 21.0938H189.961C189.896 21.1068 189.837 21.1003 189.785 21.0742C189.746 21.0612 189.707 21.0547 189.668 21.0547C189.642 21.0547 189.59 21.0677 189.512 21.0938C189.408 20.9635 189.336 20.8073 189.297 20.625C189.258 20.4557 189.238 20.2865 189.238 20.1172C189.238 19.9349 189.264 19.7721 189.316 19.6289C189.173 19.5117 189.082 19.3359 189.043 19.1016C189.017 18.8672 188.984 18.6719 188.945 18.5156C188.841 18.0339 188.717 17.5651 188.574 17.1094C188.444 16.6536 188.366 16.1849 188.34 15.7031C188.327 15.5208 188.32 15.3451 188.32 15.1758V14.1602C188.32 13.9909 188.327 13.8281 188.34 13.6719C188.34 13.5547 188.346 13.444 188.359 13.3398C188.385 13.2227 188.398 13.1055 188.398 12.9883C188.398 12.832 188.346 12.6823 188.242 12.5391C187.318 12.5781 186.439 12.7474 185.605 13.0469C184.785 13.3333 183.965 13.6784 183.145 14.082C183.092 14.3815 183.06 14.6745 183.047 14.9609C183.034 15.2474 183.027 15.5404 183.027 15.8398V16.6992C183.027 17.0247 183.04 17.2982 183.066 17.5195C183.132 17.8971 183.32 18.1901 183.633 18.3984C183.958 18.5938 184.284 18.7435 184.609 18.8477C184.596 19.043 184.557 19.2122 184.492 19.3555C184.427 19.4857 184.342 19.6094 184.238 19.7266C184.147 19.8307 184.043 19.9349 183.926 20.0391C183.809 20.1432 183.691 20.2604 183.574 20.3906C183.47 20.3255 183.366 20.2799 183.262 20.2539C183.158 20.2279 183.047 20.2148 182.93 20.2148C182.812 20.2018 182.695 20.1888 182.578 20.1758C182.461 20.1628 182.344 20.1367 182.227 20.0977L181.797 19.5117C181.654 19.3164 181.497 19.1211 181.328 18.9258V18.75C181.328 18.3984 181.263 18.0599 181.133 17.7344C181.003 17.4089 180.905 17.0768 180.84 16.7383C180.879 16.6211 180.905 16.5039 180.918 16.3867C180.931 16.2695 180.938 16.1458 180.938 16.0156C180.938 15.7552 180.924 15.5013 180.898 15.2539C180.885 15.0065 180.892 14.7591 180.918 14.5117H180.82C180.703 14.5117 180.579 14.5443 180.449 14.6094C180.319 14.6615 180.189 14.7266 180.059 14.8047C179.941 14.8698 179.824 14.9349 179.707 15C179.603 15.0521 179.512 15.0781 179.434 15.0781C179.395 15.0781 179.355 15.0716 179.316 15.0586C179.277 15.0456 179.232 15.0391 179.18 15.0391C179.115 15.0391 179.036 15.0651 178.945 15.1172C178.854 15.1693 178.757 15.2279 178.652 15.293C178.535 15.3451 178.418 15.3971 178.301 15.4492C178.184 15.5013 178.066 15.5273 177.949 15.5273C177.767 15.5273 177.585 15.4492 177.402 15.293C177.376 15.1888 177.37 15.0911 177.383 15C177.383 14.9089 177.383 14.8112 177.383 14.707C177.383 14.6029 177.363 14.4922 177.324 14.375C177.415 14.2057 177.539 14.0755 177.695 13.9844C177.839 13.8802 177.995 13.7891 178.164 13.7109C178.32 13.6198 178.483 13.5352 178.652 13.457C178.822 13.3659 178.965 13.2487 179.082 13.1055H179.199C179.382 13.1055 179.544 13.0664 179.688 12.9883C179.844 12.9102 180.02 12.8776 180.215 12.8906C180.28 12.8646 180.326 12.7669 180.352 12.5977L180.43 12.6172C180.716 12.6172 180.97 12.5195 181.191 12.3242C181.335 11.5169 181.452 10.7031 181.543 9.88281C181.634 9.0625 181.68 8.24219 181.68 7.42188C181.68 7.34375 181.654 7.26562 181.602 7.1875C181.576 7.08333 181.562 6.98568 181.562 6.89453V6.60156C181.562 6.45833 181.569 6.30859 181.582 6.15234C181.595 5.99609 181.628 5.83984 181.68 5.68359C181.81 5.60547 181.947 5.56641 182.09 5.56641C182.259 5.56641 182.422 5.59245 182.578 5.64453C182.747 5.68359 182.91 5.71615 183.066 5.74219C183.184 5.85938 183.268 5.98958 183.32 6.13281C183.385 6.27604 183.424 6.42578 183.438 6.58203C183.451 6.72526 183.451 6.875 183.438 7.03125C183.438 7.17448 183.438 7.31771 183.438 7.46094C183.438 7.7474 183.47 8.02734 183.535 8.30078C183.6 8.57422 183.633 8.84115 183.633 9.10156C183.633 9.16667 183.607 9.21875 183.555 9.25781C183.516 9.28385 183.496 9.36849 183.496 9.51172C183.496 9.65495 183.509 9.80469 183.535 9.96094C183.561 10.1172 183.574 10.2734 183.574 10.4297C183.574 10.612 183.548 10.8008 183.496 10.9961C183.444 11.1914 183.398 11.3802 183.359 11.5625C184.141 11.4974 184.941 11.3997 185.762 11.2695C186.582 11.1393 187.363 10.931 188.105 10.6445C188.118 10.6185 188.125 10.5794 188.125 10.5273C188.125 10.4492 188.118 10.3711 188.105 10.293C188.092 10.2148 188.086 10.1302 188.086 10.0391C188.086 9.88281 188.138 9.75911 188.242 9.66797C188.177 9.30339 188.132 8.9388 188.105 8.57422C188.079 8.20964 188.066 7.84505 188.066 7.48047V6.36719C188.066 6.0026 188.06 5.63802 188.047 5.27344C188.151 5.20833 188.262 5.17578 188.379 5.17578C188.522 5.17578 188.652 5.21484 188.77 5.29297C188.9 5.35807 189.049 5.39062 189.219 5.39062C189.336 5.39062 189.434 5.37109 189.512 5.33203C189.655 5.46224 189.753 5.63151 189.805 5.83984C189.857 6.04818 189.902 6.26302 189.941 6.48438C189.98 6.70573 190.02 6.92708 190.059 7.14844C190.111 7.35677 190.208 7.52604 190.352 7.65625L190.371 7.71484C190.371 7.76693 190.345 7.80599 190.293 7.83203C190.241 7.85807 190.215 7.91016 190.215 7.98828V8.06641C190.267 8.27474 190.306 8.48958 190.332 8.71094C190.358 8.93229 190.378 9.16016 190.391 9.39453C190.417 9.61589 190.449 9.83724 190.488 10.0586C190.527 10.2669 190.599 10.4622 190.703 10.6445C190.768 10.6315 190.853 10.625 190.957 10.625C191.217 10.625 191.419 10.7161 191.562 10.8984C191.719 11.0677 191.855 11.2435 191.973 11.4258ZM210.039 7.98828C209.987 8.15755 209.902 8.3138 209.785 8.45703L209.453 8.86719C209.349 8.9974 209.258 9.14062 209.18 9.29688C209.115 9.4401 209.095 9.60938 209.121 9.80469C209.095 9.80469 209.062 9.80469 209.023 9.80469C208.984 9.79167 208.952 9.78516 208.926 9.78516C208.717 9.78516 208.555 9.83724 208.438 9.94141C208.333 10.0326 208.19 10.1107 208.008 10.1758C207.982 10.0977 207.949 10.026 207.91 9.96094C207.871 9.88281 207.812 9.83073 207.734 9.80469C207.422 9.86979 207.109 9.92188 206.797 9.96094C206.484 9.98698 206.172 10.026 205.859 10.0781C205.716 10.1042 205.573 10.1432 205.43 10.1953C205.286 10.2344 205.137 10.2734 204.98 10.3125C204.902 10.3385 204.818 10.3516 204.727 10.3516C204.635 10.3385 204.544 10.3385 204.453 10.3516C204.141 10.3646 203.802 10.3906 203.438 10.4297C203.073 10.4557 202.747 10.5534 202.461 10.7227C202.331 10.6966 202.194 10.6771 202.051 10.6641C201.908 10.651 201.764 10.6445 201.621 10.6445C201.309 10.6445 200.964 10.6771 200.586 10.7422C200.221 10.7943 199.896 10.9049 199.609 11.0742C199.544 11.0482 199.473 11.0286 199.395 11.0156C199.329 11.0026 199.251 10.9961 199.16 10.9961C199.134 10.9961 199.115 11.0026 199.102 11.0156C199.089 11.0156 199.069 11.0156 199.043 11.0156C199.03 11.1328 199.043 11.25 199.082 11.3672C199.134 11.4714 199.219 11.556 199.336 11.6211C199.284 11.7643 199.258 11.9206 199.258 12.0898C199.258 12.3112 199.271 12.5326 199.297 12.7539C199.336 12.9753 199.355 13.1966 199.355 13.418C199.355 13.6654 199.323 13.8607 199.258 14.0039C199.388 14.3945 199.453 14.8112 199.453 15.2539C199.453 15.4102 199.44 15.5664 199.414 15.7227C199.401 15.8659 199.395 16.0221 199.395 16.1914C199.395 16.3346 199.447 16.4518 199.551 16.543C199.655 16.6211 199.707 16.7318 199.707 16.875C199.707 16.9271 199.694 16.9792 199.668 17.0312C199.85 16.9922 200.026 16.9401 200.195 16.875C200.365 16.7969 200.54 16.7578 200.723 16.7578C200.827 16.7578 200.924 16.7773 201.016 16.8164C201.12 16.8555 201.211 16.9076 201.289 16.9727C201.276 17.0378 201.263 17.1094 201.25 17.1875C201.25 17.2656 201.25 17.3438 201.25 17.4219C201.25 17.5651 201.25 17.7018 201.25 17.832C201.263 17.9492 201.276 18.0794 201.289 18.2227C201.185 18.4049 201.061 18.5677 200.918 18.7109C200.788 18.8542 200.697 19.0365 200.645 19.2578C200.449 19.2578 200.273 19.3034 200.117 19.3945C199.974 19.4727 199.837 19.5638 199.707 19.668C199.577 19.7591 199.447 19.8503 199.316 19.9414C199.186 20.0195 199.043 20.0586 198.887 20.0586C198.691 20.0586 198.555 20.0326 198.477 19.9805C198.398 19.9154 198.34 19.8503 198.301 19.7852C198.262 19.7201 198.223 19.6615 198.184 19.6094C198.158 19.5573 198.092 19.5378 197.988 19.5508C197.962 19.3815 197.91 19.2253 197.832 19.082C197.754 18.9258 197.669 18.776 197.578 18.6328C197.5 18.4896 197.415 18.3464 197.324 18.2031C197.246 18.0469 197.188 17.8906 197.148 17.7344C197.07 17.3958 197.038 17.0443 197.051 16.6797C197.064 16.3151 197.005 15.9635 196.875 15.625C196.901 15.4427 196.921 15.2604 196.934 15.0781C196.947 14.8828 196.953 14.694 196.953 14.5117C196.953 14.1471 196.94 13.7891 196.914 13.4375C196.901 13.0729 196.888 12.7018 196.875 12.3242C196.784 12.207 196.725 12.0768 196.699 11.9336C196.686 11.7773 196.673 11.6276 196.66 11.4844C196.621 11.4453 196.576 11.4062 196.523 11.3672C196.484 11.3281 196.458 11.276 196.445 11.2109C196.341 11.1849 196.263 11.1719 196.211 11.1719C196.029 11.1719 195.872 11.2174 195.742 11.3086C195.625 11.3867 195.514 11.4258 195.41 11.4258C195.306 11.4258 195.208 11.4128 195.117 11.3867C195.026 11.3607 194.935 11.3477 194.844 11.3477C194.766 11.3477 194.72 11.3672 194.707 11.4062C194.707 11.4323 194.681 11.4583 194.629 11.4844C194.59 11.5104 194.499 11.5365 194.355 11.5625C194.212 11.5885 194.049 11.6146 193.867 11.6406C193.698 11.6536 193.529 11.6667 193.359 11.6797C193.203 11.6927 193.099 11.6992 193.047 11.6992C192.839 11.6992 192.682 11.6602 192.578 11.582C192.461 11.4909 192.324 11.3932 192.168 11.2891C192.194 11.2109 192.207 11.1589 192.207 11.1328C192.207 11.0026 192.168 10.8984 192.09 10.8203C192.012 10.7292 191.973 10.651 191.973 10.5859C191.973 10.4427 192.031 10.332 192.148 10.2539C192.253 10.1758 192.311 10.0521 192.324 9.88281C192.624 9.7526 192.93 9.65495 193.242 9.58984C193.555 9.52474 193.874 9.47266 194.199 9.43359C194.525 9.39453 194.844 9.34896 195.156 9.29688C195.482 9.24479 195.801 9.16016 196.113 9.04297C196.204 9.05599 196.289 9.06901 196.367 9.08203C196.458 9.08203 196.549 9.08203 196.641 9.08203C197.031 9.08203 197.415 9.04297 197.793 8.96484C198.184 8.8737 198.581 8.82812 198.984 8.82812C199.089 8.82812 199.193 8.83464 199.297 8.84766C199.401 8.86068 199.505 8.88021 199.609 8.90625C200.13 8.82812 200.645 8.74349 201.152 8.65234C201.673 8.5612 202.207 8.48307 202.754 8.41797C203.014 8.39193 203.268 8.3724 203.516 8.35938C203.776 8.33333 204.036 8.30078 204.297 8.26172C204.388 8.2487 204.453 8.22917 204.492 8.20312C204.544 8.16406 204.57 8.09245 204.57 7.98828C204.688 8.04036 204.818 8.06641 204.961 8.06641C205.182 8.06641 205.397 8.02734 205.605 7.94922C205.814 7.87109 206.029 7.83203 206.25 7.83203C206.302 7.83203 206.348 7.83854 206.387 7.85156C206.426 7.85156 206.465 7.85156 206.504 7.85156C206.595 7.85156 206.641 7.8125 206.641 7.73438C206.654 7.64323 206.719 7.58464 206.836 7.55859C206.927 7.53255 207.057 7.51302 207.227 7.5C207.396 7.48698 207.572 7.47396 207.754 7.46094C207.949 7.4349 208.125 7.40885 208.281 7.38281C208.451 7.34375 208.574 7.29167 208.652 7.22656L208.789 7.01172C209.023 7.02474 209.193 7.12891 209.297 7.32422C209.414 7.50651 209.479 7.70833 209.492 7.92969C209.544 7.98177 209.616 8.00781 209.707 8.00781C209.811 7.99479 209.902 7.98828 209.98 7.98828H210.039Z" fill="#07080E"/>
</svg>
